<svg width="967" height="566" viewBox="0 0 967 566" fill="none" xmlns="http://www.w3.org/2000/svg">
<rect width="967" height="566" fill="#F8F8F8"/>
<path d="M322.013 440.5L380.247 364.5H578.138L534.71 440.5H322.013Z" fill="#92A6DC" stroke="#274697"/>
<path d="M258.367 269.667H218.333V276.333H258.367V286.333L271.667 273L258.367 259.667V269.667Z" fill="#2F2D44"/>
<path d="M685.045 345.5H631V350.5H685.045V358L703 348L685.045 338V345.5Z" fill="#2F2D44"/>
<path d="M685.045 87.5H631V92.5H685.045V100L703 90L685.045 80V87.5Z" fill="#2F2D44"/>
<path d="M685.045 216.5H631V221.5H685.045V229L703 219L685.045 209V216.5Z" fill="#2F2D44"/>
<path d="M685.045 474.5H631V479.5H685.045V487L703 477L685.045 467V474.5Z" fill="#2F2D44"/>
<ellipse cx="830.5" cy="124.21" rx="75.5" ry="20.1333" fill="#5A72B0"/>
<rect x="755" y="36.63" width="151" height="87.58" fill="#5A72B0"/>
<ellipse cx="830.5" cy="37.1333" rx="75.5" ry="20.1333" fill="#274697"/>
<path d="M804.045 93.9102C804.045 95.1853 803.582 96.2054 802.656 96.9705C801.743 97.7221 800.441 98.0979 798.75 98.0979C797.233 98.0979 795.877 97.8094 794.683 97.2322V94.3934C795.367 94.6887 796.072 94.9639 796.797 95.2189C797.535 95.4605 798.266 95.5813 798.991 95.5813C799.743 95.5813 800.273 95.4403 800.582 95.1585C800.904 94.8632 801.065 94.4941 801.065 94.0511C801.065 93.6887 800.937 93.38 800.682 93.125C800.441 92.87 800.112 92.6351 799.696 92.4203C799.28 92.1922 798.803 91.9506 798.266 91.6955C797.931 91.5345 797.569 91.3466 797.179 91.1318C796.79 90.9036 796.414 90.6285 796.052 90.3063C795.703 89.9708 795.414 89.5681 795.186 89.0983C794.958 88.6286 794.844 88.0648 794.844 87.4071C794.844 86.1186 795.28 85.1187 796.152 84.4073C797.025 83.6825 798.213 83.3201 799.716 83.3201C800.468 83.3201 801.179 83.4073 801.85 83.5818C802.535 83.7563 803.246 84.0046 803.984 84.3267L802.998 86.7025C802.34 86.434 801.75 86.226 801.226 86.0783C800.703 85.9307 800.166 85.8569 799.615 85.8569C799.038 85.8569 798.595 85.9911 798.287 86.2595C797.978 86.528 797.824 86.877 797.824 87.3065C797.824 87.8165 798.052 88.2192 798.508 88.5145C798.964 88.8098 799.642 89.1722 800.542 89.6017C801.28 89.9507 801.904 90.3131 802.414 90.6889C802.937 91.0647 803.34 91.5076 803.622 92.0177C803.904 92.5277 804.045 93.1586 804.045 93.9102ZM814.932 97.8966H806.658V83.5214H814.932V86.0179H809.698V89.1789H814.57V91.6754H809.698V95.3799H814.932V97.8966ZM822.111 83.5214C824.071 83.5214 825.514 83.8771 826.44 84.5885C827.38 85.2999 827.849 86.3803 827.849 87.8299C827.849 88.4876 827.722 89.0648 827.467 89.5614C827.225 90.0446 826.896 90.4607 826.48 90.8097C826.078 91.1452 825.641 91.4204 825.172 91.6351L829.4 97.8966H826.017L822.595 92.3801H820.964V97.8966H817.924V83.5214H822.111ZM821.89 86.0179H820.964V89.9037H821.95C822.957 89.9037 823.675 89.7359 824.105 89.4003C824.548 89.0648 824.769 88.5682 824.769 87.9105C824.769 87.2259 824.534 86.7427 824.064 86.4609C823.608 86.1656 822.883 86.0179 821.89 86.0179ZM842.489 83.5214L837.597 97.8966H834.275L829.403 83.5214H832.483L835.181 92.0781C835.235 92.2257 835.309 92.5009 835.403 92.9035C835.51 93.2928 835.617 93.7089 835.725 94.1518C835.832 94.5813 835.906 94.9437 835.946 95.239C835.986 94.9437 836.054 94.5813 836.147 94.1518C836.255 93.7089 836.362 93.2928 836.47 92.9035C836.577 92.5009 836.651 92.2257 836.691 92.0781L839.409 83.5214H842.489ZM852.584 97.8966H844.309V83.5214H852.584V86.0179H847.349V89.1789H852.222V91.6754H847.349V95.3799H852.584V97.8966ZM859.763 83.5214C861.723 83.5214 863.166 83.8771 864.092 84.5885C865.031 85.2999 865.501 86.3803 865.501 87.8299C865.501 88.4876 865.374 89.0648 865.119 89.5614C864.877 90.0446 864.548 90.4607 864.132 90.8097C863.729 91.1452 863.293 91.4204 862.823 91.6351L867.051 97.8966H863.669L860.246 92.3801H858.615V97.8966H855.575V83.5214H859.763ZM859.542 86.0179H858.615V89.9037H859.602C860.609 89.9037 861.327 89.7359 861.756 89.4003C862.199 89.0648 862.421 88.5682 862.421 87.9105C862.421 87.2259 862.186 86.7427 861.716 86.4609C861.26 86.1656 860.535 86.0179 859.542 86.0179Z" fill="#F8F8F8"/>
<ellipse cx="831.5" cy="508.21" rx="75.5" ry="20.1333" fill="#5A72B0"/>
<rect x="756" y="420.63" width="151" height="87.58" fill="#5A72B0"/>
<ellipse cx="831.5" cy="421.133" rx="75.5" ry="20.1333" fill="#274697"/>
<path d="M805.045 477.91C805.045 479.185 804.582 480.205 803.656 480.97C802.743 481.722 801.441 482.098 799.75 482.098C798.233 482.098 796.877 481.809 795.683 481.232V478.393C796.367 478.689 797.072 478.964 797.797 479.219C798.535 479.46 799.266 479.581 799.991 479.581C800.743 479.581 801.273 479.44 801.582 479.158C801.904 478.863 802.065 478.494 802.065 478.051C802.065 477.689 801.937 477.38 801.682 477.125C801.441 476.87 801.112 476.635 800.696 476.42C800.28 476.192 799.803 475.951 799.266 475.696C798.931 475.534 798.569 475.347 798.179 475.132C797.79 474.904 797.414 474.628 797.052 474.306C796.703 473.971 796.414 473.568 796.186 473.098C795.958 472.629 795.844 472.065 795.844 471.407C795.844 470.119 796.28 469.119 797.152 468.407C798.025 467.682 799.213 467.32 800.716 467.32C801.468 467.32 802.179 467.407 802.85 467.582C803.535 467.756 804.246 468.005 804.984 468.327L803.998 470.702C803.34 470.434 802.75 470.226 802.226 470.078C801.703 469.931 801.166 469.857 800.615 469.857C800.038 469.857 799.595 469.991 799.287 470.26C798.978 470.528 798.824 470.877 798.824 471.306C798.824 471.817 799.052 472.219 799.508 472.514C799.964 472.81 800.642 473.172 801.542 473.602C802.28 473.951 802.904 474.313 803.414 474.689C803.937 475.065 804.34 475.508 804.622 476.018C804.904 476.528 805.045 477.159 805.045 477.91ZM815.932 481.897H807.658V467.521H815.932V470.018H810.698V473.179H815.57V475.675H810.698V479.38H815.932V481.897ZM823.111 467.521C825.071 467.521 826.514 467.877 827.44 468.588C828.38 469.3 828.849 470.38 828.849 471.83C828.849 472.488 828.722 473.065 828.467 473.561C828.225 474.045 827.896 474.461 827.48 474.81C827.078 475.145 826.641 475.42 826.172 475.635L830.4 481.897H827.017L823.595 476.38H821.964V481.897H818.924V467.521H823.111ZM822.89 470.018H821.964V473.904H822.95C823.957 473.904 824.675 473.736 825.105 473.4C825.548 473.065 825.769 472.568 825.769 471.91C825.769 471.226 825.534 470.743 825.064 470.461C824.608 470.166 823.883 470.018 822.89 470.018ZM843.489 467.521L838.597 481.897H835.275L830.403 467.521H833.483L836.181 476.078C836.235 476.226 836.309 476.501 836.403 476.904C836.51 477.293 836.617 477.709 836.725 478.152C836.832 478.581 836.906 478.944 836.946 479.239C836.986 478.944 837.054 478.581 837.147 478.152C837.255 477.709 837.362 477.293 837.47 476.904C837.577 476.501 837.651 476.226 837.691 476.078L840.409 467.521H843.489ZM853.584 481.897H845.309V467.521H853.584V470.018H848.349V473.179H853.222V475.675H848.349V479.38H853.584V481.897ZM860.763 467.521C862.723 467.521 864.166 467.877 865.092 468.588C866.031 469.3 866.501 470.38 866.501 471.83C866.501 472.488 866.374 473.065 866.119 473.561C865.877 474.045 865.548 474.461 865.132 474.81C864.729 475.145 864.293 475.42 863.823 475.635L868.051 481.897H864.669L861.246 476.38H859.615V481.897H856.575V467.521H860.763ZM860.542 470.018H859.615V473.904H860.602C861.609 473.904 862.327 473.736 862.756 473.4C863.199 473.065 863.421 472.568 863.421 471.91C863.421 471.226 863.186 470.743 862.716 470.461C862.26 470.166 861.535 470.018 860.542 470.018Z" fill="#F8F8F8"/>
<path d="M756 164.63H907V252.21H756V164.63Z" fill="#5A72B0"/>
<path d="M907 252.21C907 263.329 873.197 272.343 831.5 272.343C789.803 272.343 756 263.329 756 252.21C756 241.091 789.803 232.077 831.5 232.077C873.197 232.077 907 241.091 907 252.21Z" fill="#5A72B0"/>
<ellipse cx="831.5" cy="165.133" rx="75.5" ry="20.1333" fill="#274697"/>
<path d="M805.045 221.91C805.045 223.185 804.582 224.205 803.656 224.97C802.743 225.722 801.441 226.098 799.75 226.098C798.233 226.098 796.877 225.809 795.683 225.232V222.393C796.367 222.689 797.072 222.964 797.797 223.219C798.535 223.46 799.266 223.581 799.991 223.581C800.743 223.581 801.273 223.44 801.582 223.158C801.904 222.863 802.065 222.494 802.065 222.051C802.065 221.689 801.937 221.38 801.682 221.125C801.441 220.87 801.112 220.635 800.696 220.42C800.28 220.192 799.803 219.951 799.266 219.696C798.931 219.534 798.569 219.347 798.179 219.132C797.79 218.904 797.414 218.628 797.052 218.306C796.703 217.971 796.414 217.568 796.186 217.098C795.958 216.629 795.844 216.065 795.844 215.407C795.844 214.119 796.28 213.119 797.152 212.407C798.025 211.682 799.213 211.32 800.716 211.32C801.468 211.32 802.179 211.407 802.85 211.582C803.535 211.756 804.246 212.005 804.984 212.327L803.998 214.702C803.34 214.434 802.75 214.226 802.226 214.078C801.703 213.931 801.166 213.857 800.615 213.857C800.038 213.857 799.595 213.991 799.287 214.26C798.978 214.528 798.824 214.877 798.824 215.306C798.824 215.817 799.052 216.219 799.508 216.514C799.964 216.81 800.642 217.172 801.542 217.602C802.28 217.951 802.904 218.313 803.414 218.689C803.937 219.065 804.34 219.508 804.622 220.018C804.904 220.528 805.045 221.159 805.045 221.91ZM815.932 225.897H807.658V211.521H815.932V214.018H810.698V217.179H815.57V219.675H810.698V223.38H815.932V225.897ZM823.111 211.521C825.071 211.521 826.514 211.877 827.44 212.588C828.38 213.3 828.849 214.38 828.849 215.83C828.849 216.488 828.722 217.065 828.467 217.561C828.225 218.045 827.896 218.461 827.48 218.81C827.078 219.145 826.641 219.42 826.172 219.635L830.4 225.897H827.017L823.595 220.38H821.964V225.897H818.924V211.521H823.111ZM822.89 214.018H821.964V217.904H822.95C823.957 217.904 824.675 217.736 825.105 217.4C825.548 217.065 825.769 216.568 825.769 215.91C825.769 215.226 825.534 214.743 825.064 214.461C824.608 214.166 823.883 214.018 822.89 214.018ZM843.489 211.521L838.597 225.897H835.275L830.403 211.521H833.483L836.181 220.078C836.235 220.226 836.309 220.501 836.403 220.904C836.51 221.293 836.617 221.709 836.725 222.152C836.832 222.581 836.906 222.944 836.946 223.239C836.986 222.944 837.054 222.581 837.147 222.152C837.255 221.709 837.362 221.293 837.47 220.904C837.577 220.501 837.651 220.226 837.691 220.078L840.409 211.521H843.489ZM853.584 225.897H845.309V211.521H853.584V214.018H848.349V217.179H853.222V219.675H848.349V223.38H853.584V225.897ZM860.763 211.521C862.723 211.521 864.166 211.877 865.092 212.588C866.031 213.3 866.501 214.38 866.501 215.83C866.501 216.488 866.374 217.065 866.119 217.561C865.877 218.045 865.548 218.461 865.132 218.81C864.729 219.145 864.293 219.42 863.823 219.635L868.051 225.897H864.669L861.246 220.38H859.615V225.897H856.575V211.521H860.763ZM860.542 214.018H859.615V217.904H860.602C861.609 217.904 862.327 217.736 862.756 217.4C863.199 217.065 863.421 216.568 863.421 215.91C863.421 215.226 863.186 214.743 862.716 214.461C862.26 214.166 861.535 214.018 860.542 214.018Z" fill="#F8F8F8"/>
<path d="M756 292.63H907V380.21H756V292.63Z" fill="#5A72B0"/>
<path d="M907 380.21C907 391.329 873.197 400.343 831.5 400.343C789.803 400.343 756 391.329 756 380.21C756 369.091 789.803 360.077 831.5 360.077C873.197 360.077 907 369.091 907 380.21Z" fill="#5A72B0"/>
<ellipse cx="831.5" cy="293.133" rx="75.5" ry="20.1333" fill="#274697"/>
<path d="M805.045 349.91C805.045 351.185 804.582 352.205 803.656 352.97C802.743 353.722 801.441 354.098 799.75 354.098C798.233 354.098 796.877 353.809 795.683 353.232V350.393C796.367 350.689 797.072 350.964 797.797 351.219C798.535 351.46 799.266 351.581 799.991 351.581C800.743 351.581 801.273 351.44 801.582 351.158C801.904 350.863 802.065 350.494 802.065 350.051C802.065 349.689 801.937 349.38 801.682 349.125C801.441 348.87 801.112 348.635 800.696 348.42C800.28 348.192 799.803 347.951 799.266 347.696C798.931 347.534 798.569 347.347 798.179 347.132C797.79 346.904 797.414 346.628 797.052 346.306C796.703 345.971 796.414 345.568 796.186 345.098C795.958 344.629 795.844 344.065 795.844 343.407C795.844 342.119 796.28 341.119 797.152 340.407C798.025 339.682 799.213 339.32 800.716 339.32C801.468 339.32 802.179 339.407 802.85 339.582C803.535 339.756 804.246 340.005 804.984 340.327L803.998 342.702C803.34 342.434 802.75 342.226 802.226 342.078C801.703 341.931 801.166 341.857 800.615 341.857C800.038 341.857 799.595 341.991 799.287 342.26C798.978 342.528 798.824 342.877 798.824 343.306C798.824 343.817 799.052 344.219 799.508 344.514C799.964 344.81 800.642 345.172 801.542 345.602C802.28 345.951 802.904 346.313 803.414 346.689C803.937 347.065 804.34 347.508 804.622 348.018C804.904 348.528 805.045 349.159 805.045 349.91ZM815.932 353.897H807.658V339.521H815.932V342.018H810.698V345.179H815.57V347.675H810.698V351.38H815.932V353.897ZM823.111 339.521C825.071 339.521 826.514 339.877 827.44 340.588C828.38 341.3 828.849 342.38 828.849 343.83C828.849 344.488 828.722 345.065 828.467 345.561C828.225 346.045 827.896 346.461 827.48 346.81C827.078 347.145 826.641 347.42 826.172 347.635L830.4 353.897H827.017L823.595 348.38H821.964V353.897H818.924V339.521H823.111ZM822.89 342.018H821.964V345.904H822.95C823.957 345.904 824.675 345.736 825.105 345.4C825.548 345.065 825.769 344.568 825.769 343.91C825.769 343.226 825.534 342.743 825.064 342.461C824.608 342.166 823.883 342.018 822.89 342.018ZM843.489 339.521L838.597 353.897H835.275L830.403 339.521H833.483L836.181 348.078C836.235 348.226 836.309 348.501 836.403 348.904C836.51 349.293 836.617 349.709 836.725 350.152C836.832 350.581 836.906 350.944 836.946 351.239C836.986 350.944 837.054 350.581 837.147 350.152C837.255 349.709 837.362 349.293 837.47 348.904C837.577 348.501 837.651 348.226 837.691 348.078L840.409 339.521H843.489ZM853.584 353.897H845.309V339.521H853.584V342.018H848.349V345.179H853.222V347.675H848.349V351.38H853.584V353.897ZM860.763 339.521C862.723 339.521 864.166 339.877 865.092 340.588C866.031 341.3 866.501 342.38 866.501 343.83C866.501 344.488 866.374 345.065 866.119 345.561C865.877 346.045 865.548 346.461 865.132 346.81C864.729 347.145 864.293 347.42 863.823 347.635L868.051 353.897H864.669L861.246 348.38H859.615V353.897H856.575V339.521H860.763ZM860.542 342.018H859.615V345.904H860.602C861.609 345.904 862.327 345.736 862.756 345.4C863.199 345.065 863.421 344.568 863.421 343.91C863.421 343.226 863.186 342.743 862.716 342.461C862.26 342.166 861.535 342.018 860.542 342.018Z" fill="#F8F8F8"/>
<rect x="321.5" y="165.5" width="213" height="275" fill="#92A6DC" stroke="#274697"/>
<path d="M535.5 439.128V165.133L578.5 89.8828V364.367L535.5 439.128Z" fill="#92A6DC" stroke="#274697"/>
<path d="M322.013 164.5L380.247 88.5H578.138L534.71 164.5H322.013Z" fill="#92A6DC" stroke="#274697"/>
<path d="M383.182 282V253.44H389.222V277H400.822V282H383.182ZM425.159 271.04C425.159 274.667 424.199 277.467 422.279 279.44C420.386 281.413 417.799 282.4 414.519 282.4C412.493 282.4 410.679 281.96 409.079 281.08C407.506 280.2 406.266 278.92 405.359 277.24C404.453 275.533 403.999 273.467 403.999 271.04C403.999 267.413 404.946 264.627 406.839 262.68C408.733 260.733 411.333 259.76 414.639 259.76C416.693 259.76 418.506 260.2 420.079 261.08C421.653 261.96 422.893 263.24 423.799 264.92C424.706 266.573 425.159 268.613 425.159 271.04ZM410.079 271.04C410.079 273.2 410.426 274.84 411.119 275.96C411.839 277.053 412.999 277.6 414.599 277.6C416.173 277.6 417.306 277.053 417.999 275.96C418.719 274.84 419.079 273.2 419.079 271.04C419.079 268.88 418.719 267.267 417.999 266.2C417.306 265.107 416.159 264.56 414.559 264.56C412.986 264.56 411.839 265.107 411.119 266.2C410.426 267.267 410.079 268.88 410.079 271.04ZM439.045 259.72C441.978 259.72 444.218 260.36 445.765 261.64C447.338 262.893 448.125 264.827 448.125 267.44V282H443.965L442.805 279.04H442.645C441.712 280.213 440.725 281.067 439.685 281.6C438.645 282.133 437.218 282.4 435.405 282.4C433.458 282.4 431.845 281.84 430.565 280.72C429.285 279.573 428.645 277.827 428.645 275.48C428.645 273.16 429.458 271.453 431.085 270.36C432.712 269.24 435.152 268.627 438.405 268.52L442.205 268.4V267.44C442.205 266.293 441.898 265.453 441.285 264.92C440.698 264.387 439.872 264.12 438.805 264.12C437.738 264.12 436.698 264.28 435.685 264.6C434.672 264.893 433.658 265.267 432.645 265.72L430.685 261.68C431.858 261.067 433.152 260.587 434.565 260.24C436.005 259.893 437.498 259.72 439.045 259.72ZM439.885 271.96C437.965 272.013 436.632 272.36 435.885 273C435.138 273.64 434.765 274.48 434.765 275.52C434.765 276.427 435.032 277.08 435.565 277.48C436.098 277.853 436.792 278.04 437.645 278.04C438.925 278.04 440.005 277.667 440.885 276.92C441.765 276.147 442.205 275.067 442.205 273.68V271.88L439.885 271.96ZM461.145 282.4C458.719 282.4 456.732 281.453 455.185 279.56C453.665 277.64 452.905 274.827 452.905 271.12C452.905 267.387 453.679 264.56 455.225 262.64C456.772 260.72 458.799 259.76 461.305 259.76C462.879 259.76 464.172 260.067 465.185 260.68C466.199 261.293 466.999 262.053 467.585 262.96H467.785C467.705 262.533 467.612 261.92 467.505 261.12C467.399 260.293 467.345 259.453 467.345 258.6V251.6H473.305V282H468.745L467.585 279.16H467.345C466.759 280.067 465.972 280.84 464.985 281.48C463.999 282.093 462.719 282.4 461.145 282.4ZM463.225 277.64C464.879 277.64 466.039 277.16 466.705 276.2C467.372 275.213 467.719 273.747 467.745 271.8V271.16C467.745 269.027 467.412 267.4 466.745 266.28C466.105 265.16 464.905 264.6 463.145 264.6C461.839 264.6 460.812 265.173 460.065 266.32C459.319 267.44 458.945 269.067 458.945 271.2C458.945 273.333 459.319 274.947 460.065 276.04C460.812 277.107 461.865 277.64 463.225 277.64ZM352.492 307.44C356.305 307.44 359.185 307.973 361.132 309.04C363.078 310.107 364.052 311.987 364.052 314.68C364.052 316.307 363.665 317.68 362.892 318.8C362.145 319.92 361.065 320.6 359.652 320.84V321.04C360.612 321.227 361.478 321.56 362.252 322.04C363.025 322.52 363.638 323.213 364.092 324.12C364.545 325.027 364.772 326.227 364.772 327.72C364.772 330.307 363.838 332.333 361.972 333.8C360.105 335.267 357.545 336 354.292 336H343.612V307.44H352.492ZM353.172 318.76C354.932 318.76 356.145 318.48 356.812 317.92C357.505 317.36 357.852 316.547 357.852 315.48C357.852 314.387 357.452 313.6 356.652 313.12C355.852 312.64 354.585 312.4 352.852 312.4H349.652V318.76H353.172ZM349.652 323.56V331H353.612C355.425 331 356.692 330.653 357.412 329.96C358.132 329.24 358.492 328.293 358.492 327.12C358.492 326.053 358.118 325.2 357.372 324.56C356.652 323.893 355.332 323.56 353.412 323.56H349.652ZM378.967 313.72C381.9 313.72 384.14 314.36 385.687 315.64C387.26 316.893 388.047 318.827 388.047 321.44V336H383.887L382.727 333.04H382.567C381.633 334.213 380.647 335.067 379.607 335.6C378.567 336.133 377.14 336.4 375.327 336.4C373.38 336.4 371.767 335.84 370.487 334.72C369.207 333.573 368.567 331.827 368.567 329.48C368.567 327.16 369.38 325.453 371.007 324.36C372.633 323.24 375.073 322.627 378.327 322.52L382.127 322.4V321.44C382.127 320.293 381.82 319.453 381.207 318.92C380.62 318.387 379.793 318.12 378.727 318.12C377.66 318.12 376.62 318.28 375.607 318.6C374.593 318.893 373.58 319.267 372.567 319.72L370.607 315.68C371.78 315.067 373.073 314.587 374.487 314.24C375.927 313.893 377.42 313.72 378.967 313.72ZM379.807 325.96C377.887 326.013 376.553 326.36 375.807 327C375.06 327.64 374.687 328.48 374.687 329.52C374.687 330.427 374.953 331.08 375.487 331.48C376.02 331.853 376.713 332.04 377.567 332.04C378.847 332.04 379.927 331.667 380.807 330.92C381.687 330.147 382.127 329.067 382.127 327.68V325.88L379.807 325.96ZM400.107 336H394.147V305.6H400.107V336ZM415.295 313.72C418.228 313.72 420.468 314.36 422.015 315.64C423.588 316.893 424.375 318.827 424.375 321.44V336H420.215L419.055 333.04H418.895C417.962 334.213 416.975 335.067 415.935 335.6C414.895 336.133 413.468 336.4 411.655 336.4C409.708 336.4 408.095 335.84 406.815 334.72C405.535 333.573 404.895 331.827 404.895 329.48C404.895 327.16 405.708 325.453 407.335 324.36C408.962 323.24 411.402 322.627 414.655 322.52L418.455 322.4V321.44C418.455 320.293 418.148 319.453 417.535 318.92C416.948 318.387 416.122 318.12 415.055 318.12C413.988 318.12 412.948 318.28 411.935 318.6C410.922 318.893 409.908 319.267 408.895 319.72L406.935 315.68C408.108 315.067 409.402 314.587 410.815 314.24C412.255 313.893 413.748 313.72 415.295 313.72ZM416.135 325.96C414.215 326.013 412.882 326.36 412.135 327C411.388 327.64 411.015 328.48 411.015 329.52C411.015 330.427 411.282 331.08 411.815 331.48C412.348 331.853 413.042 332.04 413.895 332.04C415.175 332.04 416.255 331.667 417.135 330.92C418.015 330.147 418.455 329.067 418.455 327.68V325.88L416.135 325.96ZM442.875 313.76C445.222 313.76 447.102 314.4 448.515 315.68C449.929 316.933 450.635 318.96 450.635 321.76V336H444.675V323.24C444.675 321.667 444.395 320.493 443.835 319.72C443.275 318.92 442.382 318.52 441.155 318.52C439.342 318.52 438.102 319.147 437.435 320.4C436.769 321.627 436.435 323.4 436.435 325.72V336H430.475V314.16H435.035L435.835 316.96H436.155C436.849 315.84 437.795 315.027 438.995 314.52C440.222 314.013 441.515 313.76 442.875 313.76ZM465.645 336.4C462.391 336.4 459.871 335.507 458.085 333.72C456.325 331.907 455.445 329.067 455.445 325.2C455.445 322.533 455.898 320.36 456.805 318.68C457.711 317 458.965 315.76 460.565 314.96C462.191 314.16 464.058 313.76 466.165 313.76C467.658 313.76 468.951 313.907 470.045 314.2C471.165 314.493 472.138 314.84 472.965 315.24L471.205 319.84C470.271 319.467 469.391 319.16 468.565 318.92C467.765 318.68 466.965 318.56 466.165 318.56C463.071 318.56 461.525 320.76 461.525 325.16C461.525 327.347 461.925 328.96 462.725 330C463.551 331.04 464.698 331.56 466.165 331.56C467.418 331.56 468.525 331.4 469.485 331.08C470.445 330.733 471.378 330.267 472.285 329.68V334.76C471.378 335.347 470.418 335.76 469.405 336C468.418 336.267 467.165 336.4 465.645 336.4ZM486.311 313.76C489.325 313.76 491.711 314.627 493.471 316.36C495.231 318.067 496.111 320.507 496.111 323.68V326.56H482.031C482.085 328.24 482.578 329.56 483.511 330.52C484.471 331.48 485.791 331.96 487.471 331.96C488.885 331.96 490.165 331.827 491.311 331.56C492.458 331.267 493.645 330.827 494.871 330.24V334.84C493.805 335.373 492.671 335.76 491.471 336C490.298 336.267 488.871 336.4 487.191 336.4C485.005 336.4 483.071 336 481.391 335.2C479.711 334.373 478.391 333.133 477.431 331.48C476.471 329.827 475.991 327.747 475.991 325.24C475.991 322.68 476.418 320.56 477.271 318.88C478.151 317.173 479.365 315.893 480.911 315.04C482.458 314.187 484.258 313.76 486.311 313.76ZM486.351 318C485.205 318 484.245 318.373 483.471 319.12C482.725 319.867 482.285 321.027 482.151 322.6H490.511C490.485 321.267 490.138 320.173 489.471 319.32C488.805 318.44 487.765 318 486.351 318ZM513.144 313.76C513.438 313.76 513.784 313.773 514.184 313.8C514.584 313.827 514.904 313.867 515.144 313.92L514.704 319.52C514.518 319.467 514.238 319.427 513.864 319.4C513.518 319.347 513.211 319.32 512.944 319.32C511.931 319.32 510.958 319.507 510.024 319.88C509.091 320.227 508.331 320.8 507.744 321.6C507.184 322.4 506.904 323.493 506.904 324.88V336H500.944V314.16H505.464L506.344 317.84H506.624C507.264 316.72 508.144 315.76 509.264 314.96C510.384 314.16 511.678 313.76 513.144 313.76Z" fill="#F8F8F8"/>
<path d="M129.313 277.792C122.963 277.792 113.067 279.591 105.5 283.083C97.933 279.538 88.0376 277.792 81.6876 277.792C70.2047 277.792 47.2917 283.507 47.2917 294.99V309.542H163.708V294.99C163.708 283.507 140.795 277.792 129.313 277.792ZM108.146 301.604H55.2292V294.99C55.2292 292.132 68.7759 285.729 81.6876 285.729C94.5992 285.729 108.146 292.132 108.146 294.99V301.604ZM155.771 301.604H116.083V294.99C116.083 292.555 115.025 290.439 113.332 288.534C117.988 286.946 123.703 285.729 129.313 285.729C142.224 285.729 155.771 292.132 155.771 294.99V301.604ZM81.6876 272.5C91.9005 272.5 100.208 264.192 100.208 253.979C100.208 243.766 91.9005 235.458 81.6876 235.458C71.4747 235.458 63.1667 243.766 63.1667 253.979C63.1667 264.192 71.4747 272.5 81.6876 272.5ZM81.6876 243.396C87.5084 243.396 92.2709 248.158 92.2709 253.979C92.2709 259.8 87.5084 264.563 81.6876 264.563C75.8667 264.563 71.1042 259.8 71.1042 253.979C71.1042 248.158 75.8667 243.396 81.6876 243.396ZM129.313 272.5C139.525 272.5 147.833 264.192 147.833 253.979C147.833 243.766 139.525 235.458 129.313 235.458C119.1 235.458 110.792 243.766 110.792 253.979C110.792 264.192 119.1 272.5 129.313 272.5ZM129.313 243.396C135.133 243.396 139.896 248.158 139.896 253.979C139.896 259.8 135.133 264.563 129.313 264.563C123.492 264.563 118.729 259.8 118.729 253.979C118.729 248.158 123.492 243.396 129.313 243.396Z" fill="#2F2D44"/>
</svg>
