<svg width="967" height="374" viewBox="0 0 967 374" fill="none" xmlns="http://www.w3.org/2000/svg">
<rect width="967" height="374" fill="#F8F8F8"/>
<ellipse cx="89.4999" cy="263.614" rx="75.7846" ry="20.2092" fill="#5A72B0"/>
<rect x="13.7153" y="175.704" width="151.569" height="87.9101" fill="#5A72B0"/>
<ellipse cx="89.4999" cy="176.209" rx="75.7846" ry="20.2092" fill="#274697"/>
<path d="M62.9451 234.121C62.9451 235.401 62.4803 236.425 61.5506 237.193C60.6345 237.947 59.3276 238.325 57.6301 238.325C56.1076 238.325 54.7469 238.035 53.5478 237.456V234.606C54.2349 234.902 54.9422 235.179 55.6698 235.435C56.4108 235.677 57.145 235.798 57.8726 235.798C58.627 235.798 59.1592 235.657 59.4691 235.374C59.7924 235.078 59.9541 234.707 59.9541 234.262C59.9541 233.899 59.8261 233.589 59.5701 233.333C59.3276 233.077 58.9975 232.841 58.5799 232.626C58.1622 232.396 57.6839 232.154 57.145 231.898C56.8082 231.736 56.4444 231.548 56.0537 231.332C55.663 231.103 55.2858 230.827 54.922 230.504C54.5717 230.167 54.2821 229.763 54.053 229.291C53.824 228.819 53.7095 228.254 53.7095 227.593C53.7095 226.3 54.1473 225.296 55.0231 224.582C55.8988 223.855 57.0911 223.491 58.6001 223.491C59.3546 223.491 60.0686 223.579 60.7423 223.754C61.4294 223.929 62.1434 224.178 62.8845 224.501L61.8942 226.886C61.234 226.617 60.6412 226.408 60.1158 226.26C59.5903 226.111 59.0514 226.037 58.499 226.037C57.9197 226.037 57.4751 226.172 57.1652 226.442C56.8554 226.711 56.7004 227.061 56.7004 227.492C56.7004 228.004 56.9295 228.409 57.3875 228.705C57.8456 229.001 58.526 229.365 59.4287 229.796C60.1697 230.147 60.7962 230.51 61.3081 230.888C61.8336 231.265 62.2378 231.709 62.5207 232.221C62.8036 232.733 62.9451 233.367 62.9451 234.121ZM73.8738 238.122H65.5679V223.693H73.8738V226.199H68.6194V229.372H73.5101V231.878H68.6194V235.596H73.8738V238.122ZM81.0799 223.693C83.0469 223.693 84.4952 224.05 85.4248 224.764C86.3679 225.478 86.8395 226.563 86.8395 228.018C86.8395 228.678 86.7115 229.257 86.4555 229.756C86.213 230.241 85.8829 230.658 85.4653 231.009C85.0611 231.346 84.6232 231.622 84.1517 231.837L88.3956 238.122H85.0004L81.5649 232.585H79.9279V238.122H76.8763V223.693H81.0799ZM80.8576 226.199H79.9279V230.099H80.9182C81.9286 230.099 82.6494 229.931 83.0806 229.594C83.5252 229.257 83.7475 228.759 83.7475 228.099C83.7475 227.412 83.5117 226.927 83.0402 226.644C82.5821 226.347 81.8545 226.199 80.8576 226.199ZM101.535 223.693L96.6239 238.122H93.2894L88.3988 223.693H91.4908L94.1988 232.282C94.2527 232.43 94.3268 232.706 94.4211 233.111C94.5289 233.501 94.6367 233.919 94.7445 234.364C94.8522 234.795 94.9263 235.158 94.9668 235.455C95.0072 235.158 95.0745 234.795 95.1688 234.364C95.2766 233.919 95.3844 233.501 95.4922 233.111C95.6 232.706 95.6741 232.43 95.7145 232.282L98.4427 223.693H101.535ZM111.667 238.122H103.361V223.693H111.667V226.199H106.413V229.372H111.304V231.878H106.413V235.596H111.667V238.122ZM118.873 223.693C120.841 223.693 122.289 224.05 123.218 224.764C124.162 225.478 124.633 226.563 124.633 228.018C124.633 228.678 124.505 229.257 124.249 229.756C124.007 230.241 123.677 230.658 123.259 231.009C122.855 231.346 122.417 231.622 121.945 231.837L126.189 238.122H122.794L119.358 232.585H117.722V238.122H114.67V223.693H118.873ZM118.651 226.199H117.722V230.099H118.712C119.722 230.099 120.443 229.931 120.874 229.594C121.319 229.257 121.541 228.759 121.541 228.099C121.541 227.412 121.305 226.927 120.834 226.644C120.376 226.347 119.648 226.199 118.651 226.199Z" fill="#F8F8F8"/>
<ellipse cx="408.284" cy="280.1" rx="105" ry="28" fill="#5A72B0"/>
<rect x="303.284" y="158.3" width="210" height="121.8" fill="#5A72B0"/>
<ellipse cx="408.284" cy="159" rx="105" ry="28" fill="#274697"/>
<path d="M371.492 238.756C371.492 240.529 370.848 241.948 369.56 243.012C368.291 244.057 366.48 244.58 364.128 244.58C362.019 244.58 360.134 244.179 358.472 243.376V239.428C359.424 239.839 360.404 240.221 361.412 240.576C362.439 240.912 363.456 241.08 364.464 241.08C365.51 241.08 366.247 240.884 366.676 240.492C367.124 240.081 367.348 239.568 367.348 238.952C367.348 238.448 367.171 238.019 366.816 237.664C366.48 237.309 366.023 236.983 365.444 236.684C364.866 236.367 364.203 236.031 363.456 235.676C362.99 235.452 362.486 235.191 361.944 234.892C361.403 234.575 360.88 234.192 360.376 233.744C359.891 233.277 359.49 232.717 359.172 232.064C358.855 231.411 358.696 230.627 358.696 229.712C358.696 227.92 359.303 226.529 360.516 225.54C361.73 224.532 363.382 224.028 365.472 224.028C366.518 224.028 367.507 224.149 368.44 224.392C369.392 224.635 370.382 224.98 371.408 225.428L370.036 228.732C369.122 228.359 368.3 228.069 367.572 227.864C366.844 227.659 366.098 227.556 365.332 227.556C364.53 227.556 363.914 227.743 363.484 228.116C363.055 228.489 362.84 228.975 362.84 229.572C362.84 230.281 363.158 230.841 363.792 231.252C364.427 231.663 365.37 232.167 366.62 232.764C367.647 233.249 368.515 233.753 369.224 234.276C369.952 234.799 370.512 235.415 370.904 236.124C371.296 236.833 371.492 237.711 371.492 238.756ZM386.634 244.3H375.126V224.308H386.634V227.78H379.354V232.176H386.13V235.648H379.354V240.8H386.634V244.3ZM396.618 224.308C399.344 224.308 401.35 224.803 402.638 225.792C403.945 226.781 404.598 228.284 404.598 230.3C404.598 231.215 404.421 232.017 404.066 232.708C403.73 233.38 403.273 233.959 402.694 234.444C402.134 234.911 401.528 235.293 400.874 235.592L406.754 244.3H402.05L397.29 236.628H395.022V244.3H390.794V224.308H396.618ZM396.31 227.78H395.022V233.184H396.394C397.794 233.184 398.793 232.951 399.39 232.484C400.006 232.017 400.314 231.327 400.314 230.412C400.314 229.46 399.988 228.788 399.334 228.396C398.7 227.985 397.692 227.78 396.31 227.78ZM424.959 224.308L418.155 244.3H413.535L406.759 224.308H411.043L414.795 236.208C414.869 236.413 414.972 236.796 415.103 237.356C415.252 237.897 415.401 238.476 415.551 239.092C415.7 239.689 415.803 240.193 415.859 240.604C415.915 240.193 416.008 239.689 416.139 239.092C416.288 238.476 416.437 237.897 416.587 237.356C416.736 236.796 416.839 236.413 416.895 236.208L420.675 224.308H424.959ZM438.997 244.3H427.489V224.308H438.997V227.78H431.717V232.176H438.493V235.648H431.717V240.8H438.997V244.3ZM448.981 224.308C451.707 224.308 453.713 224.803 455.001 225.792C456.308 226.781 456.961 228.284 456.961 230.3C456.961 231.215 456.784 232.017 456.429 232.708C456.093 233.38 455.636 233.959 455.057 234.444C454.497 234.911 453.891 235.293 453.237 235.592L459.117 244.3H454.413L449.653 236.628H447.385V244.3H443.157V224.308H448.981ZM448.673 227.78H447.385V233.184H448.757C450.157 233.184 451.156 232.951 451.753 232.484C452.369 232.017 452.677 231.327 452.677 230.412C452.677 229.46 452.351 228.788 451.697 228.396C451.063 227.985 450.055 227.78 448.673 227.78Z" fill="#F8F8F8"/>
<ellipse cx="801.284" cy="306" rx="150" ry="40" fill="#5A72B0"/>
<rect x="651.284" y="132" width="300" height="174" fill="#5A72B0"/>
<ellipse cx="801.284" cy="133" rx="150" ry="40" fill="#274697"/>
<path d="M748.724 247.08C748.724 249.613 747.804 251.64 745.964 253.16C744.151 254.653 741.564 255.4 738.204 255.4C735.191 255.4 732.498 254.827 730.124 253.68V248.04C731.484 248.627 732.884 249.173 734.324 249.68C735.791 250.16 737.244 250.4 738.684 250.4C740.178 250.4 741.231 250.12 741.844 249.56C742.484 248.973 742.804 248.24 742.804 247.36C742.804 246.64 742.551 246.027 742.044 245.52C741.564 245.013 740.911 244.547 740.084 244.12C739.258 243.667 738.311 243.187 737.244 242.68C736.578 242.36 735.858 241.987 735.084 241.56C734.311 241.107 733.564 240.56 732.844 239.92C732.151 239.253 731.578 238.453 731.124 237.52C730.671 236.587 730.444 235.467 730.444 234.16C730.444 231.6 731.311 229.613 733.044 228.2C734.778 226.76 737.138 226.04 740.124 226.04C741.618 226.04 743.031 226.213 744.364 226.56C745.724 226.907 747.138 227.4 748.604 228.04L746.644 232.76C745.338 232.227 744.164 231.813 743.124 231.52C742.084 231.227 741.018 231.08 739.924 231.08C738.778 231.08 737.898 231.347 737.284 231.88C736.671 232.413 736.364 233.107 736.364 233.96C736.364 234.973 736.818 235.773 737.724 236.36C738.631 236.947 739.978 237.667 741.764 238.52C743.231 239.213 744.471 239.933 745.484 240.68C746.524 241.427 747.324 242.307 747.884 243.32C748.444 244.333 748.724 245.587 748.724 247.08ZM770.356 255H753.916V226.44H770.356V231.4H759.956V237.68H769.636V242.64H759.956V250H770.356V255ZM784.618 226.44C788.512 226.44 791.378 227.147 793.218 228.56C795.085 229.973 796.018 232.12 796.018 235C796.018 236.307 795.765 237.453 795.258 238.44C794.778 239.4 794.125 240.227 793.298 240.92C792.498 241.587 791.632 242.133 790.698 242.56L799.098 255H792.378L785.578 244.04H782.338V255H776.298V226.44H784.618ZM784.178 231.4H782.338V239.12H784.298C786.298 239.12 787.725 238.787 788.578 238.12C789.458 237.453 789.898 236.467 789.898 235.16C789.898 233.8 789.432 232.84 788.498 232.28C787.592 231.693 786.152 231.4 784.178 231.4ZM825.105 226.44L815.385 255H808.785L799.105 226.44H805.225L810.585 243.44C810.691 243.733 810.838 244.28 811.025 245.08C811.238 245.853 811.451 246.68 811.665 247.56C811.878 248.413 812.025 249.133 812.105 249.72C812.185 249.133 812.318 248.413 812.505 247.56C812.718 246.68 812.931 245.853 813.145 245.08C813.358 244.28 813.505 243.733 813.585 243.44L818.985 226.44H825.105ZM845.16 255H828.72V226.44H845.16V231.4H834.76V237.68H844.44V242.64H834.76V250H845.16V255ZM859.423 226.44C863.317 226.44 866.183 227.147 868.023 228.56C869.89 229.973 870.823 232.12 870.823 235C870.823 236.307 870.57 237.453 870.063 238.44C869.583 239.4 868.93 240.227 868.103 240.92C867.303 241.587 866.437 242.133 865.503 242.56L873.903 255H867.183L860.383 244.04H857.143V255H851.103V226.44H859.423ZM858.983 231.4H857.143V239.12H859.103C861.103 239.12 862.53 238.787 863.383 238.12C864.263 237.453 864.703 236.467 864.703 235.16C864.703 233.8 864.237 232.84 863.303 232.28C862.397 231.693 860.957 231.4 858.983 231.4Z" fill="#F8F8F8"/>
<path d="M247.317 216.75H208.284V223.25H247.317V233L260.284 220L247.317 207V216.75Z" fill="#2F2D44"/>
<path d="M595.317 216.75H556.284V223.25H595.317V233L608.284 220L595.317 207V216.75Z" fill="#2F2D44"/>
<path d="M370.44 56.08C370.44 58.6133 369.52 60.64 367.68 62.16C365.867 63.6533 363.28 64.4 359.92 64.4C356.907 64.4 354.213 63.8267 351.84 62.68V57.04C353.2 57.6267 354.6 58.1733 356.04 58.68C357.507 59.16 358.96 59.4 360.4 59.4C361.893 59.4 362.947 59.12 363.56 58.56C364.2 57.9733 364.52 57.24 364.52 56.36C364.52 55.64 364.267 55.0267 363.76 54.52C363.28 54.0133 362.627 53.5467 361.8 53.12C360.973 52.6667 360.027 52.1867 358.96 51.68C358.293 51.36 357.573 50.9867 356.8 50.56C356.027 50.1067 355.28 49.56 354.56 48.92C353.867 48.2533 353.293 47.4533 352.84 46.52C352.387 45.5867 352.16 44.4667 352.16 43.16C352.16 40.6 353.027 38.6133 354.76 37.2C356.493 35.76 358.853 35.04 361.84 35.04C363.333 35.04 364.747 35.2133 366.08 35.56C367.44 35.9067 368.853 36.4 370.32 37.04L368.36 41.76C367.053 41.2267 365.88 40.8133 364.84 40.52C363.8 40.2267 362.733 40.08 361.64 40.08C360.493 40.08 359.613 40.3467 359 40.88C358.387 41.4133 358.08 42.1067 358.08 42.96C358.08 43.9733 358.533 44.7733 359.44 45.36C360.347 45.9467 361.693 46.6667 363.48 47.52C364.947 48.2133 366.187 48.9333 367.2 49.68C368.24 50.4267 369.04 51.3067 369.6 52.32C370.16 53.3333 370.44 54.5867 370.44 56.08ZM384.031 64.4C380.778 64.4 378.258 63.5067 376.471 61.72C374.711 59.9067 373.831 57.0667 373.831 53.2C373.831 50.5333 374.285 48.36 375.191 46.68C376.098 45 377.351 43.76 378.951 42.96C380.578 42.16 382.445 41.76 384.551 41.76C386.045 41.76 387.338 41.9067 388.431 42.2C389.551 42.4933 390.525 42.84 391.351 43.24L389.591 47.84C388.658 47.4667 387.778 47.16 386.951 46.92C386.151 46.68 385.351 46.56 384.551 46.56C381.458 46.56 379.911 48.76 379.911 53.16C379.911 55.3467 380.311 56.96 381.111 58C381.938 59.04 383.085 59.56 384.551 59.56C385.805 59.56 386.911 59.4 387.871 59.08C388.831 58.7333 389.765 58.2667 390.671 57.68V62.76C389.765 63.3467 388.805 63.76 387.791 64C386.805 64.2667 385.551 64.4 384.031 64.4ZM404.658 41.72C407.591 41.72 409.831 42.36 411.378 43.64C412.951 44.8933 413.738 46.8267 413.738 49.44V64H409.578L408.418 61.04H408.258C407.325 62.2133 406.338 63.0667 405.298 63.6C404.258 64.1333 402.831 64.4 401.018 64.4C399.071 64.4 397.458 63.84 396.178 62.72C394.898 61.5733 394.258 59.8267 394.258 57.48C394.258 55.16 395.071 53.4533 396.698 52.36C398.325 51.24 400.765 50.6267 404.018 50.52L407.818 50.4V49.44C407.818 48.2933 407.511 47.4533 406.898 46.92C406.311 46.3867 405.485 46.12 404.418 46.12C403.351 46.12 402.311 46.28 401.298 46.6C400.285 46.8933 399.271 47.2667 398.258 47.72L396.298 43.68C397.471 43.0667 398.765 42.5867 400.178 42.24C401.618 41.8933 403.111 41.72 404.658 41.72ZM405.498 53.96C403.578 54.0133 402.245 54.36 401.498 55C400.751 55.64 400.378 56.48 400.378 57.52C400.378 58.4267 400.645 59.08 401.178 59.48C401.711 59.8533 402.405 60.04 403.258 60.04C404.538 60.04 405.618 59.6667 406.498 58.92C407.378 58.1467 407.818 57.0667 407.818 55.68V53.88L405.498 53.96ZM425.799 64H419.839V33.6H425.799V64ZM441.026 41.76C444.04 41.76 446.426 42.6267 448.186 44.36C449.946 46.0667 450.826 48.5067 450.826 51.68V54.56H436.746C436.8 56.24 437.293 57.56 438.226 58.52C439.186 59.48 440.506 59.96 442.186 59.96C443.6 59.96 444.88 59.8267 446.026 59.56C447.173 59.2667 448.36 58.8267 449.586 58.24V62.84C448.52 63.3733 447.386 63.76 446.186 64C445.013 64.2667 443.586 64.4 441.906 64.4C439.72 64.4 437.786 64 436.106 63.2C434.426 62.3733 433.106 61.1333 432.146 59.48C431.186 57.8267 430.706 55.7467 430.706 53.24C430.706 50.68 431.133 48.56 431.986 46.88C432.866 45.1733 434.08 43.8933 435.626 43.04C437.173 42.1867 438.973 41.76 441.026 41.76ZM441.066 46C439.92 46 438.96 46.3733 438.186 47.12C437.44 47.8667 437 49.0267 436.866 50.6H445.226C445.2 49.2667 444.853 48.1733 444.186 47.32C443.52 46.44 442.48 46 441.066 46ZM453.739 55.72V50.84H464.219V55.72H453.739ZM492.27 53.92C492.27 55.8933 491.83 57.68 490.95 59.28C490.096 60.8533 488.79 62.1067 487.03 63.04C485.296 63.9467 483.096 64.4 480.43 64.4C476.643 64.4 473.763 63.44 471.79 61.52C469.816 59.5733 468.83 57.0133 468.83 53.84V35.44H474.87V52.92C474.87 55.2667 475.35 56.92 476.31 57.88C477.27 58.84 478.696 59.32 480.59 59.32C482.563 59.32 483.99 58.8 484.87 57.76C485.776 56.72 486.23 55.0933 486.23 52.88V35.44H492.27V53.92ZM510.944 41.76C513.397 41.76 515.384 42.72 516.904 44.64C518.424 46.5333 519.184 49.3333 519.184 53.04C519.184 56.7467 518.397 59.5733 516.824 61.52C515.251 63.44 513.237 64.4 510.784 64.4C509.211 64.4 507.957 64.12 507.024 63.56C506.091 62.9733 505.331 62.32 504.744 61.6H504.424C504.637 62.72 504.744 63.7867 504.744 64.8V73.6H498.784V42.16H503.624L504.464 45H504.744C505.331 44.12 506.117 43.36 507.104 42.72C508.091 42.08 509.371 41.76 510.944 41.76ZM509.024 46.52C507.477 46.52 506.384 47 505.744 47.96C505.131 48.92 504.797 50.3867 504.744 52.36V53C504.744 55.1067 505.051 56.7333 505.664 57.88C506.304 59 507.451 59.56 509.104 59.56C510.464 59.56 511.464 59 512.104 57.88C512.771 56.7333 513.104 55.0933 513.104 52.96C513.104 48.6667 511.744 46.52 509.024 46.52Z" fill="#2F2D44"/>
</svg>
