<svg width="967" height="374" viewBox="0 0 967 374" fill="none" xmlns="http://www.w3.org/2000/svg">
<rect width="967" height="374" fill="#F8F8F8"/>
<ellipse cx="88.5" cy="276.21" rx="75.5" ry="20.1333" fill="#5A72B0"/>
<rect x="13" y="188.63" width="151" height="87.58" fill="#5A72B0"/>
<ellipse cx="88.5" cy="189.133" rx="75.5" ry="20.1333" fill="#274697"/>
<path d="M62.0447 245.91C62.0447 247.185 61.5817 248.205 60.6555 248.971C59.7428 249.722 58.4409 250.098 56.7497 250.098C55.2329 250.098 53.8773 249.809 52.6827 249.232V246.393C53.3673 246.689 54.0719 246.964 54.7967 247.219C55.5349 247.461 56.2665 247.581 56.9913 247.581C57.7429 247.581 58.2731 247.44 58.5818 247.159C58.9039 246.863 59.065 246.494 59.065 246.051C59.065 245.689 58.9375 245.38 58.6825 245.125C58.4409 244.87 58.112 244.635 57.6959 244.42C57.2798 244.192 56.8033 243.951 56.2665 243.696C55.9309 243.535 55.5685 243.347 55.1793 243.132C54.79 242.904 54.4142 242.629 54.0518 242.306C53.7028 241.971 53.4142 241.568 53.1861 241.098C52.9579 240.629 52.8438 240.065 52.8438 239.407C52.8438 238.119 53.28 237.119 54.1525 236.407C55.0249 235.683 56.2128 235.32 57.7161 235.32C58.4677 235.32 59.1791 235.407 59.8502 235.582C60.5347 235.756 61.2461 236.005 61.9843 236.327L60.9978 238.703C60.3401 238.434 59.7495 238.226 59.2261 238.078C58.7026 237.931 58.1657 237.857 57.6154 237.857C57.0382 237.857 56.5953 237.991 56.2866 238.26C55.9779 238.528 55.8235 238.877 55.8235 239.307C55.8235 239.817 56.0517 240.219 56.5081 240.515C56.9644 240.81 57.6422 241.172 58.5415 241.602C59.2797 241.951 59.9039 242.313 60.4139 242.689C60.9374 243.065 61.3401 243.508 61.6219 244.018C61.9038 244.528 62.0447 245.159 62.0447 245.91ZM72.9325 249.897H64.6577V235.521H72.9325V238.018H67.6978V241.179H72.5701V243.675H67.6978V247.38H72.9325V249.897ZM80.1114 235.521C82.071 235.521 83.5139 235.877 84.4401 236.589C85.3796 237.3 85.8494 238.38 85.8494 239.83C85.8494 240.488 85.7219 241.065 85.4669 241.561C85.2253 242.045 84.8964 242.461 84.4803 242.81C84.0777 243.145 83.6414 243.42 83.1717 243.635L87.3997 249.897H84.0173L80.5946 244.38H78.9638V249.897H75.9237V235.521H80.1114ZM79.8899 238.018H78.9638V241.904H79.9503C80.957 241.904 81.6751 241.736 82.1046 241.4C82.5475 241.065 82.769 240.568 82.769 239.911C82.769 239.226 82.5341 238.743 82.0643 238.461C81.608 238.166 80.8832 238.018 79.8899 238.018ZM100.489 235.521L95.5971 249.897H92.2751L87.4028 235.521H90.4832L93.1811 244.078C93.2348 244.226 93.3086 244.501 93.4026 244.904C93.5099 245.293 93.6173 245.709 93.7247 246.152C93.8321 246.581 93.9059 246.944 93.9462 247.239C93.9864 246.944 94.0535 246.581 94.1475 246.152C94.2549 245.709 94.3622 245.293 94.4696 244.904C94.577 244.501 94.6508 244.226 94.6911 244.078L97.4091 235.521H100.489ZM110.584 249.897H102.309V235.521H110.584V238.018H105.349V241.179H110.222V243.675H105.349V247.38H110.584V249.897ZM117.763 235.521C119.723 235.521 121.166 235.877 122.092 236.589C123.031 237.3 123.501 238.38 123.501 239.83C123.501 240.488 123.374 241.065 123.119 241.561C122.877 242.045 122.548 242.461 122.132 242.81C121.729 243.145 121.293 243.42 120.823 243.635L125.051 249.897H121.669L118.246 244.38H116.615V249.897H113.575V235.521H117.763ZM117.542 238.018H116.615V241.904H117.602C118.609 241.904 119.327 241.736 119.756 241.4C120.199 241.065 120.421 240.568 120.421 239.911C120.421 239.226 120.186 238.743 119.716 238.461C119.26 238.166 118.535 238.018 117.542 238.018Z" fill="#F8F8F8"/>
<ellipse cx="331.5" cy="276.21" rx="75.5" ry="20.1333" fill="#5A72B0"/>
<rect x="256" y="188.63" width="151" height="87.58" fill="#5A72B0"/>
<ellipse cx="331.5" cy="189.133" rx="75.5" ry="20.1333" fill="#274697"/>
<path d="M305.045 245.91C305.045 247.185 304.582 248.205 303.656 248.971C302.743 249.722 301.441 250.098 299.75 250.098C298.233 250.098 296.877 249.809 295.683 249.232V246.393C296.367 246.689 297.072 246.964 297.797 247.219C298.535 247.461 299.266 247.581 299.991 247.581C300.743 247.581 301.273 247.44 301.582 247.159C301.904 246.863 302.065 246.494 302.065 246.051C302.065 245.689 301.937 245.38 301.682 245.125C301.441 244.87 301.112 244.635 300.696 244.42C300.28 244.192 299.803 243.951 299.266 243.696C298.931 243.535 298.569 243.347 298.179 243.132C297.79 242.904 297.414 242.629 297.052 242.306C296.703 241.971 296.414 241.568 296.186 241.098C295.958 240.629 295.844 240.065 295.844 239.407C295.844 238.119 296.28 237.119 297.152 236.407C298.025 235.683 299.213 235.32 300.716 235.32C301.468 235.32 302.179 235.407 302.85 235.582C303.535 235.756 304.246 236.005 304.984 236.327L303.998 238.703C303.34 238.434 302.75 238.226 302.226 238.078C301.703 237.931 301.166 237.857 300.615 237.857C300.038 237.857 299.595 237.991 299.287 238.26C298.978 238.528 298.824 238.877 298.824 239.307C298.824 239.817 299.052 240.219 299.508 240.515C299.964 240.81 300.642 241.172 301.542 241.602C302.28 241.951 302.904 242.313 303.414 242.689C303.937 243.065 304.34 243.508 304.622 244.018C304.904 244.528 305.045 245.159 305.045 245.91ZM315.932 249.897H307.658V235.521H315.932V238.018H310.698V241.179H315.57V243.675H310.698V247.38H315.932V249.897ZM323.111 235.521C325.071 235.521 326.514 235.877 327.44 236.589C328.38 237.3 328.849 238.38 328.849 239.83C328.849 240.488 328.722 241.065 328.467 241.561C328.225 242.045 327.896 242.461 327.48 242.81C327.078 243.145 326.641 243.42 326.172 243.635L330.4 249.897H327.017L323.595 244.38H321.964V249.897H318.924V235.521H323.111ZM322.89 238.018H321.964V241.904H322.95C323.957 241.904 324.675 241.736 325.105 241.4C325.548 241.065 325.769 240.568 325.769 239.911C325.769 239.226 325.534 238.743 325.064 238.461C324.608 238.166 323.883 238.018 322.89 238.018ZM343.489 235.521L338.597 249.897H335.275L330.403 235.521H333.483L336.181 244.078C336.235 244.226 336.309 244.501 336.403 244.904C336.51 245.293 336.617 245.709 336.725 246.152C336.832 246.581 336.906 246.944 336.946 247.239C336.986 246.944 337.054 246.581 337.147 246.152C337.255 245.709 337.362 245.293 337.47 244.904C337.577 244.501 337.651 244.226 337.691 244.078L340.409 235.521H343.489ZM353.584 249.897H345.309V235.521H353.584V238.018H348.349V241.179H353.222V243.675H348.349V247.38H353.584V249.897ZM360.763 235.521C362.723 235.521 364.166 235.877 365.092 236.589C366.031 237.3 366.501 238.38 366.501 239.83C366.501 240.488 366.374 241.065 366.119 241.561C365.877 242.045 365.548 242.461 365.132 242.81C364.729 243.145 364.293 243.42 363.823 243.635L368.051 249.897H364.669L361.246 244.38H359.615V249.897H356.575V235.521H360.763ZM360.542 238.018H359.615V241.904H360.602C361.609 241.904 362.327 241.736 362.756 241.4C363.199 241.065 363.421 240.568 363.421 239.911C363.421 239.226 363.186 238.743 362.716 238.461C362.26 238.166 361.535 238.018 360.542 238.018Z" fill="#F8F8F8"/>
<path d="M408 188.63H559V276.21H408V188.63Z" fill="#5A72B0"/>
<path d="M559 276.21C559 287.329 525.197 296.343 483.5 296.343C441.803 296.343 408 287.329 408 276.21C408 265.091 441.803 256.077 483.5 256.077C525.197 256.077 559 265.091 559 276.21Z" fill="#5A72B0"/>
<ellipse cx="483.5" cy="189.133" rx="75.5" ry="20.1333" fill="#274697"/>
<path d="M457.045 245.91C457.045 247.185 456.582 248.205 455.656 248.971C454.743 249.722 453.441 250.098 451.75 250.098C450.233 250.098 448.877 249.809 447.683 249.232V246.393C448.367 246.689 449.072 246.964 449.797 247.219C450.535 247.461 451.266 247.581 451.991 247.581C452.743 247.581 453.273 247.44 453.582 247.159C453.904 246.863 454.065 246.494 454.065 246.051C454.065 245.689 453.937 245.38 453.682 245.125C453.441 244.87 453.112 244.635 452.696 244.42C452.28 244.192 451.803 243.951 451.266 243.696C450.931 243.535 450.569 243.347 450.179 243.132C449.79 242.904 449.414 242.629 449.052 242.306C448.703 241.971 448.414 241.568 448.186 241.098C447.958 240.629 447.844 240.065 447.844 239.407C447.844 238.119 448.28 237.119 449.152 236.407C450.025 235.683 451.213 235.32 452.716 235.32C453.468 235.32 454.179 235.407 454.85 235.582C455.535 235.756 456.246 236.005 456.984 236.327L455.998 238.703C455.34 238.434 454.75 238.226 454.226 238.078C453.703 237.931 453.166 237.857 452.615 237.857C452.038 237.857 451.595 237.991 451.287 238.26C450.978 238.528 450.824 238.877 450.824 239.307C450.824 239.817 451.052 240.219 451.508 240.515C451.964 240.81 452.642 241.172 453.542 241.602C454.28 241.951 454.904 242.313 455.414 242.689C455.937 243.065 456.34 243.508 456.622 244.018C456.904 244.528 457.045 245.159 457.045 245.91ZM467.932 249.897H459.658V235.521H467.932V238.018H462.698V241.179H467.57V243.675H462.698V247.38H467.932V249.897ZM475.111 235.521C477.071 235.521 478.514 235.877 479.44 236.589C480.38 237.3 480.849 238.38 480.849 239.83C480.849 240.488 480.722 241.065 480.467 241.561C480.225 242.045 479.896 242.461 479.48 242.81C479.078 243.145 478.641 243.42 478.172 243.635L482.4 249.897H479.017L475.595 244.38H473.964V249.897H470.924V235.521H475.111ZM474.89 238.018H473.964V241.904H474.95C475.957 241.904 476.675 241.736 477.105 241.4C477.548 241.065 477.769 240.568 477.769 239.911C477.769 239.226 477.534 238.743 477.064 238.461C476.608 238.166 475.883 238.018 474.89 238.018ZM495.489 235.521L490.597 249.897H487.275L482.403 235.521H485.483L488.181 244.078C488.235 244.226 488.309 244.501 488.403 244.904C488.51 245.293 488.617 245.709 488.725 246.152C488.832 246.581 488.906 246.944 488.946 247.239C488.986 246.944 489.054 246.581 489.147 246.152C489.255 245.709 489.362 245.293 489.47 244.904C489.577 244.501 489.651 244.226 489.691 244.078L492.409 235.521H495.489ZM505.584 249.897H497.309V235.521H505.584V238.018H500.349V241.179H505.222V243.675H500.349V247.38H505.584V249.897ZM512.763 235.521C514.723 235.521 516.166 235.877 517.092 236.589C518.031 237.3 518.501 238.38 518.501 239.83C518.501 240.488 518.374 241.065 518.119 241.561C517.877 242.045 517.548 242.461 517.132 242.81C516.729 243.145 516.293 243.42 515.823 243.635L520.051 249.897H516.669L513.246 244.38H511.615V249.897H508.575V235.521H512.763ZM512.542 238.018H511.615V241.904H512.602C513.609 241.904 514.327 241.736 514.756 241.4C515.199 241.065 515.421 240.568 515.421 239.911C515.421 239.226 515.186 238.743 514.716 238.461C514.26 238.166 513.535 238.018 512.542 238.018Z" fill="#F8F8F8"/>
<ellipse cx="726.5" cy="212.21" rx="75.5" ry="20.1333" fill="#5A72B0"/>
<rect x="651" y="124.63" width="151" height="87.58" fill="#5A72B0"/>
<ellipse cx="726.5" cy="125.133" rx="75.5" ry="20.1333" fill="#274697"/>
<path d="M700.045 181.91C700.045 183.185 699.582 184.205 698.656 184.971C697.743 185.722 696.441 186.098 694.75 186.098C693.233 186.098 691.877 185.809 690.683 185.232V182.393C691.367 182.689 692.072 182.964 692.797 183.219C693.535 183.461 694.266 183.581 694.991 183.581C695.743 183.581 696.273 183.44 696.582 183.159C696.904 182.863 697.065 182.494 697.065 182.051C697.065 181.689 696.937 181.38 696.682 181.125C696.441 180.87 696.112 180.635 695.696 180.42C695.28 180.192 694.803 179.951 694.266 179.696C693.931 179.535 693.569 179.347 693.179 179.132C692.79 178.904 692.414 178.629 692.052 178.306C691.703 177.971 691.414 177.568 691.186 177.098C690.958 176.629 690.844 176.065 690.844 175.407C690.844 174.119 691.28 173.119 692.152 172.407C693.025 171.683 694.213 171.32 695.716 171.32C696.468 171.32 697.179 171.407 697.85 171.582C698.535 171.756 699.246 172.005 699.984 172.327L698.998 174.703C698.34 174.434 697.75 174.226 697.226 174.078C696.703 173.931 696.166 173.857 695.615 173.857C695.038 173.857 694.595 173.991 694.287 174.26C693.978 174.528 693.824 174.877 693.824 175.307C693.824 175.817 694.052 176.219 694.508 176.515C694.964 176.81 695.642 177.172 696.542 177.602C697.28 177.951 697.904 178.313 698.414 178.689C698.937 179.065 699.34 179.508 699.622 180.018C699.904 180.528 700.045 181.159 700.045 181.91ZM710.932 185.897H702.658V171.521H710.932V174.018H705.698V177.179H710.57V179.675H705.698V183.38H710.932V185.897ZM718.111 171.521C720.071 171.521 721.514 171.877 722.44 172.589C723.38 173.3 723.849 174.38 723.849 175.83C723.849 176.488 723.722 177.065 723.467 177.561C723.225 178.045 722.896 178.461 722.48 178.81C722.078 179.145 721.641 179.42 721.172 179.635L725.4 185.897H722.017L718.595 180.38H716.964V185.897H713.924V171.521H718.111ZM717.89 174.018H716.964V177.904H717.95C718.957 177.904 719.675 177.736 720.105 177.4C720.548 177.065 720.769 176.568 720.769 175.911C720.769 175.226 720.534 174.743 720.064 174.461C719.608 174.166 718.883 174.018 717.89 174.018ZM738.489 171.521L733.597 185.897H730.275L725.403 171.521H728.483L731.181 180.078C731.235 180.226 731.309 180.501 731.403 180.904C731.51 181.293 731.617 181.709 731.725 182.152C731.832 182.581 731.906 182.944 731.946 183.239C731.986 182.944 732.054 182.581 732.147 182.152C732.255 181.709 732.362 181.293 732.47 180.904C732.577 180.501 732.651 180.226 732.691 180.078L735.409 171.521H738.489ZM748.584 185.897H740.309V171.521H748.584V174.018H743.349V177.179H748.222V179.675H743.349V183.38H748.584V185.897ZM755.763 171.521C757.723 171.521 759.166 171.877 760.092 172.589C761.031 173.3 761.501 174.38 761.501 175.83C761.501 176.488 761.374 177.065 761.119 177.561C760.877 178.045 760.548 178.461 760.132 178.81C759.729 179.145 759.293 179.42 758.823 179.635L763.051 185.897H759.669L756.246 180.38H754.615V185.897H751.575V171.521H755.763ZM755.542 174.018H754.615V177.904H755.602C756.609 177.904 757.327 177.736 757.756 177.4C758.199 177.065 758.421 176.568 758.421 175.911C758.421 175.226 758.186 174.743 757.716 174.461C757.26 174.166 756.535 174.018 755.542 174.018Z" fill="#F8F8F8"/>
<ellipse cx="726.5" cy="340.21" rx="75.5" ry="20.1333" fill="#5A72B0"/>
<rect x="651" y="252.63" width="151" height="87.58" fill="#5A72B0"/>
<ellipse cx="726.5" cy="253.133" rx="75.5" ry="20.1333" fill="#274697"/>
<path d="M700.045 309.91C700.045 311.185 699.582 312.205 698.656 312.971C697.743 313.722 696.441 314.098 694.75 314.098C693.233 314.098 691.877 313.809 690.683 313.232V310.393C691.367 310.689 692.072 310.964 692.797 311.219C693.535 311.461 694.266 311.581 694.991 311.581C695.743 311.581 696.273 311.44 696.582 311.159C696.904 310.863 697.065 310.494 697.065 310.051C697.065 309.689 696.937 309.38 696.682 309.125C696.441 308.87 696.112 308.635 695.696 308.42C695.28 308.192 694.803 307.951 694.266 307.696C693.931 307.535 693.569 307.347 693.179 307.132C692.79 306.904 692.414 306.629 692.052 306.306C691.703 305.971 691.414 305.568 691.186 305.098C690.958 304.629 690.844 304.065 690.844 303.407C690.844 302.119 691.28 301.119 692.152 300.407C693.025 299.683 694.213 299.32 695.716 299.32C696.468 299.32 697.179 299.407 697.85 299.582C698.535 299.756 699.246 300.005 699.984 300.327L698.998 302.703C698.34 302.434 697.75 302.226 697.226 302.078C696.703 301.931 696.166 301.857 695.615 301.857C695.038 301.857 694.595 301.991 694.287 302.26C693.978 302.528 693.824 302.877 693.824 303.307C693.824 303.817 694.052 304.219 694.508 304.515C694.964 304.81 695.642 305.172 696.542 305.602C697.28 305.951 697.904 306.313 698.414 306.689C698.937 307.065 699.34 307.508 699.622 308.018C699.904 308.528 700.045 309.159 700.045 309.91ZM710.932 313.897H702.658V299.521H710.932V302.018H705.698V305.179H710.57V307.675H705.698V311.38H710.932V313.897ZM718.111 299.521C720.071 299.521 721.514 299.877 722.44 300.589C723.38 301.3 723.849 302.38 723.849 303.83C723.849 304.488 723.722 305.065 723.467 305.561C723.225 306.045 722.896 306.461 722.48 306.81C722.078 307.145 721.641 307.42 721.172 307.635L725.4 313.897H722.017L718.595 308.38H716.964V313.897H713.924V299.521H718.111ZM717.89 302.018H716.964V305.904H717.95C718.957 305.904 719.675 305.736 720.105 305.4C720.548 305.065 720.769 304.568 720.769 303.911C720.769 303.226 720.534 302.743 720.064 302.461C719.608 302.166 718.883 302.018 717.89 302.018ZM738.489 299.521L733.597 313.897H730.275L725.403 299.521H728.483L731.181 308.078C731.235 308.226 731.309 308.501 731.403 308.904C731.51 309.293 731.617 309.709 731.725 310.152C731.832 310.581 731.906 310.944 731.946 311.239C731.986 310.944 732.054 310.581 732.147 310.152C732.255 309.709 732.362 309.293 732.47 308.904C732.577 308.501 732.651 308.226 732.691 308.078L735.409 299.521H738.489ZM748.584 313.897H740.309V299.521H748.584V302.018H743.349V305.179H748.222V307.675H743.349V311.38H748.584V313.897ZM755.763 299.521C757.723 299.521 759.166 299.877 760.092 300.589C761.031 301.3 761.501 302.38 761.501 303.83C761.501 304.488 761.374 305.065 761.119 305.561C760.877 306.045 760.548 306.461 760.132 306.81C759.729 307.145 759.293 307.42 758.823 307.635L763.051 313.897H759.669L756.246 308.38H754.615V313.897H751.575V299.521H755.763ZM755.542 302.018H754.615V305.904H755.602C756.609 305.904 757.327 305.736 757.756 305.4C758.199 305.065 758.421 304.568 758.421 303.911C758.421 303.226 758.186 302.743 757.716 302.461C757.26 302.166 756.535 302.018 755.542 302.018Z" fill="#F8F8F8"/>
<path d="M803 124.63H954V212.21H803V124.63Z" fill="#5A72B0"/>
<path d="M954 212.21C954 223.329 920.197 232.343 878.5 232.343C836.803 232.343 803 223.329 803 212.21C803 201.091 836.803 192.077 878.5 192.077C920.197 192.077 954 201.091 954 212.21Z" fill="#5A72B0"/>
<ellipse cx="878.5" cy="125.133" rx="75.5" ry="20.1333" fill="#274697"/>
<path d="M852.045 181.91C852.045 183.185 851.582 184.205 850.656 184.971C849.743 185.722 848.441 186.098 846.75 186.098C845.233 186.098 843.877 185.809 842.683 185.232V182.393C843.367 182.689 844.072 182.964 844.797 183.219C845.535 183.461 846.266 183.581 846.991 183.581C847.743 183.581 848.273 183.44 848.582 183.159C848.904 182.863 849.065 182.494 849.065 182.051C849.065 181.689 848.937 181.38 848.682 181.125C848.441 180.87 848.112 180.635 847.696 180.42C847.28 180.192 846.803 179.951 846.266 179.696C845.931 179.535 845.569 179.347 845.179 179.132C844.79 178.904 844.414 178.629 844.052 178.306C843.703 177.971 843.414 177.568 843.186 177.098C842.958 176.629 842.844 176.065 842.844 175.407C842.844 174.119 843.28 173.119 844.152 172.407C845.025 171.683 846.213 171.32 847.716 171.32C848.468 171.32 849.179 171.407 849.85 171.582C850.535 171.756 851.246 172.005 851.984 172.327L850.998 174.703C850.34 174.434 849.75 174.226 849.226 174.078C848.703 173.931 848.166 173.857 847.615 173.857C847.038 173.857 846.595 173.991 846.287 174.26C845.978 174.528 845.824 174.877 845.824 175.307C845.824 175.817 846.052 176.219 846.508 176.515C846.964 176.81 847.642 177.172 848.542 177.602C849.28 177.951 849.904 178.313 850.414 178.689C850.937 179.065 851.34 179.508 851.622 180.018C851.904 180.528 852.045 181.159 852.045 181.91ZM862.932 185.897H854.658V171.521H862.932V174.018H857.698V177.179H862.57V179.675H857.698V183.38H862.932V185.897ZM870.111 171.521C872.071 171.521 873.514 171.877 874.44 172.589C875.38 173.3 875.849 174.38 875.849 175.83C875.849 176.488 875.722 177.065 875.467 177.561C875.225 178.045 874.896 178.461 874.48 178.81C874.078 179.145 873.641 179.42 873.172 179.635L877.4 185.897H874.017L870.595 180.38H868.964V185.897H865.924V171.521H870.111ZM869.89 174.018H868.964V177.904H869.95C870.957 177.904 871.675 177.736 872.105 177.4C872.548 177.065 872.769 176.568 872.769 175.911C872.769 175.226 872.534 174.743 872.064 174.461C871.608 174.166 870.883 174.018 869.89 174.018ZM890.489 171.521L885.597 185.897H882.275L877.403 171.521H880.483L883.181 180.078C883.235 180.226 883.309 180.501 883.403 180.904C883.51 181.293 883.617 181.709 883.725 182.152C883.832 182.581 883.906 182.944 883.946 183.239C883.986 182.944 884.054 182.581 884.147 182.152C884.255 181.709 884.362 181.293 884.47 180.904C884.577 180.501 884.651 180.226 884.691 180.078L887.409 171.521H890.489ZM900.584 185.897H892.309V171.521H900.584V174.018H895.349V177.179H900.222V179.675H895.349V183.38H900.584V185.897ZM907.763 171.521C909.723 171.521 911.166 171.877 912.092 172.589C913.031 173.3 913.501 174.38 913.501 175.83C913.501 176.488 913.374 177.065 913.119 177.561C912.877 178.045 912.548 178.461 912.132 178.81C911.729 179.145 911.293 179.42 910.823 179.635L915.051 185.897H911.669L908.246 180.38H906.615V185.897H903.575V171.521H907.763ZM907.542 174.018H906.615V177.904H907.602C908.609 177.904 909.327 177.736 909.756 177.4C910.199 177.065 910.421 176.568 910.421 175.911C910.421 175.226 910.186 174.743 909.716 174.461C909.26 174.166 908.535 174.018 907.542 174.018Z" fill="#F8F8F8"/>
<path d="M803 252.63H954V340.21H803V252.63Z" fill="#5A72B0"/>
<path d="M954 340.21C954 351.329 920.197 360.343 878.5 360.343C836.803 360.343 803 351.329 803 340.21C803 329.091 836.803 320.077 878.5 320.077C920.197 320.077 954 329.091 954 340.21Z" fill="#5A72B0"/>
<ellipse cx="878.5" cy="253.133" rx="75.5" ry="20.1333" fill="#274697"/>
<path d="M852.045 309.91C852.045 311.185 851.582 312.205 850.656 312.971C849.743 313.722 848.441 314.098 846.75 314.098C845.233 314.098 843.877 313.809 842.683 313.232V310.393C843.367 310.689 844.072 310.964 844.797 311.219C845.535 311.461 846.266 311.581 846.991 311.581C847.743 311.581 848.273 311.44 848.582 311.159C848.904 310.863 849.065 310.494 849.065 310.051C849.065 309.689 848.937 309.38 848.682 309.125C848.441 308.87 848.112 308.635 847.696 308.42C847.28 308.192 846.803 307.951 846.266 307.696C845.931 307.535 845.569 307.347 845.179 307.132C844.79 306.904 844.414 306.629 844.052 306.306C843.703 305.971 843.414 305.568 843.186 305.098C842.958 304.629 842.844 304.065 842.844 303.407C842.844 302.119 843.28 301.119 844.152 300.407C845.025 299.683 846.213 299.32 847.716 299.32C848.468 299.32 849.179 299.407 849.85 299.582C850.535 299.756 851.246 300.005 851.984 300.327L850.998 302.703C850.34 302.434 849.75 302.226 849.226 302.078C848.703 301.931 848.166 301.857 847.615 301.857C847.038 301.857 846.595 301.991 846.287 302.26C845.978 302.528 845.824 302.877 845.824 303.307C845.824 303.817 846.052 304.219 846.508 304.515C846.964 304.81 847.642 305.172 848.542 305.602C849.28 305.951 849.904 306.313 850.414 306.689C850.937 307.065 851.34 307.508 851.622 308.018C851.904 308.528 852.045 309.159 852.045 309.91ZM862.932 313.897H854.658V299.521H862.932V302.018H857.698V305.179H862.57V307.675H857.698V311.38H862.932V313.897ZM870.111 299.521C872.071 299.521 873.514 299.877 874.44 300.589C875.38 301.3 875.849 302.38 875.849 303.83C875.849 304.488 875.722 305.065 875.467 305.561C875.225 306.045 874.896 306.461 874.48 306.81C874.078 307.145 873.641 307.42 873.172 307.635L877.4 313.897H874.017L870.595 308.38H868.964V313.897H865.924V299.521H870.111ZM869.89 302.018H868.964V305.904H869.95C870.957 305.904 871.675 305.736 872.105 305.4C872.548 305.065 872.769 304.568 872.769 303.911C872.769 303.226 872.534 302.743 872.064 302.461C871.608 302.166 870.883 302.018 869.89 302.018ZM890.489 299.521L885.597 313.897H882.275L877.403 299.521H880.483L883.181 308.078C883.235 308.226 883.309 308.501 883.403 308.904C883.51 309.293 883.617 309.709 883.725 310.152C883.832 310.581 883.906 310.944 883.946 311.239C883.986 310.944 884.054 310.581 884.147 310.152C884.255 309.709 884.362 309.293 884.47 308.904C884.577 308.501 884.651 308.226 884.691 308.078L887.409 299.521H890.489ZM900.584 313.897H892.309V299.521H900.584V302.018H895.349V305.179H900.222V307.675H895.349V311.38H900.584V313.897ZM907.763 299.521C909.723 299.521 911.166 299.877 912.092 300.589C913.031 301.3 913.501 302.38 913.501 303.83C913.501 304.488 913.374 305.065 913.119 305.561C912.877 306.045 912.548 306.461 912.132 306.81C911.729 307.145 911.293 307.42 910.823 307.635L915.051 313.897H911.669L908.246 308.38H906.615V313.897H903.575V299.521H907.763ZM907.542 302.018H906.615V305.904H907.602C908.609 305.904 909.327 305.736 909.756 305.4C910.199 305.065 910.421 304.568 910.421 303.911C910.421 303.226 910.186 302.743 909.716 302.461C909.26 302.166 908.535 302.018 907.542 302.018Z" fill="#F8F8F8"/>
<path d="M220.025 230.5H190V235.5H220.025V243L230 233L220.025 223V230.5Z" fill="#2F2D44"/>
<path d="M615.025 230.5H585V235.5H615.025V243L625 233L615.025 223V230.5Z" fill="#2F2D44"/>
<path d="M360.44 55.08C360.44 57.6133 359.52 59.64 357.68 61.16C355.867 62.6533 353.28 63.4 349.92 63.4C346.907 63.4 344.213 62.8267 341.84 61.68V56.04C343.2 56.6267 344.6 57.1733 346.04 57.68C347.507 58.16 348.96 58.4 350.4 58.4C351.893 58.4 352.947 58.12 353.56 57.56C354.2 56.9733 354.52 56.24 354.52 55.36C354.52 54.64 354.267 54.0267 353.76 53.52C353.28 53.0133 352.627 52.5467 351.8 52.12C350.973 51.6667 350.027 51.1867 348.96 50.68C348.293 50.36 347.573 49.9867 346.8 49.56C346.027 49.1067 345.28 48.56 344.56 47.92C343.867 47.2533 343.293 46.4533 342.84 45.52C342.387 44.5867 342.16 43.4667 342.16 42.16C342.16 39.6 343.027 37.6133 344.76 36.2C346.493 34.76 348.853 34.04 351.84 34.04C353.333 34.04 354.747 34.2133 356.08 34.56C357.44 34.9067 358.853 35.4 360.32 36.04L358.36 40.76C357.053 40.2267 355.88 39.8133 354.84 39.52C353.8 39.2267 352.733 39.08 351.64 39.08C350.493 39.08 349.613 39.3467 349 39.88C348.387 40.4133 348.08 41.1067 348.08 41.96C348.08 42.9733 348.533 43.7733 349.44 44.36C350.347 44.9467 351.693 45.6667 353.48 46.52C354.947 47.2133 356.187 47.9333 357.2 48.68C358.24 49.4267 359.04 50.3067 359.6 51.32C360.16 52.3333 360.44 53.5867 360.44 55.08ZM374.031 63.4C370.778 63.4 368.258 62.5067 366.471 60.72C364.711 58.9067 363.831 56.0667 363.831 52.2C363.831 49.5333 364.285 47.36 365.191 45.68C366.098 44 367.351 42.76 368.951 41.96C370.578 41.16 372.445 40.76 374.551 40.76C376.045 40.76 377.338 40.9067 378.431 41.2C379.551 41.4933 380.525 41.84 381.351 42.24L379.591 46.84C378.658 46.4667 377.778 46.16 376.951 45.92C376.151 45.68 375.351 45.56 374.551 45.56C371.458 45.56 369.911 47.76 369.911 52.16C369.911 54.3467 370.311 55.96 371.111 57C371.938 58.04 373.085 58.56 374.551 58.56C375.805 58.56 376.911 58.4 377.871 58.08C378.831 57.7333 379.765 57.2667 380.671 56.68V61.76C379.765 62.3467 378.805 62.76 377.791 63C376.805 63.2667 375.551 63.4 374.031 63.4ZM394.658 40.72C397.591 40.72 399.831 41.36 401.378 42.64C402.951 43.8933 403.738 45.8267 403.738 48.44V63H399.578L398.418 60.04H398.258C397.325 61.2133 396.338 62.0667 395.298 62.6C394.258 63.1333 392.831 63.4 391.018 63.4C389.071 63.4 387.458 62.84 386.178 61.72C384.898 60.5733 384.258 58.8267 384.258 56.48C384.258 54.16 385.071 52.4533 386.698 51.36C388.325 50.24 390.765 49.6267 394.018 49.52L397.818 49.4V48.44C397.818 47.2933 397.511 46.4533 396.898 45.92C396.311 45.3867 395.485 45.12 394.418 45.12C393.351 45.12 392.311 45.28 391.298 45.6C390.285 45.8933 389.271 46.2667 388.258 46.72L386.298 42.68C387.471 42.0667 388.765 41.5867 390.178 41.24C391.618 40.8933 393.111 40.72 394.658 40.72ZM395.498 52.96C393.578 53.0133 392.245 53.36 391.498 54C390.751 54.64 390.378 55.48 390.378 56.52C390.378 57.4267 390.645 58.08 391.178 58.48C391.711 58.8533 392.405 59.04 393.258 59.04C394.538 59.04 395.618 58.6667 396.498 57.92C397.378 57.1467 397.818 56.0667 397.818 54.68V52.88L395.498 52.96ZM415.799 63H409.839V32.6H415.799V63ZM431.026 40.76C434.04 40.76 436.426 41.6267 438.186 43.36C439.946 45.0667 440.826 47.5067 440.826 50.68V53.56H426.746C426.8 55.24 427.293 56.56 428.226 57.52C429.186 58.48 430.506 58.96 432.186 58.96C433.6 58.96 434.88 58.8267 436.026 58.56C437.173 58.2667 438.36 57.8267 439.586 57.24V61.84C438.52 62.3733 437.386 62.76 436.186 63C435.013 63.2667 433.586 63.4 431.906 63.4C429.72 63.4 427.786 63 426.106 62.2C424.426 61.3733 423.106 60.1333 422.146 58.48C421.186 56.8267 420.706 54.7467 420.706 52.24C420.706 49.68 421.133 47.56 421.986 45.88C422.866 44.1733 424.08 42.8933 425.626 42.04C427.173 41.1867 428.973 40.76 431.026 40.76ZM431.066 45C429.92 45 428.96 45.3733 428.186 46.12C427.44 46.8667 427 48.0267 426.866 49.6H435.226C435.2 48.2667 434.853 47.1733 434.186 46.32C433.52 45.44 432.48 45 431.066 45ZM443.739 54.72V49.84H454.219V54.72H443.739ZM484.95 48.68C484.95 51.64 484.456 54.2267 483.47 56.44C482.51 58.6267 481.03 60.3333 479.03 61.56C477.03 62.7867 474.47 63.4 471.35 63.4C468.256 63.4 465.696 62.7867 463.67 61.56C461.67 60.3333 460.176 58.6133 459.19 56.4C458.23 54.1867 457.75 51.6 457.75 48.64C457.75 45.68 458.23 43.1067 459.19 40.92C460.176 38.7333 461.67 37.04 463.67 35.84C465.696 34.6133 468.27 34 471.39 34C474.483 34 477.03 34.6133 479.03 35.84C481.03 37.04 482.51 38.7467 483.47 40.96C484.456 43.1467 484.95 45.72 484.95 48.68ZM464.11 48.68C464.11 51.6667 464.683 54.0267 465.83 55.76C466.976 57.4667 468.816 58.32 471.35 58.32C473.936 58.32 475.79 57.4667 476.91 55.76C478.03 54.0267 478.59 51.6667 478.59 48.68C478.59 45.6667 478.03 43.3067 476.91 41.6C475.79 39.8933 473.95 39.04 471.39 39.04C468.83 39.04 466.976 39.8933 465.83 41.6C464.683 43.3067 464.11 45.6667 464.11 48.68ZM510.426 41.16V63H505.866L505.066 60.2H504.746C504.052 61.32 503.092 62.1333 501.866 62.64C500.666 63.1467 499.386 63.4 498.026 63.4C495.679 63.4 493.799 62.7733 492.386 61.52C490.972 60.24 490.266 58.2 490.266 55.4V41.16H496.226V53.92C496.226 55.4667 496.506 56.64 497.066 57.44C497.626 58.24 498.519 58.64 499.746 58.64C501.559 58.64 502.799 58.0267 503.466 56.8C504.132 55.5467 504.466 53.76 504.466 51.44V41.16H510.426ZM525.875 58.64C526.541 58.64 527.181 58.5733 527.795 58.44C528.408 58.3067 529.021 58.1467 529.635 57.96V62.4C528.995 62.6667 528.195 62.8933 527.235 63.08C526.301 63.2933 525.275 63.4 524.155 63.4C522.848 63.4 521.675 63.1867 520.635 62.76C519.621 62.3333 518.808 61.6 518.195 60.56C517.608 59.4933 517.315 58.0267 517.315 56.16V45.64H514.475V43.12L517.755 41.12L519.475 36.52H523.275V41.16H529.395V45.64H523.275V56.16C523.275 56.9867 523.515 57.6133 523.995 58.04C524.475 58.44 525.101 58.64 525.875 58.64Z" fill="#2F2D44"/>
</svg>
