<svg width="420" height="120" viewBox="0 0 420 120" fill="none" xmlns="http://www.w3.org/2000/svg">
<rect width="420" height="120" fill="white"/>
<path d="M130.624 11.434C132.41 11.434 133.727 11.7633 134.576 12.422C135.437 13.0807 135.868 14.0813 135.868 15.424C135.868 16.0827 135.741 16.6463 135.488 17.115C135.247 17.5837 134.931 17.9763 134.538 18.293C134.145 18.597 133.721 18.844 133.265 19.034L137.16 25H134.424L131.175 19.642H129.199V25H126.767V11.434H130.624ZM130.472 13.467H129.199V17.647H130.548C131.549 17.647 132.271 17.4697 132.714 17.115C133.17 16.7477 133.398 16.2093 133.398 15.5C133.398 14.7653 133.157 14.246 132.676 13.942C132.207 13.6253 131.473 13.467 130.472 13.467ZM147.581 14.702V25H145.7L145.377 23.67H145.263C144.921 24.202 144.459 24.5883 143.876 24.829C143.306 25.0697 142.698 25.19 142.052 25.19C140.9 25.19 139.994 24.8923 139.335 24.297C138.689 23.7017 138.366 22.7453 138.366 21.428V14.702H140.76V20.953C140.76 22.4857 141.394 23.252 142.66 23.252C143.623 23.252 144.282 22.9543 144.636 22.359C145.004 21.751 145.187 20.877 145.187 19.737V14.702H147.581ZM155.763 14.512C156.915 14.512 157.815 14.8097 158.461 15.405C159.119 16.0003 159.449 16.963 159.449 18.293V25H157.055V18.768C157.055 17.2227 156.421 16.45 155.155 16.45C154.192 16.45 153.533 16.754 153.179 17.362C152.824 17.97 152.647 18.8377 152.647 19.965V25H150.253V14.702H152.096L152.438 16.051H152.571C152.9 15.519 153.35 15.1327 153.92 14.892C154.502 14.6387 155.117 14.512 155.763 14.512ZM166.053 23.271C166.344 23.271 166.629 23.2457 166.908 23.195C167.199 23.1317 167.465 23.062 167.706 22.986V24.772C167.453 24.886 167.123 24.981 166.718 25.057C166.313 25.1457 165.888 25.19 165.445 25.19C164.862 25.19 164.33 25.095 163.849 24.905C163.368 24.7023 162.988 24.3603 162.709 23.879C162.43 23.3977 162.291 22.7263 162.291 21.865V16.507H160.904V15.462L162.424 14.626L163.184 12.441H164.685V14.702H167.611V16.507H164.685V21.846C164.685 22.3273 164.812 22.6883 165.065 22.929C165.318 23.157 165.648 23.271 166.053 23.271ZM170.599 10.731C170.966 10.731 171.276 10.826 171.53 11.016C171.796 11.1933 171.929 11.5163 171.929 11.985C171.929 12.4537 171.796 12.783 171.53 12.973C171.276 13.163 170.966 13.258 170.599 13.258C170.231 13.258 169.915 13.163 169.649 12.973C169.395 12.783 169.269 12.4537 169.269 11.985C169.269 11.5163 169.395 11.1933 169.649 11.016C169.915 10.826 170.231 10.731 170.599 10.731ZM171.796 14.702V25H169.402V14.702H171.796ZM186.276 14.512C187.441 14.512 188.315 14.8097 188.898 15.405C189.493 16.0003 189.791 16.963 189.791 18.293V25H187.397V18.749C187.397 17.2163 186.814 16.45 185.649 16.45C184.813 16.45 184.218 16.7223 183.863 17.267C183.508 17.8117 183.331 18.6033 183.331 19.642V25H180.937V18.749C180.937 17.2163 180.348 16.45 179.17 16.45C178.296 16.45 177.694 16.754 177.365 17.362C177.036 17.97 176.871 18.8377 176.871 19.965V25H174.477V14.702H176.32L176.662 16.051H176.795C177.099 15.519 177.523 15.1327 178.068 14.892C178.625 14.6387 179.202 14.512 179.797 14.512C180.57 14.512 181.216 14.645 181.735 14.911C182.267 15.1643 182.672 15.5633 182.951 16.108H183.141C183.458 15.5507 183.901 15.1453 184.471 14.892C185.041 14.6387 185.643 14.512 186.276 14.512ZM196.552 14.512C197.933 14.512 199.022 14.9237 199.82 15.747C200.631 16.5703 201.036 17.7167 201.036 19.186V20.402H194.234C194.26 21.3393 194.519 22.0677 195.013 22.587C195.507 23.0937 196.191 23.347 197.065 23.347C197.724 23.347 198.319 23.2837 198.851 23.157C199.383 23.0177 199.928 22.8213 200.485 22.568V24.487C199.979 24.7277 199.453 24.905 198.908 25.019C198.364 25.133 197.711 25.19 196.951 25.19C195.951 25.19 195.058 25 194.272 24.62C193.5 24.2273 192.892 23.6383 192.448 22.853C192.018 22.0677 191.802 21.0923 191.802 19.927C191.802 18.1663 192.239 16.8237 193.113 15.899C193.987 14.9743 195.134 14.512 196.552 14.512ZM196.552 16.279C195.906 16.279 195.381 16.488 194.975 16.906C194.583 17.3113 194.355 17.9193 194.291 18.73H198.718C198.706 18.0207 198.522 17.438 198.167 16.982C197.825 16.5133 197.287 16.279 196.552 16.279ZM218.95 18.084C218.95 20.3767 218.31 22.1057 217.031 23.271C215.752 24.4237 213.966 25 211.673 25H207.854V11.434H212.072C213.465 11.434 214.675 11.6873 215.701 12.194C216.74 12.7007 217.538 13.448 218.095 14.436C218.665 15.4113 218.95 16.6273 218.95 18.084ZM216.404 18.16C216.404 16.5387 216.03 15.348 215.283 14.588C214.548 13.828 213.478 13.448 212.072 13.448H210.286V22.967H211.749C214.852 22.967 216.404 21.3647 216.404 18.16ZM225.34 14.512C226.67 14.512 227.677 14.8033 228.361 15.386C229.058 15.9687 229.406 16.868 229.406 18.084V25H227.715L227.24 23.575H227.164C226.721 24.1323 226.252 24.544 225.758 24.81C225.264 25.0633 224.593 25.19 223.744 25.19C222.82 25.19 222.053 24.9303 221.445 24.411C220.837 23.8917 220.533 23.0873 220.533 21.998C220.533 20.934 220.92 20.136 221.692 19.604C222.478 19.072 223.662 18.7743 225.245 18.711L227.031 18.654V18.141C227.031 17.495 226.873 17.0327 226.556 16.754C226.24 16.4627 225.796 16.317 225.226 16.317C224.707 16.317 224.207 16.393 223.725 16.545C223.257 16.697 222.788 16.8743 222.319 17.077L221.559 15.405C222.066 15.139 222.642 14.9237 223.288 14.759C223.947 14.5943 224.631 14.512 225.34 14.512ZM225.777 20.174C224.726 20.212 223.998 20.3957 223.592 20.725C223.187 21.0417 222.984 21.4723 222.984 22.017C222.984 22.511 223.124 22.8657 223.402 23.081C223.694 23.2837 224.074 23.385 224.542 23.385C225.239 23.385 225.828 23.1887 226.309 22.796C226.791 22.3907 227.031 21.7953 227.031 21.01V20.136L225.777 20.174ZM236.016 23.271C236.307 23.271 236.592 23.2457 236.871 23.195C237.162 23.1317 237.428 23.062 237.669 22.986V24.772C237.416 24.886 237.086 24.981 236.681 25.057C236.276 25.1457 235.851 25.19 235.408 25.19C234.825 25.19 234.293 25.095 233.812 24.905C233.331 24.7023 232.951 24.3603 232.672 23.879C232.393 23.3977 232.254 22.7263 232.254 21.865V16.507H230.867V15.462L232.387 14.626L233.147 12.441H234.648V14.702H237.574V16.507H234.648V21.846C234.648 22.3273 234.775 22.6883 235.028 22.929C235.281 23.157 235.611 23.271 236.016 23.271ZM243.469 14.512C244.799 14.512 245.806 14.8033 246.49 15.386C247.187 15.9687 247.535 16.868 247.535 18.084V25H245.844L245.369 23.575H245.293C244.85 24.1323 244.381 24.544 243.887 24.81C243.393 25.0633 242.722 25.19 241.873 25.19C240.948 25.19 240.182 24.9303 239.574 24.411C238.966 23.8917 238.662 23.0873 238.662 21.998C238.662 20.934 239.048 20.136 239.821 19.604C240.606 19.072 241.791 18.7743 243.374 18.711L245.16 18.654V18.141C245.16 17.495 245.002 17.0327 244.685 16.754C244.368 16.4627 243.925 16.317 243.355 16.317C242.836 16.317 242.335 16.393 241.854 16.545C241.385 16.697 240.917 16.8743 240.448 17.077L239.688 15.405C240.195 15.139 240.771 14.9237 241.417 14.759C242.076 14.5943 242.76 14.512 243.469 14.512ZM243.906 20.174C242.855 20.212 242.126 20.3957 241.721 20.725C241.316 21.0417 241.113 21.4723 241.113 22.017C241.113 22.511 241.252 22.8657 241.531 23.081C241.822 23.2837 242.202 23.385 242.671 23.385C243.368 23.385 243.957 23.1887 244.438 22.796C244.919 22.3907 245.16 21.7953 245.16 21.01V20.136L243.906 20.174ZM263.317 25L262.082 21.409H256.971L255.755 25H253.171L258.149 11.377H260.923L265.901 25H263.317ZM260.277 15.823C260.227 15.6457 260.151 15.405 260.049 15.101C259.948 14.797 259.847 14.4867 259.745 14.17C259.657 13.8407 259.587 13.5683 259.536 13.353C259.473 13.6063 259.391 13.8977 259.289 14.227C259.201 14.5563 259.112 14.8667 259.023 15.158C258.935 15.4493 258.871 15.671 258.833 15.823L257.636 19.319H261.455L260.277 15.823ZM272.473 14.512C272.638 14.512 272.815 14.5183 273.005 14.531C273.208 14.5437 273.379 14.569 273.518 14.607L273.309 16.83C273.183 16.8047 273.031 16.7857 272.853 16.773C272.676 16.7477 272.518 16.735 272.378 16.735C271.872 16.735 271.397 16.8427 270.953 17.058C270.51 17.2607 270.149 17.5837 269.87 18.027C269.604 18.4577 269.471 19.0023 269.471 19.661V25H267.077V14.702H268.92L269.262 16.488H269.376C269.68 15.9433 270.098 15.481 270.63 15.101C271.162 14.7083 271.777 14.512 272.473 14.512ZM278.818 14.512C280.199 14.512 281.288 14.9237 282.086 15.747C282.897 16.5703 283.302 17.7167 283.302 19.186V20.402H276.5C276.525 21.3393 276.785 22.0677 277.279 22.587C277.773 23.0937 278.457 23.347 279.331 23.347C279.99 23.347 280.585 23.2837 281.117 23.157C281.649 23.0177 282.194 22.8213 282.751 22.568V24.487C282.244 24.7277 281.719 24.905 281.174 25.019C280.629 25.133 279.977 25.19 279.217 25.19C278.216 25.19 277.323 25 276.538 24.62C275.765 24.2273 275.157 23.6383 274.714 22.853C274.283 22.0677 274.068 21.0923 274.068 19.927C274.068 18.1663 274.505 16.8237 275.379 15.899C276.253 14.9743 277.399 14.512 278.818 14.512ZM278.818 16.279C278.172 16.279 277.646 16.488 277.241 16.906C276.848 17.3113 276.62 17.9193 276.557 18.73H280.984C280.971 18.0207 280.788 17.438 280.433 16.982C280.091 16.5133 279.553 16.279 278.818 16.279ZM289.44 14.512C290.77 14.512 291.777 14.8033 292.461 15.386C293.158 15.9687 293.506 16.868 293.506 18.084V25H291.815L291.34 23.575H291.264C290.821 24.1323 290.352 24.544 289.858 24.81C289.364 25.0633 288.693 25.19 287.844 25.19C286.919 25.19 286.153 24.9303 285.545 24.411C284.937 23.8917 284.633 23.0873 284.633 21.998C284.633 20.934 285.019 20.136 285.792 19.604C286.577 19.072 287.762 18.7743 289.345 18.711L291.131 18.654V18.141C291.131 17.495 290.973 17.0327 290.656 16.754C290.339 16.4627 289.896 16.317 289.326 16.317C288.807 16.317 288.306 16.393 287.825 16.545C287.356 16.697 286.888 16.8743 286.419 17.077L285.659 15.405C286.166 15.139 286.742 14.9237 287.388 14.759C288.047 14.5943 288.731 14.512 289.44 14.512ZM289.877 20.174C288.826 20.212 288.097 20.3957 287.692 20.725C287.287 21.0417 287.084 21.4723 287.084 22.017C287.084 22.511 287.223 22.8657 287.502 23.081C287.793 23.2837 288.173 23.385 288.642 23.385C289.339 23.385 289.928 23.1887 290.409 22.796C290.89 22.3907 291.131 21.7953 291.131 21.01V20.136L289.877 20.174Z" fill="#665AB0"/>
<rect x="12.5" y="35.5" width="79" height="79" fill="white" stroke="#2F2D44"/>
<rect x="91.5" y="35.5" width="79" height="79" fill="white" stroke="#2F2D44"/>
<rect x="170.5" y="35.5" width="79" height="79" fill="white" stroke="#2F2D44"/>
<rect x="249.5" y="35.5" width="79" height="79" fill="white" stroke="#2F2D44"/>
<rect x="328.5" y="35.5" width="79" height="79" fill="white" stroke="#2F2D44"/>
<path d="M33.2649 71L29.9749 62.236H29.9189C29.9469 62.5253 29.9702 62.9173 29.9889 63.412C30.0075 63.8973 30.0169 64.406 30.0169 64.938V71H28.8549V61.004H30.7169L33.7969 69.194H33.8529L36.9889 61.004H38.8369V71H37.5909V64.854C37.5909 64.3687 37.6002 63.888 37.6189 63.412C37.6469 62.936 37.6702 62.5487 37.6889 62.25H37.6329L34.3009 71H33.2649ZM44.006 63.356C44.65 63.356 45.2007 63.496 45.658 63.776C46.1247 64.056 46.4794 64.4527 46.722 64.966C46.974 65.47 47.1 66.0627 47.1 66.744V67.486H41.962C41.9807 68.3353 42.1954 68.984 42.606 69.432C43.026 69.8707 43.6094 70.09 44.356 70.09C44.832 70.09 45.252 70.048 45.616 69.964C45.9894 69.8707 46.372 69.74 46.764 69.572V70.65C46.3814 70.818 46.0034 70.9393 45.63 71.014C45.2567 71.098 44.8134 71.14 44.3 71.14C43.5907 71.14 42.9607 70.9953 42.41 70.706C41.8687 70.4167 41.444 69.9873 41.136 69.418C40.8374 68.8393 40.688 68.1347 40.688 67.304C40.688 66.4827 40.8234 65.778 41.094 65.19C41.374 64.602 41.7614 64.1493 42.256 63.832C42.76 63.5147 43.3434 63.356 44.006 63.356ZM43.992 64.364C43.404 64.364 42.9374 64.5553 42.592 64.938C42.256 65.3113 42.0554 65.834 41.99 66.506H45.812C45.8027 65.8713 45.6534 65.358 45.364 64.966C45.0747 64.5647 44.6174 64.364 43.992 64.364ZM51.2364 70.132C51.4231 70.132 51.6144 70.118 51.8104 70.09C52.0064 70.0527 52.1651 70.0153 52.2864 69.978V70.916C52.1557 70.9813 51.9691 71.0327 51.7264 71.07C51.4837 71.1167 51.2504 71.14 51.0264 71.14C50.6344 71.14 50.2704 71.0747 49.9344 70.944C49.6077 70.804 49.3417 70.566 49.1364 70.23C48.9311 69.894 48.8284 69.4227 48.8284 68.816V64.448H47.7644V63.86L48.8424 63.37L49.3324 61.774H50.0604V63.496H52.2304V64.448H50.0604V68.788C50.0604 69.2453 50.1677 69.586 50.3824 69.81C50.6064 70.0247 50.8911 70.132 51.2364 70.132ZM54.741 63.482C54.741 63.8553 54.7177 64.2053 54.671 64.532H54.755C54.9977 64.1493 55.3243 63.86 55.735 63.664C56.155 63.468 56.6077 63.37 57.093 63.37C58.0077 63.37 58.6937 63.5893 59.151 64.028C59.6083 64.4573 59.837 65.1527 59.837 66.114V71H58.619V66.198C58.619 64.994 58.059 64.392 56.939 64.392C56.099 64.392 55.5203 64.63 55.203 65.106C54.895 65.5727 54.741 66.2447 54.741 67.122V71H53.509V60.36H54.741V63.482ZM68.4073 67.234C68.4073 68.4753 68.0899 69.4367 67.4553 70.118C66.8299 70.7993 65.9806 71.14 64.9073 71.14C64.2446 71.14 63.6519 70.9907 63.1293 70.692C62.6159 70.384 62.2099 69.9407 61.9113 69.362C61.6126 68.774 61.4633 68.0647 61.4633 67.234C61.4633 65.9927 61.7759 65.036 62.4013 64.364C63.0266 63.692 63.8759 63.356 64.9493 63.356C65.6306 63.356 66.2279 63.51 66.7413 63.818C67.264 64.1167 67.67 64.5553 67.9593 65.134C68.2579 65.7033 68.4073 66.4033 68.4073 67.234ZM62.7373 67.234C62.7373 68.1207 62.9099 68.8253 63.2553 69.348C63.6099 69.8613 64.1699 70.118 64.9353 70.118C65.6913 70.118 66.2466 69.8613 66.6013 69.348C66.9559 68.8253 67.1333 68.1207 67.1333 67.234C67.1333 66.3473 66.9559 65.652 66.6013 65.148C66.2466 64.644 65.6866 64.392 64.9213 64.392C64.1559 64.392 63.6006 64.644 63.2553 65.148C62.9099 65.652 62.7373 66.3473 62.7373 67.234ZM72.7398 71.14C71.8065 71.14 71.0598 70.818 70.4998 70.174C69.9398 69.5207 69.6598 68.55 69.6598 67.262C69.6598 65.974 69.9398 65.0033 70.4998 64.35C71.0692 63.6873 71.8205 63.356 72.7538 63.356C73.3325 63.356 73.8038 63.4633 74.1678 63.678C74.5412 63.8927 74.8445 64.154 75.0778 64.462H75.1618C75.1525 64.3407 75.1338 64.1633 75.1058 63.93C75.0872 63.6873 75.0778 63.496 75.0778 63.356V60.36H76.3098V71H75.3158L75.1338 69.992H75.0778C74.8538 70.3093 74.5552 70.58 74.1818 70.804C73.8085 71.028 73.3278 71.14 72.7398 71.14ZM72.9358 70.118C73.7292 70.118 74.2845 69.9033 74.6018 69.474C74.9285 69.0353 75.0918 68.3773 75.0918 67.5V67.276C75.0918 66.3427 74.9378 65.6287 74.6298 65.134C74.3218 64.63 73.7525 64.378 72.9218 64.378C72.2592 64.378 71.7598 64.644 71.4238 65.176C71.0972 65.6987 70.9338 66.4033 70.9338 67.29C70.9338 68.186 71.0972 68.8813 71.4238 69.376C71.7598 69.8707 72.2638 70.118 72.9358 70.118ZM45.4494 90L44.2454 86.906H40.2834L39.0934 90H37.8194L41.7254 79.962H42.8594L46.7514 90H45.4494ZM42.7474 82.762C42.7194 82.6873 42.6727 82.552 42.6074 82.356C42.5421 82.16 42.4767 81.9593 42.4114 81.754C42.3554 81.5393 42.3087 81.376 42.2714 81.264C42.2061 81.5533 42.1314 81.838 42.0474 82.118C41.9634 82.3887 41.8934 82.6033 41.8374 82.762L40.7034 85.786H43.8674L42.7474 82.762ZM51.1708 82.356C51.3108 82.356 51.4602 82.3653 51.6188 82.384C51.7868 82.3933 51.9315 82.412 52.0528 82.44L51.8988 83.574C51.7775 83.546 51.6422 83.5227 51.4928 83.504C51.3528 83.4853 51.2175 83.476 51.0868 83.476C50.7042 83.476 50.3448 83.5833 50.0088 83.798C49.6728 84.0033 49.4022 84.2973 49.1968 84.68C49.0008 85.0533 48.9028 85.492 48.9028 85.996V90H47.6708V82.496H48.6788L48.8188 83.868H48.8748C49.1175 83.4573 49.4302 83.1027 49.8128 82.804C50.1955 82.5053 50.6482 82.356 51.1708 82.356ZM55.7986 82.356C56.4426 82.356 56.9933 82.496 57.4506 82.776C57.9173 83.056 58.2719 83.4527 58.5146 83.966C58.7666 84.47 58.8926 85.0627 58.8926 85.744V86.486H53.7546C53.7733 87.3353 53.9879 87.984 54.3986 88.432C54.8186 88.8707 55.4019 89.09 56.1486 89.09C56.6246 89.09 57.0446 89.048 57.4086 88.964C57.7819 88.8707 58.1646 88.74 58.5566 88.572V89.65C58.1739 89.818 57.7959 89.9393 57.4226 90.014C57.0493 90.098 56.6059 90.14 56.0926 90.14C55.3833 90.14 54.7533 89.9953 54.2026 89.706C53.6613 89.4167 53.2366 88.9873 52.9286 88.418C52.6299 87.8393 52.4806 87.1347 52.4806 86.304C52.4806 85.4827 52.6159 84.778 52.8866 84.19C53.1666 83.602 53.5539 83.1493 54.0486 82.832C54.5526 82.5147 55.1359 82.356 55.7986 82.356ZM55.7846 83.364C55.1966 83.364 54.7299 83.5553 54.3846 83.938C54.0486 84.3113 53.8479 84.834 53.7826 85.506H57.6046C57.5953 84.8713 57.4459 84.358 57.1566 83.966C56.8673 83.5647 56.4099 83.364 55.7846 83.364ZM63.3649 82.37C64.2796 82.37 64.9563 82.5707 65.3949 82.972C65.8336 83.3733 66.0529 84.0127 66.0529 84.89V90H65.1569L64.9189 88.936H64.8629C64.5363 89.3467 64.1909 89.65 63.8269 89.846C63.4723 90.042 62.9776 90.14 62.3429 90.14C61.6616 90.14 61.0969 89.9627 60.6489 89.608C60.2009 89.244 59.9769 88.6793 59.9769 87.914C59.9769 87.1673 60.2709 86.5933 60.8589 86.192C61.4469 85.7813 62.3523 85.5573 63.5749 85.52L64.8489 85.478V85.03C64.8489 84.4047 64.7136 83.9707 64.4429 83.728C64.1723 83.4853 63.7896 83.364 63.2949 83.364C62.9029 83.364 62.5296 83.4247 62.1749 83.546C61.8203 83.658 61.4889 83.7887 61.1809 83.938L60.8029 83.014C61.1296 82.8367 61.5169 82.6873 61.9649 82.566C62.4129 82.4353 62.8796 82.37 63.3649 82.37ZM63.7289 86.374C62.7956 86.4113 62.1469 86.5607 61.7829 86.822C61.4283 87.0833 61.2509 87.452 61.2509 87.928C61.2509 88.348 61.3769 88.656 61.6289 88.852C61.8903 89.048 62.2216 89.146 62.6229 89.146C63.2576 89.146 63.7849 88.9733 64.2049 88.628C64.6249 88.2733 64.8349 87.732 64.8349 87.004V86.332L63.7289 86.374Z" fill="#2F2D44"/>
<path d="M123.052 71H121.792V66.338H116.668V71H115.408V61.004H116.668V65.232H121.792V61.004H123.052V71ZM128.235 63.356C128.879 63.356 129.43 63.496 129.887 63.776C130.354 64.056 130.708 64.4527 130.951 64.966C131.203 65.47 131.329 66.0627 131.329 66.744V67.486H126.191C126.21 68.3353 126.424 68.984 126.835 69.432C127.255 69.8707 127.838 70.09 128.585 70.09C129.061 70.09 129.481 70.048 129.845 69.964C130.218 69.8707 130.601 69.74 130.993 69.572V70.65C130.61 70.818 130.232 70.9393 129.859 71.014C129.486 71.098 129.042 71.14 128.529 71.14C127.82 71.14 127.19 70.9953 126.639 70.706C126.098 70.4167 125.673 69.9873 125.365 69.418C125.066 68.8393 124.917 68.1347 124.917 67.304C124.917 66.4827 125.052 65.778 125.323 65.19C125.603 64.602 125.99 64.1493 126.485 63.832C126.989 63.5147 127.572 63.356 128.235 63.356ZM128.221 64.364C127.633 64.364 127.166 64.5553 126.821 64.938C126.485 65.3113 126.284 65.834 126.219 66.506H130.041C130.032 65.8713 129.882 65.358 129.593 64.966C129.304 64.5647 128.846 64.364 128.221 64.364ZM135.801 63.37C136.716 63.37 137.393 63.5707 137.831 63.972C138.27 64.3733 138.489 65.0127 138.489 65.89V71H137.593L137.355 69.936H137.299C136.973 70.3467 136.627 70.65 136.263 70.846C135.909 71.042 135.414 71.14 134.779 71.14C134.098 71.14 133.533 70.9627 133.085 70.608C132.637 70.244 132.413 69.6793 132.413 68.914C132.413 68.1673 132.707 67.5933 133.295 67.192C133.883 66.7813 134.789 66.5573 136.011 66.52L137.285 66.478V66.03C137.285 65.4047 137.15 64.9707 136.879 64.728C136.609 64.4853 136.226 64.364 135.731 64.364C135.339 64.364 134.966 64.4247 134.611 64.546C134.257 64.658 133.925 64.7887 133.617 64.938L133.239 64.014C133.566 63.8367 133.953 63.6873 134.401 63.566C134.849 63.4353 135.316 63.37 135.801 63.37ZM136.165 67.374C135.232 67.4113 134.583 67.5607 134.219 67.822C133.865 68.0833 133.687 68.452 133.687 68.928C133.687 69.348 133.813 69.656 134.065 69.852C134.327 70.048 134.658 70.146 135.059 70.146C135.694 70.146 136.221 69.9733 136.641 69.628C137.061 69.2733 137.271 68.732 137.271 68.004V67.332L136.165 67.374ZM144.097 63.356C145.021 63.356 145.763 63.678 146.323 64.322C146.892 64.966 147.177 65.9367 147.177 67.234C147.177 68.5127 146.892 69.4833 146.323 70.146C145.763 70.8087 145.016 71.14 144.083 71.14C143.504 71.14 143.024 71.0327 142.641 70.818C142.268 70.594 141.974 70.3373 141.759 70.048H141.675C141.694 70.2067 141.712 70.4073 141.731 70.65C141.75 70.8927 141.759 71.1027 141.759 71.28V74.36H140.527V63.496H141.535L141.703 64.518H141.759C141.983 64.1913 142.277 63.916 142.641 63.692C143.005 63.468 143.49 63.356 144.097 63.356ZM143.873 64.392C143.108 64.392 142.566 64.6067 142.249 65.036C141.941 65.4653 141.778 66.1187 141.759 66.996V67.234C141.759 68.158 141.908 68.872 142.207 69.376C142.515 69.8707 143.08 70.118 143.901 70.118C144.358 70.118 144.732 69.992 145.021 69.74C145.32 69.488 145.539 69.1473 145.679 68.718C145.828 68.2793 145.903 67.78 145.903 67.22C145.903 66.3613 145.735 65.6753 145.399 65.162C145.072 64.6487 144.564 64.392 143.873 64.392ZM123.949 90L122.745 86.906H118.783L117.593 90H116.319L120.225 79.962H121.359L125.251 90H123.949ZM121.247 82.762C121.219 82.6873 121.173 82.552 121.107 82.356C121.042 82.16 120.977 81.9593 120.911 81.754C120.855 81.5393 120.809 81.376 120.771 81.264C120.706 81.5533 120.631 81.838 120.547 82.118C120.463 82.3887 120.393 82.6033 120.337 82.762L119.203 85.786H122.367L121.247 82.762ZM129.671 82.356C129.811 82.356 129.96 82.3653 130.119 82.384C130.287 82.3933 130.431 82.412 130.553 82.44L130.399 83.574C130.277 83.546 130.142 83.5227 129.993 83.504C129.853 83.4853 129.717 83.476 129.587 83.476C129.204 83.476 128.845 83.5833 128.509 83.798C128.173 84.0033 127.902 84.2973 127.697 84.68C127.501 85.0533 127.403 85.492 127.403 85.996V90H126.171V82.496H127.179L127.319 83.868H127.375C127.617 83.4573 127.93 83.1027 128.313 82.804C128.695 82.5053 129.148 82.356 129.671 82.356ZM134.299 82.356C134.943 82.356 135.493 82.496 135.951 82.776C136.417 83.056 136.772 83.4527 137.015 83.966C137.267 84.47 137.393 85.0627 137.393 85.744V86.486H132.255C132.273 87.3353 132.488 87.984 132.899 88.432C133.319 88.8707 133.902 89.09 134.649 89.09C135.125 89.09 135.545 89.048 135.909 88.964C136.282 88.8707 136.665 88.74 137.057 88.572V89.65C136.674 89.818 136.296 89.9393 135.923 90.014C135.549 90.098 135.106 90.14 134.593 90.14C133.883 90.14 133.253 89.9953 132.703 89.706C132.161 89.4167 131.737 88.9873 131.429 88.418C131.13 87.8393 130.981 87.1347 130.981 86.304C130.981 85.4827 131.116 84.778 131.387 84.19C131.667 83.602 132.054 83.1493 132.549 82.832C133.053 82.5147 133.636 82.356 134.299 82.356ZM134.285 83.364C133.697 83.364 133.23 83.5553 132.885 83.938C132.549 84.3113 132.348 84.834 132.283 85.506H136.105C136.095 84.8713 135.946 84.358 135.657 83.966C135.367 83.5647 134.91 83.364 134.285 83.364ZM141.865 82.37C142.78 82.37 143.456 82.5707 143.895 82.972C144.334 83.3733 144.553 84.0127 144.553 84.89V90H143.657L143.419 88.936H143.363C143.036 89.3467 142.691 89.65 142.327 89.846C141.972 90.042 141.478 90.14 140.843 90.14C140.162 90.14 139.597 89.9627 139.149 89.608C138.701 89.244 138.477 88.6793 138.477 87.914C138.477 87.1673 138.771 86.5933 139.359 86.192C139.947 85.7813 140.852 85.5573 142.075 85.52L143.349 85.478V85.03C143.349 84.4047 143.214 83.9707 142.943 83.728C142.672 83.4853 142.29 83.364 141.795 83.364C141.403 83.364 141.03 83.4247 140.675 83.546C140.32 83.658 139.989 83.7887 139.681 83.938L139.303 83.014C139.63 82.8367 140.017 82.6873 140.465 82.566C140.913 82.4353 141.38 82.37 141.865 82.37ZM142.229 86.374C141.296 86.4113 140.647 86.5607 140.283 86.822C139.928 87.0833 139.751 87.452 139.751 87.928C139.751 88.348 139.877 88.656 140.129 88.852C140.39 89.048 140.722 89.146 141.123 89.146C141.758 89.146 142.285 88.9733 142.705 88.628C143.125 88.2733 143.335 87.732 143.335 87.004V86.332L142.229 86.374Z" fill="#2F2D44"/>
<path d="M200.191 68.326C200.191 69.2127 199.869 69.9033 199.225 70.398C198.581 70.8927 197.713 71.14 196.621 71.14C196.061 71.14 195.543 71.098 195.067 71.014C194.591 70.93 194.194 70.8133 193.877 70.664V69.46C194.213 69.6093 194.628 69.7447 195.123 69.866C195.627 69.9873 196.145 70.048 196.677 70.048C197.423 70.048 197.983 69.9033 198.357 69.614C198.739 69.3247 198.931 68.9327 198.931 68.438C198.931 68.1113 198.861 67.836 198.721 67.612C198.581 67.388 198.338 67.1827 197.993 66.996C197.657 66.8 197.185 66.5947 196.579 66.38C195.729 66.072 195.085 65.694 194.647 65.246C194.217 64.798 194.003 64.1867 194.003 63.412C194.003 62.88 194.138 62.4273 194.409 62.054C194.679 61.6713 195.053 61.3773 195.529 61.172C196.014 60.9667 196.569 60.864 197.195 60.864C197.745 60.864 198.249 60.9153 198.707 61.018C199.164 61.1207 199.579 61.256 199.953 61.424L199.561 62.502C199.215 62.3527 198.837 62.2267 198.427 62.124C198.025 62.0213 197.605 61.97 197.167 61.97C196.541 61.97 196.07 62.1053 195.753 62.376C195.435 62.6373 195.277 62.9873 195.277 63.426C195.277 63.762 195.347 64.042 195.487 64.266C195.627 64.49 195.855 64.6907 196.173 64.868C196.49 65.0453 196.919 65.2367 197.461 65.442C198.049 65.6567 198.543 65.89 198.945 66.142C199.355 66.3847 199.663 66.6787 199.869 67.024C200.083 67.3693 200.191 67.8033 200.191 68.326ZM204.262 70.132C204.449 70.132 204.64 70.118 204.836 70.09C205.032 70.0527 205.191 70.0153 205.312 69.978V70.916C205.181 70.9813 204.995 71.0327 204.752 71.07C204.509 71.1167 204.276 71.14 204.052 71.14C203.66 71.14 203.296 71.0747 202.96 70.944C202.633 70.804 202.367 70.566 202.162 70.23C201.957 69.894 201.854 69.4227 201.854 68.816V64.448H200.79V63.86L201.868 63.37L202.358 61.774H203.086V63.496H205.256V64.448H203.086V68.788C203.086 69.2453 203.193 69.586 203.408 69.81C203.632 70.0247 203.917 70.132 204.262 70.132ZM209.377 63.37C210.291 63.37 210.968 63.5707 211.407 63.972C211.845 64.3733 212.065 65.0127 212.065 65.89V71H211.169L210.931 69.936H210.875C210.548 70.3467 210.203 70.65 209.839 70.846C209.484 71.042 208.989 71.14 208.355 71.14C207.673 71.14 207.109 70.9627 206.661 70.608C206.213 70.244 205.989 69.6793 205.989 68.914C205.989 68.1673 206.283 67.5933 206.871 67.192C207.459 66.7813 208.364 66.5573 209.587 66.52L210.861 66.478V66.03C210.861 65.4047 210.725 64.9707 210.455 64.728C210.184 64.4853 209.801 64.364 209.307 64.364C208.915 64.364 208.541 64.4247 208.187 64.546C207.832 64.658 207.501 64.7887 207.193 64.938L206.815 64.014C207.141 63.8367 207.529 63.6873 207.977 63.566C208.425 63.4353 208.891 63.37 209.377 63.37ZM209.741 67.374C208.807 67.4113 208.159 67.5607 207.795 67.822C207.44 68.0833 207.263 68.452 207.263 68.928C207.263 69.348 207.389 69.656 207.641 69.852C207.902 70.048 208.233 70.146 208.635 70.146C209.269 70.146 209.797 69.9733 210.217 69.628C210.637 69.2733 210.847 68.732 210.847 68.004V67.332L209.741 67.374ZM217.112 71.14C216.45 71.14 215.857 71.0047 215.334 70.734C214.821 70.4633 214.415 70.0433 214.116 69.474C213.827 68.9047 213.682 68.1767 213.682 67.29C213.682 66.366 213.836 65.6147 214.144 65.036C214.452 64.4573 214.868 64.0327 215.39 63.762C215.922 63.4913 216.524 63.356 217.196 63.356C217.579 63.356 217.948 63.398 218.302 63.482C218.657 63.5567 218.946 63.65 219.17 63.762L218.792 64.784C218.568 64.7 218.307 64.6207 218.008 64.546C217.71 64.4713 217.43 64.434 217.168 64.434C215.694 64.434 214.956 65.3813 214.956 67.276C214.956 68.1813 215.134 68.8767 215.488 69.362C215.852 69.838 216.389 70.076 217.098 70.076C217.509 70.076 217.868 70.034 218.176 69.95C218.494 69.866 218.783 69.7633 219.044 69.642V70.734C218.792 70.8647 218.512 70.9627 218.204 71.028C217.906 71.1027 217.542 71.14 217.112 71.14ZM221.767 65.918C221.767 66.0673 221.758 66.2633 221.739 66.506C221.73 66.7487 221.72 66.9587 221.711 67.136H221.767C221.823 67.0613 221.907 66.954 222.019 66.814C222.131 66.674 222.243 66.534 222.355 66.394C222.476 66.2447 222.579 66.1233 222.663 66.03L225.057 63.496H226.499L223.461 66.702L226.709 71H225.225L222.621 67.5L221.767 68.242V71H220.549V60.36H221.767V65.918ZM202.949 90L201.745 86.906H197.783L196.593 90H195.319L199.225 79.962H200.359L204.251 90H202.949ZM200.247 82.762C200.219 82.6873 200.173 82.552 200.107 82.356C200.042 82.16 199.977 81.9593 199.911 81.754C199.855 81.5393 199.809 81.376 199.771 81.264C199.706 81.5533 199.631 81.838 199.547 82.118C199.463 82.3887 199.393 82.6033 199.337 82.762L198.203 85.786H201.367L200.247 82.762ZM208.671 82.356C208.811 82.356 208.96 82.3653 209.119 82.384C209.287 82.3933 209.431 82.412 209.553 82.44L209.399 83.574C209.277 83.546 209.142 83.5227 208.993 83.504C208.853 83.4853 208.717 83.476 208.587 83.476C208.204 83.476 207.845 83.5833 207.509 83.798C207.173 84.0033 206.902 84.2973 206.697 84.68C206.501 85.0533 206.403 85.492 206.403 85.996V90H205.171V82.496H206.179L206.319 83.868H206.375C206.617 83.4573 206.93 83.1027 207.313 82.804C207.695 82.5053 208.148 82.356 208.671 82.356ZM213.299 82.356C213.943 82.356 214.493 82.496 214.951 82.776C215.417 83.056 215.772 83.4527 216.015 83.966C216.267 84.47 216.393 85.0627 216.393 85.744V86.486H211.255C211.273 87.3353 211.488 87.984 211.899 88.432C212.319 88.8707 212.902 89.09 213.649 89.09C214.125 89.09 214.545 89.048 214.909 88.964C215.282 88.8707 215.665 88.74 216.057 88.572V89.65C215.674 89.818 215.296 89.9393 214.923 90.014C214.549 90.098 214.106 90.14 213.593 90.14C212.883 90.14 212.253 89.9953 211.703 89.706C211.161 89.4167 210.737 88.9873 210.429 88.418C210.13 87.8393 209.981 87.1347 209.981 86.304C209.981 85.4827 210.116 84.778 210.387 84.19C210.667 83.602 211.054 83.1493 211.549 82.832C212.053 82.5147 212.636 82.356 213.299 82.356ZM213.285 83.364C212.697 83.364 212.23 83.5553 211.885 83.938C211.549 84.3113 211.348 84.834 211.283 85.506H215.105C215.095 84.8713 214.946 84.358 214.657 83.966C214.367 83.5647 213.91 83.364 213.285 83.364ZM220.865 82.37C221.78 82.37 222.456 82.5707 222.895 82.972C223.334 83.3733 223.553 84.0127 223.553 84.89V90H222.657L222.419 88.936H222.363C222.036 89.3467 221.691 89.65 221.327 89.846C220.972 90.042 220.478 90.14 219.843 90.14C219.162 90.14 218.597 89.9627 218.149 89.608C217.701 89.244 217.477 88.6793 217.477 87.914C217.477 87.1673 217.771 86.5933 218.359 86.192C218.947 85.7813 219.852 85.5573 221.075 85.52L222.349 85.478V85.03C222.349 84.4047 222.214 83.9707 221.943 83.728C221.672 83.4853 221.29 83.364 220.795 83.364C220.403 83.364 220.03 83.4247 219.675 83.546C219.32 83.658 218.989 83.7887 218.681 83.938L218.303 83.014C218.63 82.8367 219.017 82.6873 219.465 82.566C219.913 82.4353 220.38 82.37 220.865 82.37ZM221.229 86.374C220.296 86.4113 219.647 86.5607 219.283 86.822C218.928 87.0833 218.751 87.452 218.751 87.928C218.751 88.348 218.877 88.656 219.129 88.852C219.39 89.048 219.722 89.146 220.123 89.146C220.758 89.146 221.285 88.9733 221.705 88.628C222.125 88.2733 222.335 87.732 222.335 87.004V86.332L221.229 86.374Z" fill="#2F2D44"/>
<path d="M284.483 61.004C285.79 61.004 286.742 61.2607 287.339 61.774C287.936 62.2873 288.235 63.0107 288.235 63.944C288.235 64.4947 288.109 65.0127 287.857 65.498C287.614 65.974 287.199 66.3613 286.611 66.66C286.032 66.9587 285.244 67.108 284.245 67.108H283.097V71H281.837V61.004H284.483ZM284.371 62.082H283.097V66.03H284.105C285.057 66.03 285.766 65.876 286.233 65.568C286.7 65.26 286.933 64.7373 286.933 64C286.933 63.356 286.728 62.8753 286.317 62.558C285.906 62.2407 285.258 62.082 284.371 62.082ZM294.317 61.97C293.244 61.97 292.399 62.3293 291.783 63.048C291.167 63.7667 290.859 64.7513 290.859 66.002C290.859 67.2433 291.144 68.228 291.713 68.956C292.292 69.6747 293.155 70.034 294.303 70.034C294.742 70.034 295.157 69.9967 295.549 69.922C295.941 69.8473 296.324 69.754 296.697 69.642V70.734C296.324 70.874 295.937 70.9767 295.535 71.042C295.143 71.1073 294.672 71.14 294.121 71.14C293.104 71.14 292.255 70.93 291.573 70.51C290.892 70.09 290.379 69.4927 290.033 68.718C289.697 67.9433 289.529 67.0333 289.529 65.988C289.529 64.98 289.711 64.0933 290.075 63.328C290.449 62.5533 290.995 61.9513 291.713 61.522C292.432 61.0833 293.305 60.864 294.331 60.864C295.386 60.864 296.305 61.06 297.089 61.452L296.585 62.516C296.277 62.376 295.932 62.25 295.549 62.138C295.176 62.026 294.765 61.97 294.317 61.97ZM269.131 82.356C269.271 82.356 269.42 82.3653 269.579 82.384C269.747 82.3933 269.892 82.412 270.013 82.44L269.859 83.574C269.738 83.546 269.602 83.5227 269.453 83.504C269.313 83.4853 269.178 83.476 269.047 83.476C268.664 83.476 268.305 83.5833 267.969 83.798C267.633 84.0033 267.362 84.2973 267.157 84.68C266.961 85.0533 266.863 85.492 266.863 85.996V90H265.631V82.496H266.639L266.779 83.868H266.835C267.078 83.4573 267.39 83.1027 267.773 82.804C268.156 82.5053 268.608 82.356 269.131 82.356ZM273.759 82.356C274.403 82.356 274.953 82.496 275.411 82.776C275.877 83.056 276.232 83.4527 276.475 83.966C276.727 84.47 276.853 85.0627 276.853 85.744V86.486H271.715C271.733 87.3353 271.948 87.984 272.359 88.432C272.779 88.8707 273.362 89.09 274.109 89.09C274.585 89.09 275.005 89.048 275.369 88.964C275.742 88.8707 276.125 88.74 276.517 88.572V89.65C276.134 89.818 275.756 89.9393 275.383 90.014C275.009 90.098 274.566 90.14 274.053 90.14C273.343 90.14 272.713 89.9953 272.163 89.706C271.621 89.4167 271.197 88.9873 270.889 88.418C270.59 87.8393 270.441 87.1347 270.441 86.304C270.441 85.4827 270.576 84.778 270.847 84.19C271.127 83.602 271.514 83.1493 272.009 82.832C272.513 82.5147 273.096 82.356 273.759 82.356ZM273.745 83.364C273.157 83.364 272.69 83.5553 272.345 83.938C272.009 84.3113 271.808 84.834 271.743 85.506H275.565C275.555 84.8713 275.406 84.358 275.117 83.966C274.827 83.5647 274.37 83.364 273.745 83.364ZM281.143 82.356C281.638 82.356 282.081 82.4493 282.473 82.636C282.874 82.8227 283.215 83.1073 283.495 83.49H283.565L283.733 82.496H284.713V90.126C284.713 91.1993 284.438 92.0067 283.887 92.548C283.346 93.0893 282.501 93.36 281.353 93.36C280.252 93.36 279.351 93.2013 278.651 92.884V91.75C279.388 92.142 280.312 92.338 281.423 92.338C282.067 92.338 282.571 92.1467 282.935 91.764C283.308 91.3907 283.495 90.8773 283.495 90.224V89.93C283.495 89.818 283.5 89.6593 283.509 89.454C283.518 89.2393 283.528 89.09 283.537 89.006H283.481C282.977 89.762 282.202 90.14 281.157 90.14C280.186 90.14 279.426 89.7993 278.875 89.118C278.334 88.4367 278.063 87.4847 278.063 86.262C278.063 85.0673 278.334 84.12 278.875 83.42C279.426 82.7107 280.182 82.356 281.143 82.356ZM281.311 83.392C280.686 83.392 280.2 83.644 279.855 84.148C279.51 84.6427 279.337 85.352 279.337 86.276C279.337 87.2 279.505 87.9093 279.841 88.404C280.186 88.8893 280.686 89.132 281.339 89.132C282.095 89.132 282.646 88.9313 282.991 88.53C283.336 88.1193 283.509 87.4613 283.509 86.556V86.262C283.509 85.2353 283.332 84.5027 282.977 84.064C282.622 83.616 282.067 83.392 281.311 83.392ZM287.446 79.682C287.633 79.682 287.796 79.7473 287.936 79.878C288.086 79.9993 288.16 80.1953 288.16 80.466C288.16 80.7273 288.086 80.9233 287.936 81.054C287.796 81.1847 287.633 81.25 287.446 81.25C287.241 81.25 287.068 81.1847 286.928 81.054C286.788 80.9233 286.718 80.7273 286.718 80.466C286.718 80.1953 286.788 79.9993 286.928 79.878C287.068 79.7473 287.241 79.682 287.446 79.682ZM288.048 82.496V90H286.816V82.496H288.048ZM295.032 87.928C295.032 88.656 294.761 89.2067 294.22 89.58C293.678 89.9533 292.95 90.14 292.036 90.14C291.513 90.14 291.06 90.098 290.678 90.014C290.304 89.93 289.973 89.8133 289.684 89.664V88.544C289.982 88.6933 290.342 88.8333 290.762 88.964C291.191 89.0853 291.625 89.146 292.064 89.146C292.689 89.146 293.142 89.048 293.422 88.852C293.702 88.6467 293.842 88.376 293.842 88.04C293.842 87.8533 293.79 87.6853 293.688 87.536C293.585 87.3867 293.398 87.2373 293.128 87.088C292.866 86.9387 292.488 86.7707 291.994 86.584C291.508 86.3973 291.093 86.2107 290.748 86.024C290.402 85.8373 290.136 85.6133 289.95 85.352C289.763 85.0907 289.67 84.7547 289.67 84.344C289.67 83.7093 289.926 83.2193 290.44 82.874C290.962 82.5287 291.644 82.356 292.484 82.356C292.941 82.356 293.366 82.4027 293.758 82.496C294.159 82.58 294.532 82.7013 294.878 82.86L294.458 83.84C294.14 83.7093 293.809 83.5973 293.464 83.504C293.118 83.4107 292.764 83.364 292.4 83.364C291.896 83.364 291.508 83.448 291.238 83.616C290.976 83.7747 290.846 83.994 290.846 84.274C290.846 84.4793 290.906 84.6567 291.028 84.806C291.149 84.946 291.35 85.086 291.63 85.226C291.919 85.3567 292.302 85.5153 292.778 85.702C293.254 85.8793 293.66 86.0613 293.996 86.248C294.332 86.4347 294.588 86.6633 294.766 86.934C294.943 87.1953 295.032 87.5267 295.032 87.928ZM299.071 89.132C299.258 89.132 299.449 89.118 299.645 89.09C299.841 89.0527 300 89.0153 300.121 88.978V89.916C299.99 89.9813 299.804 90.0327 299.561 90.07C299.318 90.1167 299.085 90.14 298.861 90.14C298.469 90.14 298.105 90.0747 297.769 89.944C297.442 89.804 297.176 89.566 296.971 89.23C296.766 88.894 296.663 88.4227 296.663 87.816V83.448H295.599V82.86L296.677 82.37L297.167 80.774H297.895V82.496H300.065V83.448H297.895V87.788C297.895 88.2453 298.002 88.586 298.217 88.81C298.441 89.0247 298.726 89.132 299.071 89.132ZM304.242 82.356C304.886 82.356 305.436 82.496 305.894 82.776C306.36 83.056 306.715 83.4527 306.958 83.966C307.21 84.47 307.336 85.0627 307.336 85.744V86.486H302.198C302.216 87.3353 302.431 87.984 302.842 88.432C303.262 88.8707 303.845 89.09 304.592 89.09C305.068 89.09 305.488 89.048 305.852 88.964C306.225 88.8707 306.608 88.74 307 88.572V89.65C306.617 89.818 306.239 89.9393 305.866 90.014C305.492 90.098 305.049 90.14 304.536 90.14C303.826 90.14 303.196 89.9953 302.646 89.706C302.104 89.4167 301.68 88.9873 301.372 88.418C301.073 87.8393 300.924 87.1347 300.924 86.304C300.924 85.4827 301.059 84.778 301.33 84.19C301.61 83.602 301.997 83.1493 302.492 82.832C302.996 82.5147 303.579 82.356 304.242 82.356ZM304.228 83.364C303.64 83.364 303.173 83.5553 302.828 83.938C302.492 84.3113 302.291 84.834 302.226 85.506H306.048C306.038 84.8713 305.889 84.358 305.6 83.966C305.31 83.5647 304.853 83.364 304.228 83.364ZM312.466 82.356C312.606 82.356 312.755 82.3653 312.914 82.384C313.082 82.3933 313.227 82.412 313.348 82.44L313.194 83.574C313.073 83.546 312.937 83.5227 312.788 83.504C312.648 83.4853 312.513 83.476 312.382 83.476C311.999 83.476 311.64 83.5833 311.304 83.798C310.968 84.0033 310.697 84.2973 310.492 84.68C310.296 85.0533 310.198 85.492 310.198 85.996V90H308.966V82.496H309.974L310.114 83.868H310.17C310.413 83.4573 310.725 83.1027 311.108 82.804C311.491 82.5053 311.943 82.356 312.466 82.356Z" fill="#2F2D44"/>
<path d="M357.4 64H355.93L350.582 55.698H350.526C350.545 56.0247 350.568 56.4307 350.596 56.916C350.624 57.4013 350.638 57.9007 350.638 58.414V64H349.476V54.004H350.932L356.266 62.278H356.322C356.313 62.1287 356.299 61.9047 356.28 61.606C356.271 61.3073 356.257 60.9807 356.238 60.626C356.229 60.2713 356.224 59.9447 356.224 59.646V54.004H357.4V64ZM362.507 56.37C363.421 56.37 364.098 56.5707 364.537 56.972C364.975 57.3733 365.195 58.0127 365.195 58.89V64H364.299L364.061 62.936H364.005C363.678 63.3467 363.333 63.65 362.969 63.846C362.614 64.042 362.119 64.14 361.485 64.14C360.803 64.14 360.239 63.9627 359.791 63.608C359.343 63.244 359.119 62.6793 359.119 61.914C359.119 61.1673 359.413 60.5933 360.001 60.192C360.589 59.7813 361.494 59.5573 362.717 59.52L363.991 59.478V59.03C363.991 58.4047 363.855 57.9707 363.585 57.728C363.314 57.4853 362.931 57.364 362.437 57.364C362.045 57.364 361.671 57.4247 361.317 57.546C360.962 57.658 360.631 57.7887 360.323 57.938L359.945 57.014C360.271 56.8367 360.659 56.6873 361.107 56.566C361.555 56.4353 362.021 56.37 362.507 56.37ZM362.871 60.374C361.937 60.4113 361.289 60.5607 360.925 60.822C360.57 61.0833 360.393 61.452 360.393 61.928C360.393 62.348 360.519 62.656 360.771 62.852C361.032 63.048 361.363 63.146 361.765 63.146C362.399 63.146 362.927 62.9733 363.347 62.628C363.767 62.2733 363.977 61.732 363.977 61.004V60.332L362.871 60.374ZM369.738 63.132C369.925 63.132 370.116 63.118 370.312 63.09C370.508 63.0527 370.667 63.0153 370.788 62.978V63.916C370.658 63.9813 370.471 64.0327 370.228 64.07C369.986 64.1167 369.752 64.14 369.528 64.14C369.136 64.14 368.772 64.0747 368.436 63.944C368.11 63.804 367.844 63.566 367.638 63.23C367.433 62.894 367.33 62.4227 367.33 61.816V57.448H366.266V56.86L367.344 56.37L367.834 54.774H368.562V56.496H370.732V57.448H368.562V61.788C368.562 62.2453 368.67 62.586 368.884 62.81C369.108 63.0247 369.393 63.132 369.738 63.132ZM372.641 53.682C372.828 53.682 372.991 53.7473 373.131 53.878C373.28 53.9993 373.355 54.1953 373.355 54.466C373.355 54.7273 373.28 54.9233 373.131 55.054C372.991 55.1847 372.828 55.25 372.641 55.25C372.436 55.25 372.263 55.1847 372.123 55.054C371.983 54.9233 371.913 54.7273 371.913 54.466C371.913 54.1953 371.983 53.9993 372.123 53.878C372.263 53.7473 372.436 53.682 372.641 53.682ZM373.243 56.496V64H372.011V56.496H373.243ZM376.992 64L374.15 56.496H375.466L377.062 60.92C377.137 61.1253 377.216 61.354 377.3 61.606C377.384 61.858 377.459 62.1007 377.524 62.334C377.59 62.558 377.636 62.7493 377.664 62.908H377.72C377.758 62.7493 377.809 62.5533 377.874 62.32C377.949 62.0867 378.028 61.844 378.112 61.592C378.206 61.34 378.285 61.116 378.35 60.92L379.946 56.496H381.262L378.406 64H376.992ZM385.068 56.356C385.712 56.356 386.262 56.496 386.72 56.776C387.186 57.056 387.541 57.4527 387.784 57.966C388.036 58.47 388.162 59.0627 388.162 59.744V60.486H383.024C383.042 61.3353 383.257 61.984 383.668 62.432C384.088 62.8707 384.671 63.09 385.418 63.09C385.894 63.09 386.314 63.048 386.678 62.964C387.051 62.8707 387.434 62.74 387.826 62.572V63.65C387.443 63.818 387.065 63.9393 386.692 64.014C386.318 64.098 385.875 64.14 385.362 64.14C384.652 64.14 384.022 63.9953 383.472 63.706C382.93 63.4167 382.506 62.9873 382.198 62.418C381.899 61.8393 381.75 61.1347 381.75 60.304C381.75 59.4827 381.885 58.778 382.156 58.19C382.436 57.602 382.823 57.1493 383.318 56.832C383.822 56.5147 384.405 56.356 385.068 56.356ZM385.054 57.364C384.466 57.364 383.999 57.5553 383.654 57.938C383.318 58.3113 383.117 58.834 383.052 59.506H386.874C386.864 58.8713 386.715 58.358 386.426 57.966C386.136 57.5647 385.679 57.364 385.054 57.364ZM349.265 80L345.975 71.236H345.919C345.947 71.5253 345.97 71.9173 345.989 72.412C346.008 72.8973 346.017 73.406 346.017 73.938V80H344.855V70.004H346.717L349.797 78.194H349.853L352.989 70.004H354.837V80H353.591V73.854C353.591 73.3687 353.6 72.888 353.619 72.412C353.647 71.936 353.67 71.5487 353.689 71.25H353.633L350.301 80H349.265ZM360.006 72.356C360.65 72.356 361.201 72.496 361.658 72.776C362.125 73.056 362.479 73.4527 362.722 73.966C362.974 74.47 363.1 75.0627 363.1 75.744V76.486H357.962C357.981 77.3353 358.195 77.984 358.606 78.432C359.026 78.8707 359.609 79.09 360.356 79.09C360.832 79.09 361.252 79.048 361.616 78.964C361.989 78.8707 362.372 78.74 362.764 78.572V79.65C362.381 79.818 362.003 79.9393 361.63 80.014C361.257 80.098 360.813 80.14 360.3 80.14C359.591 80.14 358.961 79.9953 358.41 79.706C357.869 79.4167 357.444 78.9873 357.136 78.418C356.837 77.8393 356.688 77.1347 356.688 76.304C356.688 75.4827 356.823 74.778 357.094 74.19C357.374 73.602 357.761 73.1493 358.256 72.832C358.76 72.5147 359.343 72.356 360.006 72.356ZM359.992 73.364C359.404 73.364 358.937 73.5553 358.592 73.938C358.256 74.3113 358.055 74.834 357.99 75.506H361.812C361.803 74.8713 361.653 74.358 361.364 73.966C361.075 73.5647 360.617 73.364 359.992 73.364ZM367.236 79.132C367.423 79.132 367.614 79.118 367.81 79.09C368.006 79.0527 368.165 79.0153 368.286 78.978V79.916C368.156 79.9813 367.969 80.0327 367.726 80.07C367.484 80.1167 367.25 80.14 367.026 80.14C366.634 80.14 366.27 80.0747 365.934 79.944C365.608 79.804 365.342 79.566 365.136 79.23C364.931 78.894 364.828 78.4227 364.828 77.816V73.448H363.764V72.86L364.842 72.37L365.332 70.774H366.06V72.496H368.23V73.448H366.06V77.788C366.06 78.2453 366.168 78.586 366.382 78.81C366.606 79.0247 366.891 79.132 367.236 79.132ZM370.741 72.482C370.741 72.8553 370.718 73.2053 370.671 73.532H370.755C370.998 73.1493 371.324 72.86 371.735 72.664C372.155 72.468 372.608 72.37 373.093 72.37C374.008 72.37 374.694 72.5893 375.151 73.028C375.608 73.4573 375.837 74.1527 375.837 75.114V80H374.619V75.198C374.619 73.994 374.059 73.392 372.939 73.392C372.099 73.392 371.52 73.63 371.203 74.106C370.895 74.5727 370.741 75.2447 370.741 76.122V80H369.509V69.36H370.741V72.482ZM384.407 76.234C384.407 77.4753 384.09 78.4367 383.455 79.118C382.83 79.7993 381.981 80.14 380.907 80.14C380.245 80.14 379.652 79.9907 379.129 79.692C378.616 79.384 378.21 78.9407 377.911 78.362C377.613 77.774 377.463 77.0647 377.463 76.234C377.463 74.9927 377.776 74.036 378.401 73.364C379.027 72.692 379.876 72.356 380.949 72.356C381.631 72.356 382.228 72.51 382.741 72.818C383.264 73.1167 383.67 73.5553 383.959 74.134C384.258 74.7033 384.407 75.4033 384.407 76.234ZM378.737 76.234C378.737 77.1207 378.91 77.8253 379.255 78.348C379.61 78.8613 380.17 79.118 380.935 79.118C381.691 79.118 382.247 78.8613 382.601 78.348C382.956 77.8253 383.133 77.1207 383.133 76.234C383.133 75.3473 382.956 74.652 382.601 74.148C382.247 73.644 381.687 73.392 380.921 73.392C380.156 73.392 379.601 73.644 379.255 74.148C378.91 74.652 378.737 75.3473 378.737 76.234ZM388.74 80.14C387.807 80.14 387.06 79.818 386.5 79.174C385.94 78.5207 385.66 77.55 385.66 76.262C385.66 74.974 385.94 74.0033 386.5 73.35C387.069 72.6873 387.821 72.356 388.754 72.356C389.333 72.356 389.804 72.4633 390.168 72.678C390.541 72.8927 390.845 73.154 391.078 73.462H391.162C391.153 73.3407 391.134 73.1633 391.106 72.93C391.087 72.6873 391.078 72.496 391.078 72.356V69.36H392.31V80H391.316L391.134 78.992H391.078C390.854 79.3093 390.555 79.58 390.182 79.804C389.809 80.028 389.328 80.14 388.74 80.14ZM388.936 79.118C389.729 79.118 390.285 78.9033 390.602 78.474C390.929 78.0353 391.092 77.3773 391.092 76.5V76.276C391.092 75.3427 390.938 74.6287 390.63 74.134C390.322 73.63 389.753 73.378 388.922 73.378C388.259 73.378 387.76 73.644 387.424 74.176C387.097 74.6987 386.934 75.4033 386.934 76.29C386.934 77.186 387.097 77.8813 387.424 78.376C387.76 78.8707 388.264 79.118 388.936 79.118ZM358.691 93.326C358.691 94.2127 358.369 94.9033 357.725 95.398C357.081 95.8927 356.213 96.14 355.121 96.14C354.561 96.14 354.043 96.098 353.567 96.014C353.091 95.93 352.694 95.8133 352.377 95.664V94.46C352.713 94.6093 353.128 94.7447 353.623 94.866C354.127 94.9873 354.645 95.048 355.177 95.048C355.923 95.048 356.483 94.9033 356.857 94.614C357.239 94.3247 357.431 93.9327 357.431 93.438C357.431 93.1113 357.361 92.836 357.221 92.612C357.081 92.388 356.838 92.1827 356.493 91.996C356.157 91.8 355.685 91.5947 355.079 91.38C354.229 91.072 353.585 90.694 353.147 90.246C352.717 89.798 352.503 89.1867 352.503 88.412C352.503 87.88 352.638 87.4273 352.909 87.054C353.179 86.6713 353.553 86.3773 354.029 86.172C354.514 85.9667 355.069 85.864 355.695 85.864C356.245 85.864 356.749 85.9153 357.207 86.018C357.664 86.1207 358.079 86.256 358.453 86.424L358.061 87.502C357.715 87.3527 357.337 87.2267 356.927 87.124C356.525 87.0213 356.105 86.97 355.667 86.97C355.041 86.97 354.57 87.1053 354.253 87.376C353.935 87.6373 353.777 87.9873 353.777 88.426C353.777 88.762 353.847 89.042 353.987 89.266C354.127 89.49 354.355 89.6907 354.673 89.868C354.99 90.0453 355.419 90.2367 355.961 90.442C356.549 90.6567 357.043 90.89 357.445 91.142C357.855 91.3847 358.163 91.6787 358.369 92.024C358.583 92.3693 358.691 92.8033 358.691 93.326ZM362.762 95.132C362.949 95.132 363.14 95.118 363.336 95.09C363.532 95.0527 363.691 95.0153 363.812 94.978V95.916C363.681 95.9813 363.495 96.0327 363.252 96.07C363.009 96.1167 362.776 96.14 362.552 96.14C362.16 96.14 361.796 96.0747 361.46 95.944C361.133 95.804 360.867 95.566 360.662 95.23C360.457 94.894 360.354 94.4227 360.354 93.816V89.448H359.29V88.86L360.368 88.37L360.858 86.774H361.586V88.496H363.756V89.448H361.586V93.788C361.586 94.2453 361.693 94.586 361.908 94.81C362.132 95.0247 362.417 95.132 362.762 95.132ZM367.877 88.37C368.791 88.37 369.468 88.5707 369.907 88.972C370.345 89.3733 370.565 90.0127 370.565 90.89V96H369.669L369.431 94.936H369.375C369.048 95.3467 368.703 95.65 368.339 95.846C367.984 96.042 367.489 96.14 366.855 96.14C366.173 96.14 365.609 95.9627 365.161 95.608C364.713 95.244 364.489 94.6793 364.489 93.914C364.489 93.1673 364.783 92.5933 365.371 92.192C365.959 91.7813 366.864 91.5573 368.087 91.52L369.361 91.478V91.03C369.361 90.4047 369.225 89.9707 368.955 89.728C368.684 89.4853 368.301 89.364 367.807 89.364C367.415 89.364 367.041 89.4247 366.687 89.546C366.332 89.658 366.001 89.7887 365.693 89.938L365.315 89.014C365.641 88.8367 366.029 88.6873 366.477 88.566C366.925 88.4353 367.391 88.37 367.877 88.37ZM368.241 92.374C367.307 92.4113 366.659 92.5607 366.295 92.822C365.94 93.0833 365.763 93.452 365.763 93.928C365.763 94.348 365.889 94.656 366.141 94.852C366.402 95.048 366.733 95.146 367.135 95.146C367.769 95.146 368.297 94.9733 368.717 94.628C369.137 94.2733 369.347 93.732 369.347 93.004V92.332L368.241 92.374ZM375.612 96.14C374.95 96.14 374.357 96.0047 373.834 95.734C373.321 95.4633 372.915 95.0433 372.616 94.474C372.327 93.9047 372.182 93.1767 372.182 92.29C372.182 91.366 372.336 90.6147 372.644 90.036C372.952 89.4573 373.368 89.0327 373.89 88.762C374.422 88.4913 375.024 88.356 375.696 88.356C376.079 88.356 376.448 88.398 376.802 88.482C377.157 88.5567 377.446 88.65 377.67 88.762L377.292 89.784C377.068 89.7 376.807 89.6207 376.508 89.546C376.21 89.4713 375.93 89.434 375.668 89.434C374.194 89.434 373.456 90.3813 373.456 92.276C373.456 93.1813 373.634 93.8767 373.988 94.362C374.352 94.838 374.889 95.076 375.598 95.076C376.009 95.076 376.368 95.034 376.676 94.95C376.994 94.866 377.283 94.7633 377.544 94.642V95.734C377.292 95.8647 377.012 95.9627 376.704 96.028C376.406 96.1027 376.042 96.14 375.612 96.14ZM380.267 90.918C380.267 91.0673 380.258 91.2633 380.239 91.506C380.23 91.7487 380.22 91.9587 380.211 92.136H380.267C380.323 92.0613 380.407 91.954 380.519 91.814C380.631 91.674 380.743 91.534 380.855 91.394C380.976 91.2447 381.079 91.1233 381.163 91.03L383.557 88.496H384.999L381.961 91.702L385.209 96H383.725L381.121 92.5L380.267 93.242V96H379.049V85.36H380.267V90.918Z" fill="#2F2D44"/>
</svg>
