<svg width="220" height="220" viewBox="0 0 220 220" fill="none" xmlns="http://www.w3.org/2000/svg">
<rect width="220" height="220" fill="#F8F8F8"/>
<rect x="20.5" y="20.5" width="179" height="179" stroke="#2F2D44"/>
<rect x="20.5" y="110.5" width="179" height="44" stroke="#2F2D44"/>
<rect x="20.5" y="20.5" width="179" height="44" stroke="#2F2D44"/>
<rect x="110.5" y="20.5" width="89" height="179" stroke="#2F2D44"/>
<path d="M56.87 36.478V49.064H58.018V36.478H56.87ZM51.396 37.444C49.534 37.444 48.204 39.152 48.204 41.826C48.204 44.5 49.534 46.208 51.396 46.208C53.258 46.208 54.588 44.5 54.588 41.826C54.588 39.152 53.258 37.444 51.396 37.444ZM51.396 38.48C52.614 38.48 53.482 39.796 53.482 41.826C53.482 43.87 52.614 45.186 51.396 45.186C50.164 45.186 49.296 43.87 49.296 41.826C49.296 39.796 50.164 38.48 51.396 38.48ZM69.4129 38.9H62.0769V41.882H70.8129V40.986H63.2109V39.754H70.5469V36.8H62.0489V37.682H69.4129V38.9ZM63.2669 45.956H69.4269V47.944H63.2669V45.956ZM62.1469 48.868H70.5609V45.046H62.1469V48.868ZM60.6209 42.96V43.884H72.0029V42.96H60.6209ZM80.3878 48L79.1838 44.906H75.2218L74.0318 48H72.7578L76.6638 37.962H77.7978L81.6898 48H80.3878ZM77.6858 40.762C77.6578 40.6873 77.6111 40.552 77.5458 40.356C77.4805 40.16 77.4151 39.9593 77.3498 39.754C77.2938 39.5393 77.2471 39.376 77.2098 39.264C77.1445 39.5533 77.0698 39.838 76.9858 40.118C76.9018 40.3887 76.8318 40.6033 76.7758 40.762L75.6418 43.786H78.8058L77.6858 40.762Z" fill="#2F2D44"/>
<path d="M137.55 41.266C135.268 40.93 133.028 39.376 133.028 37.626V36.926H131.824V37.626C131.824 39.418 129.612 40.93 127.33 41.266L127.792 42.19C129.752 41.854 131.642 40.776 132.426 39.25C133.238 40.762 135.128 41.854 137.074 42.19L137.55 41.266ZM138.096 43.548H126.756V44.5H131.824V49.05H132.972V44.5H138.11L138.096 43.548ZM147.069 37.808H143.933V36.408H142.785V37.808H139.663V38.732H147.069V37.808ZM141.455 41.644C141.455 40.818 142.211 40.272 143.359 40.272C144.507 40.272 145.277 40.818 145.277 41.644C145.277 42.484 144.507 43.03 143.359 43.03C142.211 43.03 141.455 42.484 141.455 41.644ZM146.369 41.644C146.369 40.272 145.151 39.376 143.359 39.376C141.581 39.376 140.363 40.272 140.363 41.644C140.363 43.03 141.581 43.912 143.359 43.912C145.151 43.912 146.369 43.03 146.369 41.644ZM141.217 45.956H148.217V49.05H149.365V45.018H141.217V45.956ZM151.227 39.95H149.365V36.492H148.217V44.332H149.365V40.902H151.227V39.95ZM154.446 46.53C154.324 47.0247 154.147 47.566 153.914 48.154C153.69 48.7513 153.466 49.302 153.242 49.806H152.332C152.462 49.274 152.593 48.6907 152.724 48.056C152.864 47.4213 152.966 46.8613 153.032 46.376H154.348L154.446 46.53ZM166.435 43.52C166.785 41.182 166.785 39.544 166.785 38.536V37.85H160.443V38.788H165.665C165.665 39.796 165.637 41.322 165.287 43.408L166.435 43.52ZM163.551 41.434H162.417V45.298C161.479 45.326 160.555 45.34 159.757 45.34L159.883 46.292C162.109 46.292 165.063 46.236 167.667 45.816L167.597 44.976C166.323 45.13 164.923 45.214 163.551 45.27V41.434ZM171.517 41.728H169.515V36.478H168.367V49.036H169.515V42.694H171.517V41.728ZM180.21 37.808H177.074V36.408H175.926V37.808H172.804V38.732H180.21V37.808ZM174.596 41.644C174.596 40.818 175.352 40.272 176.5 40.272C177.648 40.272 178.418 40.818 178.418 41.644C178.418 42.484 177.648 43.03 176.5 43.03C175.352 43.03 174.596 42.484 174.596 41.644ZM179.51 41.644C179.51 40.272 178.292 39.376 176.5 39.376C174.722 39.376 173.504 40.272 173.504 41.644C173.504 43.03 174.722 43.912 176.5 43.912C178.292 43.912 179.51 43.03 179.51 41.644ZM174.358 45.956H181.358V49.05H182.506V45.018H174.358V45.956ZM184.368 39.95H182.506V36.492H181.358V44.332H182.506V40.902H184.368V39.95Z" fill="#2F2D44"/>
<path d="M56.87 81.478V94.064H58.018V81.478H56.87ZM51.396 82.444C49.534 82.444 48.204 84.152 48.204 86.826C48.204 89.5 49.534 91.208 51.396 91.208C53.258 91.208 54.588 89.5 54.588 86.826C54.588 84.152 53.258 82.444 51.396 82.444ZM51.396 83.48C52.614 83.48 53.482 84.796 53.482 86.826C53.482 88.87 52.614 90.186 51.396 90.186C50.164 90.186 49.296 88.87 49.296 86.826C49.296 84.796 50.164 83.48 51.396 83.48ZM69.4129 83.9H62.0769V86.882H70.8129V85.986H63.2109V84.754H70.5469V81.8H62.0489V82.682H69.4129V83.9ZM63.2669 90.956H69.4269V92.944H63.2669V90.956ZM62.1469 93.868H70.5609V90.046H62.1469V93.868ZM60.6209 87.96V88.884H72.0029V87.96H60.6209ZM76.9718 83.004C78.2225 83.004 79.1651 83.1907 79.7998 83.564C80.4438 83.928 80.7658 84.5673 80.7658 85.482C80.7658 86.07 80.6025 86.56 80.2758 86.952C79.9491 87.3347 79.4778 87.582 78.8618 87.694V87.764C79.2818 87.8293 79.6598 87.9507 79.9958 88.128C80.3411 88.3053 80.6118 88.5573 80.8078 88.884C81.0038 89.2107 81.1018 89.6353 81.1018 90.158C81.1018 91.0633 80.7891 91.7633 80.1638 92.258C79.5478 92.7527 78.7031 93 77.6298 93H74.1158V83.004H76.9718ZM77.2238 87.26C78.0825 87.26 78.6705 87.1247 78.9878 86.854C79.3051 86.574 79.4638 86.1633 79.4638 85.622C79.4638 85.0713 79.2678 84.6793 78.8758 84.446C78.4931 84.2033 77.8771 84.082 77.0278 84.082H75.3758V87.26H77.2238ZM75.3758 88.31V91.936H77.3918C78.2785 91.936 78.8945 91.7633 79.2398 91.418C79.5851 91.0727 79.7578 90.62 79.7578 90.06C79.7578 89.5373 79.5758 89.1173 79.2118 88.8C78.8571 88.4733 78.2178 88.31 77.2938 88.31H75.3758Z" fill="#2F2D44"/>
<path d="M153.55 86.266C151.268 85.93 149.028 84.376 149.028 82.626V81.926H147.824V82.626C147.824 84.418 145.612 85.93 143.33 86.266L143.792 87.19C145.752 86.854 147.642 85.776 148.426 84.25C149.238 85.762 151.128 86.854 153.074 87.19L153.55 86.266ZM154.096 88.548H142.756V89.5H147.824V94.05H148.972V89.5H154.11L154.096 88.548ZM163.069 82.808H159.933V81.408H158.785V82.808H155.663V83.732H163.069V82.808ZM157.455 86.644C157.455 85.818 158.211 85.272 159.359 85.272C160.507 85.272 161.277 85.818 161.277 86.644C161.277 87.484 160.507 88.03 159.359 88.03C158.211 88.03 157.455 87.484 157.455 86.644ZM162.369 86.644C162.369 85.272 161.151 84.376 159.359 84.376C157.581 84.376 156.363 85.272 156.363 86.644C156.363 88.03 157.581 88.912 159.359 88.912C161.151 88.912 162.369 88.03 162.369 86.644ZM157.217 90.956H164.217V94.05H165.365V90.018H157.217V90.956ZM167.227 84.95H165.365V81.492H164.217V89.332H165.365V85.902H167.227V84.95Z" fill="#2F2D44"/>
<path d="M56.87 126.478V139.064H58.018V126.478H56.87ZM51.396 127.444C49.534 127.444 48.204 129.152 48.204 131.826C48.204 134.5 49.534 136.208 51.396 136.208C53.258 136.208 54.588 134.5 54.588 131.826C54.588 129.152 53.258 127.444 51.396 127.444ZM51.396 128.48C52.614 128.48 53.482 129.796 53.482 131.826C53.482 133.87 52.614 135.186 51.396 135.186C50.164 135.186 49.296 133.87 49.296 131.826C49.296 129.796 50.164 128.48 51.396 128.48ZM69.4129 128.9H62.0769V131.882H70.8129V130.986H63.2109V129.754H70.5469V126.8H62.0489V127.682H69.4129V128.9ZM63.2669 135.956H69.4269V137.944H63.2669V135.956ZM62.1469 138.868H70.5609V135.046H62.1469V138.868ZM60.6209 132.96V133.884H72.0029V132.96H60.6209ZM78.3998 128.97C77.3265 128.97 76.4818 129.329 75.8658 130.048C75.2498 130.767 74.9418 131.751 74.9418 133.002C74.9418 134.243 75.2265 135.228 75.7958 135.956C76.3745 136.675 77.2378 137.034 78.3858 137.034C78.8245 137.034 79.2398 136.997 79.6318 136.922C80.0238 136.847 80.4065 136.754 80.7798 136.642V137.734C80.4065 137.874 80.0191 137.977 79.6178 138.042C79.2258 138.107 78.7545 138.14 78.2038 138.14C77.1865 138.14 76.3371 137.93 75.6558 137.51C74.9745 137.09 74.4611 136.493 74.1158 135.718C73.7798 134.943 73.6118 134.033 73.6118 132.988C73.6118 131.98 73.7938 131.093 74.1578 130.328C74.5311 129.553 75.0771 128.951 75.7958 128.522C76.5145 128.083 77.3871 127.864 78.4138 127.864C79.4685 127.864 80.3878 128.06 81.1718 128.452L80.6678 129.516C80.3598 129.376 80.0145 129.25 79.6318 129.138C79.2585 129.026 78.8478 128.97 78.3998 128.97Z" fill="#2F2D44"/>
<path d="M146.956 127.57H145.822V129.824C145.822 132.106 144.394 134.514 142.588 135.438L143.274 136.362C144.688 135.606 145.85 134.038 146.396 132.204C146.97 133.926 148.104 135.396 149.434 136.11L150.148 135.2C148.384 134.318 146.956 132.036 146.956 129.824V127.57ZM154.474 131.574H152.402V126.492H151.254V139.036H152.402V132.526H154.474V131.574ZM163.587 128.018H160.353V126.478H159.205V128.018H155.957V128.942H163.587V128.018ZM157.847 131.98C157.847 131.098 158.631 130.538 159.779 130.538C160.913 130.538 161.697 131.098 161.697 131.98C161.697 132.848 160.913 133.408 159.779 133.408C158.631 133.408 157.847 132.848 157.847 131.98ZM160.353 134.276C161.837 134.094 162.789 133.226 162.789 131.98C162.789 130.566 161.571 129.656 159.779 129.656C157.987 129.656 156.755 130.566 156.755 131.98C156.755 133.24 157.721 134.108 159.205 134.29V135.634C157.959 135.676 156.755 135.69 155.691 135.69L155.859 136.656C158.169 136.656 161.193 136.614 163.993 136.152L163.909 135.298C162.761 135.452 161.543 135.536 160.353 135.592V134.276ZM164.707 126.478V139.036H165.855V126.478H164.707Z" fill="#2F2D44"/>
<path d="M56.87 171.478V184.064H58.018V171.478H56.87ZM51.396 172.444C49.534 172.444 48.204 174.152 48.204 176.826C48.204 179.5 49.534 181.208 51.396 181.208C53.258 181.208 54.588 179.5 54.588 176.826C54.588 174.152 53.258 172.444 51.396 172.444ZM51.396 173.48C52.614 173.48 53.482 174.796 53.482 176.826C53.482 178.87 52.614 180.186 51.396 180.186C50.164 180.186 49.296 178.87 49.296 176.826C49.296 174.796 50.164 173.48 51.396 173.48ZM69.4129 173.9H62.0769V176.882H70.8129V175.986H63.2109V174.754H70.5469V171.8H62.0489V172.682H69.4129V173.9ZM63.2669 180.956H69.4269V182.944H63.2669V180.956ZM62.1469 183.868H70.5609V180.046H62.1469V183.868ZM60.6209 177.96V178.884H72.0029V177.96H60.6209ZM82.1238 177.904C82.1238 179.593 81.6618 180.867 80.7378 181.726C79.8231 182.575 78.5445 183 76.9018 183H74.1158V173.004H77.1958C78.2038 173.004 79.0765 173.191 79.8138 173.564C80.5511 173.937 81.1205 174.488 81.5218 175.216C81.9231 175.935 82.1238 176.831 82.1238 177.904ZM80.7938 177.946C80.7938 176.611 80.4625 175.636 79.7998 175.02C79.1465 174.395 78.2178 174.082 77.0138 174.082H75.3758V181.922H76.7338C79.4405 181.922 80.7938 180.597 80.7938 177.946Z" fill="#2F2D44"/>
<path d="M149.294 178.52C149.644 176.182 149.644 174.544 149.644 173.536V172.85H143.302V173.788H148.524C148.524 174.796 148.496 176.322 148.146 178.408L149.294 178.52ZM146.41 176.434H145.276V180.298C144.338 180.326 143.414 180.34 142.616 180.34L142.742 181.292C144.968 181.292 147.922 181.236 150.526 180.816L150.456 179.976C149.182 180.13 147.782 180.214 146.41 180.27V176.434ZM154.376 176.728H152.374V171.478H151.226V184.036H152.374V177.694H154.376V176.728ZM163.069 172.808H159.933V171.408H158.785V172.808H155.663V173.732H163.069V172.808ZM157.455 176.644C157.455 175.818 158.211 175.272 159.359 175.272C160.507 175.272 161.277 175.818 161.277 176.644C161.277 177.484 160.507 178.03 159.359 178.03C158.211 178.03 157.455 177.484 157.455 176.644ZM162.369 176.644C162.369 175.272 161.151 174.376 159.359 174.376C157.581 174.376 156.363 175.272 156.363 176.644C156.363 178.03 157.581 178.912 159.359 178.912C161.151 178.912 162.369 178.03 162.369 176.644ZM157.217 180.956H164.217V184.05H165.365V180.018H157.217V180.956ZM167.227 174.95H165.365V171.492H164.217V179.332H165.365V175.902H167.227V174.95Z" fill="#2F2D44"/>
</svg>
