<svg width="220" height="263" viewBox="0 0 220 263" fill="none" xmlns="http://www.w3.org/2000/svg">
<rect width="220" height="263" fill="#F8F8F8"/>
<rect x="20.5" y="20.5" width="179" height="222" stroke="#2F2D44"/>
<rect x="20.5" y="110.5" width="179" height="44" stroke="#2F2D44"/>
<rect x="20.5" y="154.5" width="179" height="44" stroke="#2F2D44"/>
<rect x="20.5" y="198.5" width="179" height="44" stroke="#2F2D44"/>
<rect x="20.5" y="20.5" width="179" height="44" stroke="#2F2D44"/>
<rect x="110.5" y="20.5" width="89" height="222" stroke="#2F2D44"/>
<path d="M55.87 36.478V49.064H57.018V36.478H55.87ZM50.396 37.444C48.534 37.444 47.204 39.152 47.204 41.826C47.204 44.5 48.534 46.208 50.396 46.208C52.258 46.208 53.588 44.5 53.588 41.826C53.588 39.152 52.258 37.444 50.396 37.444ZM50.396 38.48C51.614 38.48 52.482 39.796 52.482 41.826C52.482 43.87 51.614 45.186 50.396 45.186C49.164 45.186 48.296 43.87 48.296 41.826C48.296 39.796 49.164 38.48 50.396 38.48ZM68.4129 38.9H61.0769V41.882H69.8129V40.986H62.2109V39.754H69.5469V36.8H61.0489V37.682H68.4129V38.9ZM62.2669 45.956H68.4269V47.944H62.2669V45.956ZM61.1469 48.868H69.5609V45.046H61.1469V48.868ZM59.6209 42.96V43.884H71.0029V42.96H59.6209ZM79.3878 48L78.1838 44.906H74.2218L73.0318 48H71.7578L75.6638 37.962H76.7978L80.6898 48H79.3878ZM76.6858 40.762C76.6578 40.6873 76.6111 40.552 76.5458 40.356C76.4805 40.16 76.4151 39.9593 76.3498 39.754C76.2938 39.5393 76.2471 39.376 76.2098 39.264C76.1445 39.5533 76.0698 39.838 75.9858 40.118C75.9018 40.3887 75.8318 40.6033 75.7758 40.762L74.6418 43.786H77.8058L76.6858 40.762Z" fill="#2F2D44"/>
<path d="M55.87 81.478V94.064H57.018V81.478H55.87ZM50.396 82.444C48.534 82.444 47.204 84.152 47.204 86.826C47.204 89.5 48.534 91.208 50.396 91.208C52.258 91.208 53.588 89.5 53.588 86.826C53.588 84.152 52.258 82.444 50.396 82.444ZM50.396 83.48C51.614 83.48 52.482 84.796 52.482 86.826C52.482 88.87 51.614 90.186 50.396 90.186C49.164 90.186 48.296 88.87 48.296 86.826C48.296 84.796 49.164 83.48 50.396 83.48ZM68.4129 83.9H61.0769V86.882H69.8129V85.986H62.2109V84.754H69.5469V81.8H61.0489V82.682H68.4129V83.9ZM62.2669 90.956H68.4269V92.944H62.2669V90.956ZM61.1469 93.868H69.5609V90.046H61.1469V93.868ZM59.6209 87.96V88.884H71.0029V87.96H59.6209ZM79.3878 93L78.1838 89.906H74.2218L73.0318 93H71.7578L75.6638 82.962H76.7978L80.6898 93H79.3878ZM76.6858 85.762C76.6578 85.6873 76.6111 85.552 76.5458 85.356C76.4805 85.16 76.4151 84.9593 76.3498 84.754C76.2938 84.5393 76.2471 84.376 76.2098 84.264C76.1445 84.5533 76.0698 84.838 75.9858 85.118C75.9018 85.3887 75.8318 85.6033 75.7758 85.762L74.6418 88.786H77.8058L76.6858 85.762Z" fill="#2F2D44"/>
<path d="M152.55 41.266C150.268 40.93 148.028 39.376 148.028 37.626V36.926H146.824V37.626C146.824 39.418 144.612 40.93 142.33 41.266L142.792 42.19C144.752 41.854 146.642 40.776 147.426 39.25C148.238 40.762 150.128 41.854 152.074 42.19L152.55 41.266ZM153.096 43.548H141.756V44.5H146.824V49.05H147.972V44.5H153.11L153.096 43.548ZM162.069 37.808H158.933V36.408H157.785V37.808H154.663V38.732H162.069V37.808ZM156.455 41.644C156.455 40.818 157.211 40.272 158.359 40.272C159.507 40.272 160.277 40.818 160.277 41.644C160.277 42.484 159.507 43.03 158.359 43.03C157.211 43.03 156.455 42.484 156.455 41.644ZM161.369 41.644C161.369 40.272 160.151 39.376 158.359 39.376C156.581 39.376 155.363 40.272 155.363 41.644C155.363 43.03 156.581 43.912 158.359 43.912C160.151 43.912 161.369 43.03 161.369 41.644ZM156.217 45.956H163.217V49.05H164.365V45.018H156.217V45.956ZM166.227 39.95H164.365V36.492H163.217V44.332H164.365V40.902H166.227V39.95Z" fill="#2F2D44"/>
<path d="M148.294 88.52C148.644 86.182 148.644 84.544 148.644 83.536V82.85H142.302V83.788H147.524C147.524 84.796 147.496 86.322 147.146 88.408L148.294 88.52ZM145.41 86.434H144.276V90.298C143.338 90.326 142.414 90.34 141.616 90.34L141.742 91.292C143.968 91.292 146.922 91.236 149.526 90.816L149.456 89.976C148.182 90.13 146.782 90.214 145.41 90.27V86.434ZM153.376 86.728H151.374V81.478H150.226V94.036H151.374V87.694H153.376V86.728ZM162.069 82.808H158.933V81.408H157.785V82.808H154.663V83.732H162.069V82.808ZM156.455 86.644C156.455 85.818 157.211 85.272 158.359 85.272C159.507 85.272 160.277 85.818 160.277 86.644C160.277 87.484 159.507 88.03 158.359 88.03C157.211 88.03 156.455 87.484 156.455 86.644ZM161.369 86.644C161.369 85.272 160.151 84.376 158.359 84.376C156.581 84.376 155.363 85.272 155.363 86.644C155.363 88.03 156.581 88.912 158.359 88.912C160.151 88.912 161.369 88.03 161.369 86.644ZM156.217 90.956H163.217V94.05H164.365V90.018H156.217V90.956ZM166.227 84.95H164.365V81.492H163.217V89.332H164.365V85.902H166.227V84.95Z" fill="#2F2D44"/>
<path d="M55.87 126.478V139.064H57.018V126.478H55.87ZM50.396 127.444C48.534 127.444 47.204 129.152 47.204 131.826C47.204 134.5 48.534 136.208 50.396 136.208C52.258 136.208 53.588 134.5 53.588 131.826C53.588 129.152 52.258 127.444 50.396 127.444ZM50.396 128.48C51.614 128.48 52.482 129.796 52.482 131.826C52.482 133.87 51.614 135.186 50.396 135.186C49.164 135.186 48.296 133.87 48.296 131.826C48.296 129.796 49.164 128.48 50.396 128.48ZM68.4129 128.9H61.0769V131.882H69.8129V130.986H62.2109V129.754H69.5469V126.8H61.0489V127.682H68.4129V128.9ZM62.2669 135.956H68.4269V137.944H62.2669V135.956ZM61.1469 138.868H69.5609V135.046H61.1469V138.868ZM59.6209 132.96V133.884H71.0029V132.96H59.6209ZM75.9718 128.004C77.2225 128.004 78.1651 128.191 78.7998 128.564C79.4438 128.928 79.7658 129.567 79.7658 130.482C79.7658 131.07 79.6025 131.56 79.2758 131.952C78.9491 132.335 78.4778 132.582 77.8618 132.694V132.764C78.2818 132.829 78.6598 132.951 78.9958 133.128C79.3411 133.305 79.6118 133.557 79.8078 133.884C80.0038 134.211 80.1018 134.635 80.1018 135.158C80.1018 136.063 79.7891 136.763 79.1638 137.258C78.5478 137.753 77.7031 138 76.6298 138H73.1158V128.004H75.9718ZM76.2238 132.26C77.0825 132.26 77.6705 132.125 77.9878 131.854C78.3051 131.574 78.4638 131.163 78.4638 130.622C78.4638 130.071 78.2678 129.679 77.8758 129.446C77.4931 129.203 76.8771 129.082 76.0278 129.082H74.3758V132.26H76.2238ZM74.3758 133.31V136.936H76.3918C77.2785 136.936 77.8945 136.763 78.2398 136.418C78.5851 136.073 78.7578 135.62 78.7578 135.06C78.7578 134.537 78.5758 134.117 78.2118 133.8C77.8571 133.473 77.2178 133.31 76.2938 133.31H74.3758Z" fill="#2F2D44"/>
<path d="M152.55 131.266C150.268 130.93 148.028 129.376 148.028 127.626V126.926H146.824V127.626C146.824 129.418 144.612 130.93 142.33 131.266L142.792 132.19C144.752 131.854 146.642 130.776 147.426 129.25C148.238 130.762 150.128 131.854 152.074 132.19L152.55 131.266ZM153.096 133.548H141.756V134.5H146.824V139.05H147.972V134.5H153.11L153.096 133.548ZM162.069 127.808H158.933V126.408H157.785V127.808H154.663V128.732H162.069V127.808ZM156.455 131.644C156.455 130.818 157.211 130.272 158.359 130.272C159.507 130.272 160.277 130.818 160.277 131.644C160.277 132.484 159.507 133.03 158.359 133.03C157.211 133.03 156.455 132.484 156.455 131.644ZM161.369 131.644C161.369 130.272 160.151 129.376 158.359 129.376C156.581 129.376 155.363 130.272 155.363 131.644C155.363 133.03 156.581 133.912 158.359 133.912C160.151 133.912 161.369 133.03 161.369 131.644ZM156.217 135.956H163.217V139.05H164.365V135.018H156.217V135.956ZM166.227 129.95H164.365V126.492H163.217V134.332H164.365V130.902H166.227V129.95Z" fill="#2F2D44"/>
<path d="M55.87 170.478V183.064H57.018V170.478H55.87ZM50.396 171.444C48.534 171.444 47.204 173.152 47.204 175.826C47.204 178.5 48.534 180.208 50.396 180.208C52.258 180.208 53.588 178.5 53.588 175.826C53.588 173.152 52.258 171.444 50.396 171.444ZM50.396 172.48C51.614 172.48 52.482 173.796 52.482 175.826C52.482 177.87 51.614 179.186 50.396 179.186C49.164 179.186 48.296 177.87 48.296 175.826C48.296 173.796 49.164 172.48 50.396 172.48ZM68.4129 172.9H61.0769V175.882H69.8129V174.986H62.2109V173.754H69.5469V170.8H61.0489V171.682H68.4129V172.9ZM62.2669 179.956H68.4269V181.944H62.2669V179.956ZM61.1469 182.868H69.5609V179.046H61.1469V182.868ZM59.6209 176.96V177.884H71.0029V176.96H59.6209ZM77.3998 172.97C76.3265 172.97 75.4818 173.329 74.8658 174.048C74.2498 174.767 73.9418 175.751 73.9418 177.002C73.9418 178.243 74.2265 179.228 74.7958 179.956C75.3745 180.675 76.2378 181.034 77.3858 181.034C77.8245 181.034 78.2398 180.997 78.6318 180.922C79.0238 180.847 79.4065 180.754 79.7798 180.642V181.734C79.4065 181.874 79.0191 181.977 78.6178 182.042C78.2258 182.107 77.7545 182.14 77.2038 182.14C76.1865 182.14 75.3371 181.93 74.6558 181.51C73.9745 181.09 73.4611 180.493 73.1158 179.718C72.7798 178.943 72.6118 178.033 72.6118 176.988C72.6118 175.98 72.7938 175.093 73.1578 174.328C73.5311 173.553 74.0771 172.951 74.7958 172.522C75.5145 172.083 76.3871 171.864 77.4138 171.864C78.4685 171.864 79.3878 172.06 80.1718 172.452L79.6678 173.516C79.3598 173.376 79.0145 173.25 78.6318 173.138C78.2585 173.026 77.8478 172.97 77.3998 172.97Z" fill="#2F2D44"/>
<path d="M145.956 171.57H144.822V173.824C144.822 176.106 143.394 178.514 141.588 179.438L142.274 180.362C143.688 179.606 144.85 178.038 145.396 176.204C145.97 177.926 147.104 179.396 148.434 180.11L149.148 179.2C147.384 178.318 145.956 176.036 145.956 173.824V171.57ZM153.474 175.574H151.402V170.492H150.254V183.036H151.402V176.526H153.474V175.574ZM162.587 172.018H159.353V170.478H158.205V172.018H154.957V172.942H162.587V172.018ZM156.847 175.98C156.847 175.098 157.631 174.538 158.779 174.538C159.913 174.538 160.697 175.098 160.697 175.98C160.697 176.848 159.913 177.408 158.779 177.408C157.631 177.408 156.847 176.848 156.847 175.98ZM159.353 178.276C160.837 178.094 161.789 177.226 161.789 175.98C161.789 174.566 160.571 173.656 158.779 173.656C156.987 173.656 155.755 174.566 155.755 175.98C155.755 177.24 156.721 178.108 158.205 178.29V179.634C156.959 179.676 155.755 179.69 154.691 179.69L154.859 180.656C157.169 180.656 160.193 180.614 162.993 180.152L162.909 179.298C161.761 179.452 160.543 179.536 159.353 179.592V178.276ZM163.707 170.478V183.036H164.855V170.478H163.707Z" fill="#2F2D44"/>
<path d="M55.87 214.478V227.064H57.018V214.478H55.87ZM50.396 215.444C48.534 215.444 47.204 217.152 47.204 219.826C47.204 222.5 48.534 224.208 50.396 224.208C52.258 224.208 53.588 222.5 53.588 219.826C53.588 217.152 52.258 215.444 50.396 215.444ZM50.396 216.48C51.614 216.48 52.482 217.796 52.482 219.826C52.482 221.87 51.614 223.186 50.396 223.186C49.164 223.186 48.296 221.87 48.296 219.826C48.296 217.796 49.164 216.48 50.396 216.48ZM68.4129 216.9H61.0769V219.882H69.8129V218.986H62.2109V217.754H69.5469V214.8H61.0489V215.682H68.4129V216.9ZM62.2669 223.956H68.4269V225.944H62.2669V223.956ZM61.1469 226.868H69.5609V223.046H61.1469V226.868ZM59.6209 220.96V221.884H71.0029V220.96H59.6209ZM81.1238 220.904C81.1238 222.593 80.6618 223.867 79.7378 224.726C78.8231 225.575 77.5445 226 75.9018 226H73.1158V216.004H76.1958C77.2038 216.004 78.0765 216.191 78.8138 216.564C79.5511 216.937 80.1205 217.488 80.5218 218.216C80.9231 218.935 81.1238 219.831 81.1238 220.904ZM79.7938 220.946C79.7938 219.611 79.4625 218.636 78.7998 218.02C78.1465 217.395 77.2178 217.082 76.0138 217.082H74.3758V224.922H75.7338C78.4405 224.922 79.7938 223.597 79.7938 220.946Z" fill="#2F2D44"/>
<path d="M148.294 221.52C148.644 219.182 148.644 217.544 148.644 216.536V215.85H142.302V216.788H147.524C147.524 217.796 147.496 219.322 147.146 221.408L148.294 221.52ZM145.41 219.434H144.276V223.298C143.338 223.326 142.414 223.34 141.616 223.34L141.742 224.292C143.968 224.292 146.922 224.236 149.526 223.816L149.456 222.976C148.182 223.13 146.782 223.214 145.41 223.27V219.434ZM153.376 219.728H151.374V214.478H150.226V227.036H151.374V220.694H153.376V219.728ZM162.069 215.808H158.933V214.408H157.785V215.808H154.663V216.732H162.069V215.808ZM156.455 219.644C156.455 218.818 157.211 218.272 158.359 218.272C159.507 218.272 160.277 218.818 160.277 219.644C160.277 220.484 159.507 221.03 158.359 221.03C157.211 221.03 156.455 220.484 156.455 219.644ZM161.369 219.644C161.369 218.272 160.151 217.376 158.359 217.376C156.581 217.376 155.363 218.272 155.363 219.644C155.363 221.03 156.581 221.912 158.359 221.912C160.151 221.912 161.369 221.03 161.369 219.644ZM156.217 223.956H163.217V227.05H164.365V223.018H156.217V223.956ZM166.227 217.95H164.365V214.492H163.217V222.332H164.365V218.902H166.227V217.95Z" fill="#2F2D44"/>
</svg>
