<svg width="450" height="216" viewBox="0 0 450 216" fill="none" xmlns="http://www.w3.org/2000/svg">
<rect width="450" height="216" fill="white"/>
<rect x="237.5" y="127.5" width="150" height="36" rx="3.5" stroke="#5A72B0"/>
<rect x="229.5" y="38.5" width="178" height="36" rx="3.5" stroke="#B05A5A"/>
<rect x="40.5" y="38.5" width="139" height="36" rx="3.5" stroke="#B05A5A"/>
<rect x="40.5" y="100.5" width="139" height="99" rx="3.5" stroke="#5A72B0"/>
<path d="M64.592 61L60.832 50.984H60.768C60.8 51.3147 60.8267 51.7627 60.848 52.328C60.8693 52.8827 60.88 53.464 60.88 54.072V61H59.552V49.576H61.68L65.2 58.936H65.264L68.848 49.576H70.96V61H69.536V53.976C69.536 53.4213 69.5467 52.872 69.568 52.328C69.6 51.784 69.6267 51.3413 69.648 51H69.584L65.776 61H64.592ZM77.1236 52.28C78.169 52.28 78.9423 52.5093 79.4436 52.968C79.945 53.4267 80.1956 54.1573 80.1956 55.16V61H79.1716L78.8996 59.784H78.8356C78.4623 60.2533 78.0676 60.6 77.6516 60.824C77.2463 61.048 76.681 61.16 75.9556 61.16C75.177 61.16 74.5316 60.9573 74.0196 60.552C73.5076 60.136 73.2516 59.4907 73.2516 58.616C73.2516 57.7627 73.5876 57.1067 74.2596 56.648C74.9316 56.1787 75.9663 55.9227 77.3636 55.88L78.8196 55.832V55.32C78.8196 54.6053 78.665 54.1093 78.3556 53.832C78.0463 53.5547 77.609 53.416 77.0436 53.416C76.5956 53.416 76.169 53.4853 75.7636 53.624C75.3583 53.752 74.9796 53.9013 74.6276 54.072L74.1956 53.016C74.569 52.8133 75.0116 52.6427 75.5236 52.504C76.0356 52.3547 76.569 52.28 77.1236 52.28ZM77.5396 56.856C76.473 56.8987 75.7316 57.0693 75.3156 57.368C74.9103 57.6667 74.7076 58.088 74.7076 58.632C74.7076 59.112 74.8516 59.464 75.1396 59.688C75.4383 59.912 75.817 60.024 76.2756 60.024C77.001 60.024 77.6036 59.8267 78.0836 59.432C78.5636 59.0267 78.8036 58.408 78.8036 57.576V56.808L77.5396 56.856ZM86.9724 52.264C87.9964 52.264 88.7697 52.5147 89.2924 53.016C89.815 53.5067 90.0764 54.3067 90.0764 55.416V61H88.6844V55.512C88.6844 54.136 88.0444 53.448 86.7644 53.448C85.815 53.448 85.159 53.7147 84.7964 54.248C84.4337 54.7813 84.2524 55.5493 84.2524 56.552V61H82.8444V52.424H83.9804L84.1884 53.592H84.2684C84.5457 53.144 84.9297 52.8133 85.4204 52.6C85.911 52.376 86.4284 52.264 86.9724 52.264ZM99.903 52.424V61H98.751L98.543 59.864H98.479C98.2017 60.312 97.8177 60.6427 97.327 60.856C96.8363 61.0587 96.3137 61.16 95.759 61.16C94.7243 61.16 93.9457 60.9147 93.423 60.424C92.9003 59.9227 92.639 59.128 92.639 58.04V52.424H94.063V57.944C94.063 59.3093 94.6977 59.992 95.967 59.992C96.9163 59.992 97.5723 59.7253 97.935 59.192C98.3083 58.6587 98.495 57.8907 98.495 56.888V52.424H99.903ZM106.578 53.512H104.418V61H103.01V53.512H101.506V52.856L103.01 52.376V51.88C103.01 50.7707 103.255 49.976 103.746 49.496C104.236 49.0053 104.919 48.76 105.794 48.76C106.135 48.76 106.444 48.792 106.722 48.856C107.01 48.9093 107.255 48.9733 107.458 49.048L107.09 50.152C106.919 50.0987 106.722 50.0453 106.498 49.992C106.274 49.9387 106.044 49.912 105.81 49.912C105.34 49.912 104.988 50.072 104.754 50.392C104.53 50.7013 104.418 51.192 104.418 51.864V52.424H106.578V53.512ZM111.374 52.28C112.419 52.28 113.192 52.5093 113.694 52.968C114.195 53.4267 114.446 54.1573 114.446 55.16V61H113.422L113.15 59.784H113.086C112.712 60.2533 112.318 60.6 111.902 60.824C111.496 61.048 110.931 61.16 110.206 61.16C109.427 61.16 108.782 60.9573 108.27 60.552C107.758 60.136 107.502 59.4907 107.502 58.616C107.502 57.7627 107.838 57.1067 108.51 56.648C109.182 56.1787 110.216 55.9227 111.614 55.88L113.07 55.832V55.32C113.07 54.6053 112.915 54.1093 112.606 53.832C112.296 53.5547 111.859 53.416 111.294 53.416C110.846 53.416 110.419 53.4853 110.014 53.624C109.608 53.752 109.23 53.9013 108.878 54.072L108.446 53.016C108.819 52.8133 109.262 52.6427 109.774 52.504C110.286 52.3547 110.819 52.28 111.374 52.28ZM111.79 56.856C110.723 56.8987 109.982 57.0693 109.566 57.368C109.16 57.6667 108.958 58.088 108.958 58.632C108.958 59.112 109.102 59.464 109.39 59.688C109.688 59.912 110.067 60.024 110.526 60.024C111.251 60.024 111.854 59.8267 112.334 59.432C112.814 59.0267 113.054 58.408 113.054 57.576V56.808L111.79 56.856ZM120.534 61.16C119.777 61.16 119.1 61.0053 118.502 60.696C117.916 60.3867 117.452 59.9067 117.11 59.256C116.78 58.6053 116.614 57.7733 116.614 56.76C116.614 55.704 116.79 54.8453 117.142 54.184C117.494 53.5227 117.969 53.0373 118.566 52.728C119.174 52.4187 119.862 52.264 120.63 52.264C121.068 52.264 121.489 52.312 121.894 52.408C122.3 52.4933 122.63 52.6 122.886 52.728L122.454 53.896C122.198 53.8 121.9 53.7093 121.558 53.624C121.217 53.5387 120.897 53.496 120.598 53.496C118.913 53.496 118.07 54.5787 118.07 56.744C118.07 57.7787 118.273 58.5733 118.678 59.128C119.094 59.672 119.708 59.944 120.518 59.944C120.988 59.944 121.398 59.896 121.75 59.8C122.113 59.704 122.444 59.5867 122.742 59.448V60.696C122.454 60.8453 122.134 60.9573 121.782 61.032C121.441 61.1173 121.025 61.16 120.534 61.16ZM127.646 60.008C127.859 60.008 128.078 59.992 128.302 59.96C128.526 59.9173 128.707 59.8747 128.846 59.832V60.904C128.697 60.9787 128.483 61.0373 128.206 61.08C127.929 61.1333 127.662 61.16 127.406 61.16C126.958 61.16 126.542 61.0853 126.158 60.936C125.785 60.776 125.481 60.504 125.246 60.12C125.011 59.736 124.894 59.1973 124.894 58.504V53.512H123.678V52.84L124.91 52.28L125.47 50.456H126.302V52.424H128.782V53.512H126.302V58.472C126.302 58.9947 126.425 59.384 126.67 59.64C126.926 59.8853 127.251 60.008 127.646 60.008ZM137.731 52.424V61H136.579L136.371 59.864H136.307C136.03 60.312 135.646 60.6427 135.155 60.856C134.664 61.0587 134.142 61.16 133.587 61.16C132.552 61.16 131.774 60.9147 131.251 60.424C130.728 59.9227 130.467 59.128 130.467 58.04V52.424H131.891V57.944C131.891 59.3093 132.526 59.992 133.795 59.992C134.744 59.992 135.4 59.7253 135.763 59.192C136.136 58.6587 136.323 57.8907 136.323 56.888V52.424H137.731ZM144.454 52.264C144.614 52.264 144.784 52.2747 144.966 52.296C145.158 52.3067 145.323 52.328 145.462 52.36L145.286 53.656C145.147 53.624 144.992 53.5973 144.822 53.576C144.662 53.5547 144.507 53.544 144.358 53.544C143.92 53.544 143.51 53.6667 143.126 53.912C142.742 54.1467 142.432 54.4827 142.198 54.92C141.974 55.3467 141.862 55.848 141.862 56.424V61H140.454V52.424H141.606L141.766 53.992H141.83C142.107 53.5227 142.464 53.1173 142.902 52.776C143.339 52.4347 143.856 52.264 144.454 52.264ZM150.063 52.264C150.799 52.264 151.428 52.424 151.951 52.744C152.484 53.064 152.889 53.5173 153.167 54.104C153.455 54.68 153.599 55.3573 153.599 56.136V56.984H147.727C147.748 57.9547 147.993 58.696 148.463 59.208C148.943 59.7093 149.609 59.96 150.463 59.96C151.007 59.96 151.487 59.912 151.903 59.816C152.329 59.7093 152.767 59.56 153.215 59.368V60.6C152.777 60.792 152.345 60.9307 151.919 61.016C151.492 61.112 150.985 61.16 150.399 61.16C149.588 61.16 148.868 60.9947 148.239 60.664C147.62 60.3333 147.135 59.8427 146.783 59.192C146.441 58.5307 146.271 57.7253 146.271 56.776C146.271 55.8373 146.425 55.032 146.735 54.36C147.055 53.688 147.497 53.1707 148.063 52.808C148.639 52.4453 149.305 52.264 150.063 52.264ZM150.047 53.416C149.375 53.416 148.841 53.6347 148.447 54.072C148.063 54.4987 147.833 55.096 147.759 55.864H152.127C152.116 55.1387 151.945 54.552 151.615 54.104C151.284 53.6453 150.761 53.416 150.047 53.416ZM159.782 52.264C159.942 52.264 160.113 52.2747 160.294 52.296C160.486 52.3067 160.651 52.328 160.79 52.36L160.614 53.656C160.475 53.624 160.321 53.5973 160.15 53.576C159.99 53.5547 159.835 53.544 159.686 53.544C159.249 53.544 158.838 53.6667 158.454 53.912C158.07 54.1467 157.761 54.4827 157.526 54.92C157.302 55.3467 157.19 55.848 157.19 56.424V61H155.782V52.424H156.934L157.094 53.992H157.158C157.435 53.5227 157.793 53.1173 158.23 52.776C158.667 52.4347 159.185 52.264 159.782 52.264Z" fill="#2F2D44"/>
<path d="M64.592 136L60.832 125.984H60.768C60.8 126.315 60.8267 126.763 60.848 127.328C60.8693 127.883 60.88 128.464 60.88 129.072V136H59.552V124.576H61.68L65.2 133.936H65.264L68.848 124.576H70.96V136H69.536V128.976C69.536 128.421 69.5467 127.872 69.568 127.328C69.6 126.784 69.6267 126.341 69.648 126H69.584L65.776 136H64.592ZM77.1236 127.28C78.169 127.28 78.9423 127.509 79.4436 127.968C79.945 128.427 80.1956 129.157 80.1956 130.16V136H79.1716L78.8996 134.784H78.8356C78.4623 135.253 78.0676 135.6 77.6516 135.824C77.2463 136.048 76.681 136.16 75.9556 136.16C75.177 136.16 74.5316 135.957 74.0196 135.552C73.5076 135.136 73.2516 134.491 73.2516 133.616C73.2516 132.763 73.5876 132.107 74.2596 131.648C74.9316 131.179 75.9663 130.923 77.3636 130.88L78.8196 130.832V130.32C78.8196 129.605 78.665 129.109 78.3556 128.832C78.0463 128.555 77.609 128.416 77.0436 128.416C76.5956 128.416 76.169 128.485 75.7636 128.624C75.3583 128.752 74.9796 128.901 74.6276 129.072L74.1956 128.016C74.569 127.813 75.0116 127.643 75.5236 127.504C76.0356 127.355 76.569 127.28 77.1236 127.28ZM77.5396 131.856C76.473 131.899 75.7316 132.069 75.3156 132.368C74.9103 132.667 74.7076 133.088 74.7076 133.632C74.7076 134.112 74.8516 134.464 75.1396 134.688C75.4383 134.912 75.817 135.024 76.2756 135.024C77.001 135.024 77.6036 134.827 78.0836 134.432C78.5636 134.027 78.8036 133.408 78.8036 132.576V131.808L77.5396 131.856ZM86.9724 127.264C87.9964 127.264 88.7697 127.515 89.2924 128.016C89.815 128.507 90.0764 129.307 90.0764 130.416V136H88.6844V130.512C88.6844 129.136 88.0444 128.448 86.7644 128.448C85.815 128.448 85.159 128.715 84.7964 129.248C84.4337 129.781 84.2524 130.549 84.2524 131.552V136H82.8444V127.424H83.9804L84.1884 128.592H84.2684C84.5457 128.144 84.9297 127.813 85.4204 127.6C85.911 127.376 86.4284 127.264 86.9724 127.264ZM99.903 127.424V136H98.751L98.543 134.864H98.479C98.2017 135.312 97.8177 135.643 97.327 135.856C96.8363 136.059 96.3137 136.16 95.759 136.16C94.7243 136.16 93.9457 135.915 93.423 135.424C92.9003 134.923 92.639 134.128 92.639 133.04V127.424H94.063V132.944C94.063 134.309 94.6977 134.992 95.967 134.992C96.9163 134.992 97.5723 134.725 97.935 134.192C98.3083 133.659 98.495 132.891 98.495 131.888V127.424H99.903ZM106.578 128.512H104.418V136H103.01V128.512H101.506V127.856L103.01 127.376V126.88C103.01 125.771 103.255 124.976 103.746 124.496C104.236 124.005 104.919 123.76 105.794 123.76C106.135 123.76 106.444 123.792 106.722 123.856C107.01 123.909 107.255 123.973 107.458 124.048L107.09 125.152C106.919 125.099 106.722 125.045 106.498 124.992C106.274 124.939 106.044 124.912 105.81 124.912C105.34 124.912 104.988 125.072 104.754 125.392C104.53 125.701 104.418 126.192 104.418 126.864V127.424H106.578V128.512ZM111.374 127.28C112.419 127.28 113.192 127.509 113.694 127.968C114.195 128.427 114.446 129.157 114.446 130.16V136H113.422L113.15 134.784H113.086C112.712 135.253 112.318 135.6 111.902 135.824C111.496 136.048 110.931 136.16 110.206 136.16C109.427 136.16 108.782 135.957 108.27 135.552C107.758 135.136 107.502 134.491 107.502 133.616C107.502 132.763 107.838 132.107 108.51 131.648C109.182 131.179 110.216 130.923 111.614 130.88L113.07 130.832V130.32C113.07 129.605 112.915 129.109 112.606 128.832C112.296 128.555 111.859 128.416 111.294 128.416C110.846 128.416 110.419 128.485 110.014 128.624C109.608 128.752 109.23 128.901 108.878 129.072L108.446 128.016C108.819 127.813 109.262 127.643 109.774 127.504C110.286 127.355 110.819 127.28 111.374 127.28ZM111.79 131.856C110.723 131.899 109.982 132.069 109.566 132.368C109.16 132.667 108.958 133.088 108.958 133.632C108.958 134.112 109.102 134.464 109.39 134.688C109.688 134.912 110.067 135.024 110.526 135.024C111.251 135.024 111.854 134.827 112.334 134.432C112.814 134.027 113.054 133.408 113.054 132.576V131.808L111.79 131.856ZM120.534 136.16C119.777 136.16 119.1 136.005 118.502 135.696C117.916 135.387 117.452 134.907 117.11 134.256C116.78 133.605 116.614 132.773 116.614 131.76C116.614 130.704 116.79 129.845 117.142 129.184C117.494 128.523 117.969 128.037 118.566 127.728C119.174 127.419 119.862 127.264 120.63 127.264C121.068 127.264 121.489 127.312 121.894 127.408C122.3 127.493 122.63 127.6 122.886 127.728L122.454 128.896C122.198 128.8 121.9 128.709 121.558 128.624C121.217 128.539 120.897 128.496 120.598 128.496C118.913 128.496 118.07 129.579 118.07 131.744C118.07 132.779 118.273 133.573 118.678 134.128C119.094 134.672 119.708 134.944 120.518 134.944C120.988 134.944 121.398 134.896 121.75 134.8C122.113 134.704 122.444 134.587 122.742 134.448V135.696C122.454 135.845 122.134 135.957 121.782 136.032C121.441 136.117 121.025 136.16 120.534 136.16ZM127.646 135.008C127.859 135.008 128.078 134.992 128.302 134.96C128.526 134.917 128.707 134.875 128.846 134.832V135.904C128.697 135.979 128.483 136.037 128.206 136.08C127.929 136.133 127.662 136.16 127.406 136.16C126.958 136.16 126.542 136.085 126.158 135.936C125.785 135.776 125.481 135.504 125.246 135.12C125.011 134.736 124.894 134.197 124.894 133.504V128.512H123.678V127.84L124.91 127.28L125.47 125.456H126.302V127.424H128.782V128.512H126.302V133.472C126.302 133.995 126.425 134.384 126.67 134.64C126.926 134.885 127.251 135.008 127.646 135.008ZM137.731 127.424V136H136.579L136.371 134.864H136.307C136.03 135.312 135.646 135.643 135.155 135.856C134.664 136.059 134.142 136.16 133.587 136.16C132.552 136.16 131.774 135.915 131.251 135.424C130.728 134.923 130.467 134.128 130.467 133.04V127.424H131.891V132.944C131.891 134.309 132.526 134.992 133.795 134.992C134.744 134.992 135.4 134.725 135.763 134.192C136.136 133.659 136.323 132.891 136.323 131.888V127.424H137.731ZM144.454 127.264C144.614 127.264 144.784 127.275 144.966 127.296C145.158 127.307 145.323 127.328 145.462 127.36L145.286 128.656C145.147 128.624 144.992 128.597 144.822 128.576C144.662 128.555 144.507 128.544 144.358 128.544C143.92 128.544 143.51 128.667 143.126 128.912C142.742 129.147 142.432 129.483 142.198 129.92C141.974 130.347 141.862 130.848 141.862 131.424V136H140.454V127.424H141.606L141.766 128.992H141.83C142.107 128.523 142.464 128.117 142.902 127.776C143.339 127.435 143.856 127.264 144.454 127.264ZM150.063 127.264C150.799 127.264 151.428 127.424 151.951 127.744C152.484 128.064 152.889 128.517 153.167 129.104C153.455 129.68 153.599 130.357 153.599 131.136V131.984H147.727C147.748 132.955 147.993 133.696 148.463 134.208C148.943 134.709 149.609 134.96 150.463 134.96C151.007 134.96 151.487 134.912 151.903 134.816C152.329 134.709 152.767 134.56 153.215 134.368V135.6C152.777 135.792 152.345 135.931 151.919 136.016C151.492 136.112 150.985 136.16 150.399 136.16C149.588 136.16 148.868 135.995 148.239 135.664C147.62 135.333 147.135 134.843 146.783 134.192C146.441 133.531 146.271 132.725 146.271 131.776C146.271 130.837 146.425 130.032 146.735 129.36C147.055 128.688 147.497 128.171 148.063 127.808C148.639 127.445 149.305 127.264 150.063 127.264ZM150.047 128.416C149.375 128.416 148.841 128.635 148.447 129.072C148.063 129.499 147.833 130.096 147.759 130.864H152.127C152.116 130.139 151.945 129.552 151.615 129.104C151.284 128.645 150.761 128.416 150.047 128.416ZM159.782 127.264C159.942 127.264 160.113 127.275 160.294 127.296C160.486 127.307 160.651 127.328 160.79 127.36L160.614 128.656C160.475 128.624 160.321 128.597 160.15 128.576C159.99 128.555 159.835 128.544 159.686 128.544C159.249 128.544 158.838 128.667 158.454 128.912C158.07 129.147 157.761 129.483 157.526 129.92C157.302 130.347 157.19 130.848 157.19 131.424V136H155.782V127.424H156.934L157.094 128.992H157.158C157.435 128.523 157.793 128.117 158.23 127.776C158.667 127.435 159.185 127.264 159.782 127.264Z" fill="#2F2D44"/>
<path d="M92.592 176L88.832 165.984H88.768C88.8 166.315 88.8267 166.763 88.848 167.328C88.8693 167.883 88.88 168.464 88.88 169.072V176H87.552V164.576H89.68L93.2 173.936H93.264L96.848 164.576H98.96V176H97.536V168.976C97.536 168.421 97.5467 167.872 97.568 167.328C97.6 166.784 97.6267 166.341 97.648 166H97.584L93.776 176H92.592ZM109.332 171.696C109.332 173.115 108.969 174.213 108.244 174.992C107.529 175.771 106.558 176.16 105.332 176.16C104.574 176.16 103.897 175.989 103.3 175.648C102.713 175.296 102.249 174.789 101.908 174.128C101.566 173.456 101.396 172.645 101.396 171.696C101.396 170.277 101.753 169.184 102.468 168.416C103.182 167.648 104.153 167.264 105.38 167.264C106.158 167.264 106.841 167.44 107.428 167.792C108.025 168.133 108.489 168.635 108.82 169.296C109.161 169.947 109.332 170.747 109.332 171.696ZM102.852 171.696C102.852 172.709 103.049 173.515 103.444 174.112C103.849 174.699 104.489 174.992 105.364 174.992C106.228 174.992 106.862 174.699 107.268 174.112C107.673 173.515 107.876 172.709 107.876 171.696C107.876 170.683 107.673 169.888 107.268 169.312C106.862 168.736 106.222 168.448 105.348 168.448C104.473 168.448 103.838 168.736 103.444 169.312C103.049 169.888 102.852 170.683 102.852 171.696ZM114.603 176.16C113.536 176.16 112.683 175.792 112.043 175.056C111.403 174.309 111.083 173.2 111.083 171.728C111.083 170.256 111.403 169.147 112.043 168.4C112.694 167.643 113.552 167.264 114.619 167.264C115.28 167.264 115.819 167.387 116.235 167.632C116.662 167.877 117.008 168.176 117.275 168.528H117.371C117.36 168.389 117.339 168.187 117.307 167.92C117.286 167.643 117.275 167.424 117.275 167.264V163.84H118.683V176H117.547L117.339 174.848H117.275C117.019 175.211 116.678 175.52 116.251 175.776C115.824 176.032 115.275 176.16 114.603 176.16ZM114.827 174.992C115.734 174.992 116.368 174.747 116.731 174.256C117.104 173.755 117.291 173.003 117.291 172V171.744C117.291 170.677 117.115 169.861 116.763 169.296C116.411 168.72 115.76 168.432 114.811 168.432C114.054 168.432 113.483 168.736 113.099 169.344C112.726 169.941 112.539 170.747 112.539 171.76C112.539 172.784 112.726 173.579 113.099 174.144C113.483 174.709 114.059 174.992 114.827 174.992ZM124.719 167.264C125.455 167.264 126.084 167.424 126.607 167.744C127.14 168.064 127.546 168.517 127.823 169.104C128.111 169.68 128.255 170.357 128.255 171.136V171.984H122.383C122.404 172.955 122.65 173.696 123.119 174.208C123.599 174.709 124.266 174.96 125.119 174.96C125.663 174.96 126.143 174.912 126.559 174.816C126.986 174.709 127.423 174.56 127.871 174.368V175.6C127.434 175.792 127.002 175.931 126.575 176.016C126.148 176.112 125.642 176.16 125.055 176.16C124.244 176.16 123.524 175.995 122.895 175.664C122.276 175.333 121.791 174.843 121.439 174.192C121.098 173.531 120.927 172.725 120.927 171.776C120.927 170.837 121.082 170.032 121.391 169.36C121.711 168.688 122.154 168.171 122.719 167.808C123.295 167.445 123.962 167.264 124.719 167.264ZM124.703 168.416C124.031 168.416 123.498 168.635 123.103 169.072C122.719 169.499 122.49 170.096 122.415 170.864H126.783C126.772 170.139 126.602 169.552 126.271 169.104C125.94 168.645 125.418 168.416 124.703 168.416ZM131.846 176H130.438V163.84H131.846V176Z" fill="#2F2D44"/>
<path d="M257.592 152L253.832 141.984H253.768C253.8 142.315 253.827 142.763 253.848 143.328C253.869 143.883 253.88 144.464 253.88 145.072V152H252.552V140.576H254.68L258.2 149.936H258.264L261.848 140.576H263.96V152H262.536V144.976C262.536 144.421 262.547 143.872 262.568 143.328C262.6 142.784 262.627 142.341 262.648 142H262.584L258.776 152H257.592ZM274.332 147.696C274.332 149.115 273.969 150.213 273.244 150.992C272.529 151.771 271.558 152.16 270.332 152.16C269.574 152.16 268.897 151.989 268.3 151.648C267.713 151.296 267.249 150.789 266.908 150.128C266.566 149.456 266.396 148.645 266.396 147.696C266.396 146.277 266.753 145.184 267.468 144.416C268.182 143.648 269.153 143.264 270.38 143.264C271.158 143.264 271.841 143.44 272.428 143.792C273.025 144.133 273.489 144.635 273.82 145.296C274.161 145.947 274.332 146.747 274.332 147.696ZM267.852 147.696C267.852 148.709 268.049 149.515 268.444 150.112C268.849 150.699 269.489 150.992 270.364 150.992C271.228 150.992 271.862 150.699 272.268 150.112C272.673 149.515 272.876 148.709 272.876 147.696C272.876 146.683 272.673 145.888 272.268 145.312C271.862 144.736 271.222 144.448 270.348 144.448C269.473 144.448 268.838 144.736 268.444 145.312C268.049 145.888 267.852 146.683 267.852 147.696ZM279.603 152.16C278.536 152.16 277.683 151.792 277.043 151.056C276.403 150.309 276.083 149.2 276.083 147.728C276.083 146.256 276.403 145.147 277.043 144.4C277.694 143.643 278.552 143.264 279.619 143.264C280.28 143.264 280.819 143.387 281.235 143.632C281.662 143.877 282.008 144.176 282.275 144.528H282.371C282.36 144.389 282.339 144.187 282.307 143.92C282.286 143.643 282.275 143.424 282.275 143.264V139.84H283.683V152H282.547L282.339 150.848H282.275C282.019 151.211 281.678 151.52 281.251 151.776C280.824 152.032 280.275 152.16 279.603 152.16ZM279.827 150.992C280.734 150.992 281.368 150.747 281.731 150.256C282.104 149.755 282.291 149.003 282.291 148V147.744C282.291 146.677 282.115 145.861 281.763 145.296C281.411 144.72 280.76 144.432 279.811 144.432C279.054 144.432 278.483 144.736 278.099 145.344C277.726 145.941 277.539 146.747 277.539 147.76C277.539 148.784 277.726 149.579 278.099 150.144C278.483 150.709 279.059 150.992 279.827 150.992ZM289.719 143.264C290.455 143.264 291.084 143.424 291.607 143.744C292.14 144.064 292.546 144.517 292.823 145.104C293.111 145.68 293.255 146.357 293.255 147.136V147.984H287.383C287.404 148.955 287.65 149.696 288.119 150.208C288.599 150.709 289.266 150.96 290.119 150.96C290.663 150.96 291.143 150.912 291.559 150.816C291.986 150.709 292.423 150.56 292.871 150.368V151.6C292.434 151.792 292.002 151.931 291.575 152.016C291.148 152.112 290.642 152.16 290.055 152.16C289.244 152.16 288.524 151.995 287.895 151.664C287.276 151.333 286.791 150.843 286.439 150.192C286.098 149.531 285.927 148.725 285.927 147.776C285.927 146.837 286.082 146.032 286.391 145.36C286.711 144.688 287.154 144.171 287.719 143.808C288.295 143.445 288.962 143.264 289.719 143.264ZM289.703 144.416C289.031 144.416 288.498 144.635 288.103 145.072C287.719 145.499 287.49 146.096 287.415 146.864H291.783C291.772 146.139 291.602 145.552 291.271 145.104C290.94 144.645 290.418 144.416 289.703 144.416ZM296.846 152H295.438V139.84H296.846V152ZM307.671 144.512H305.511V152H304.103V144.512H302.599V143.856L304.103 143.376V142.88C304.103 141.771 304.349 140.976 304.839 140.496C305.33 140.005 306.013 139.76 306.887 139.76C307.229 139.76 307.538 139.792 307.815 139.856C308.103 139.909 308.349 139.973 308.551 140.048L308.183 141.152C308.013 141.099 307.815 141.045 307.591 140.992C307.367 140.939 307.138 140.912 306.903 140.912C306.434 140.912 306.082 141.072 305.847 141.392C305.623 141.701 305.511 142.192 305.511 142.864V143.424H307.671V144.512ZM316.387 143.424V152H315.235L315.027 150.864H314.963C314.686 151.312 314.302 151.643 313.811 151.856C313.321 152.059 312.798 152.16 312.243 152.16C311.209 152.16 310.43 151.915 309.907 151.424C309.385 150.923 309.123 150.128 309.123 149.04V143.424H310.547V148.944C310.547 150.309 311.182 150.992 312.451 150.992C313.401 150.992 314.057 150.725 314.419 150.192C314.793 149.659 314.979 148.891 314.979 147.888V143.424H316.387ZM320.518 152H319.11V139.84H320.518V152ZM324.643 152H323.235V139.84H324.643V152ZM335.644 143.264C336.668 143.264 337.442 143.515 337.964 144.016C338.487 144.507 338.748 145.307 338.748 146.416V152H337.356V146.512C337.356 145.136 336.716 144.448 335.436 144.448C334.487 144.448 333.831 144.715 333.468 145.248C333.106 145.781 332.924 146.549 332.924 147.552V152H331.516V143.424H332.652L332.86 144.592H332.94C333.218 144.144 333.602 143.813 334.092 143.6C334.583 143.376 335.1 143.264 335.644 143.264ZM344.655 143.28C345.7 143.28 346.474 143.509 346.975 143.968C347.476 144.427 347.727 145.157 347.727 146.16V152H346.703L346.431 150.784H346.367C345.994 151.253 345.599 151.6 345.183 151.824C344.778 152.048 344.212 152.16 343.487 152.16C342.708 152.16 342.063 151.957 341.551 151.552C341.039 151.136 340.783 150.491 340.783 149.616C340.783 148.763 341.119 148.107 341.791 147.648C342.463 147.179 343.498 146.923 344.895 146.88L346.351 146.832V146.32C346.351 145.605 346.196 145.109 345.887 144.832C345.578 144.555 345.14 144.416 344.575 144.416C344.127 144.416 343.7 144.485 343.295 144.624C342.89 144.752 342.511 144.901 342.159 145.072L341.727 144.016C342.1 143.813 342.543 143.643 343.055 143.504C343.567 143.355 344.1 143.28 344.655 143.28ZM345.071 147.856C344.004 147.899 343.263 148.069 342.847 148.368C342.442 148.667 342.239 149.088 342.239 149.632C342.239 150.112 342.383 150.464 342.671 150.688C342.97 150.912 343.348 151.024 343.807 151.024C344.532 151.024 345.135 150.827 345.615 150.432C346.095 150.027 346.335 149.408 346.335 148.576V147.808L345.071 147.856ZM359.784 143.264C360.754 143.264 361.48 143.515 361.96 144.016C362.44 144.507 362.68 145.307 362.68 146.416V152H361.288V146.48C361.288 145.125 360.706 144.448 359.544 144.448C358.712 144.448 358.114 144.688 357.752 145.168C357.4 145.648 357.224 146.347 357.224 147.264V152H355.832V146.48C355.832 145.125 355.245 144.448 354.072 144.448C353.208 144.448 352.61 144.715 352.28 145.248C351.949 145.781 351.784 146.549 351.784 147.552V152H350.376V143.424H351.512L351.72 144.592H351.8C352.066 144.144 352.424 143.813 352.872 143.6C353.33 143.376 353.816 143.264 354.328 143.264C355.672 143.264 356.546 143.744 356.952 144.704H357.032C357.32 144.213 357.709 143.851 358.2 143.616C358.701 143.381 359.229 143.264 359.784 143.264ZM368.641 143.264C369.377 143.264 370.006 143.424 370.529 143.744C371.062 144.064 371.467 144.517 371.745 145.104C372.033 145.68 372.177 146.357 372.177 147.136V147.984H366.305C366.326 148.955 366.571 149.696 367.041 150.208C367.521 150.709 368.187 150.96 369.041 150.96C369.585 150.96 370.065 150.912 370.481 150.816C370.907 150.709 371.345 150.56 371.793 150.368V151.6C371.355 151.792 370.923 151.931 370.497 152.016C370.07 152.112 369.563 152.16 368.977 152.16C368.166 152.16 367.446 151.995 366.817 151.664C366.198 151.333 365.713 150.843 365.361 150.192C365.019 149.531 364.849 148.725 364.849 147.776C364.849 146.837 365.003 146.032 365.313 145.36C365.633 144.688 366.075 144.171 366.641 143.808C367.217 143.445 367.883 143.264 368.641 143.264ZM368.625 144.416C367.953 144.416 367.419 144.635 367.025 145.072C366.641 145.499 366.411 146.096 366.337 146.864H370.705C370.694 146.139 370.523 145.552 370.193 145.104C369.862 144.645 369.339 144.416 368.625 144.416Z" fill="#2F2D44"/>
<path d="M242.592 61L238.832 50.984H238.768C238.8 51.3147 238.827 51.7627 238.848 52.328C238.869 52.8827 238.88 53.464 238.88 54.072V61H237.552V49.576H239.68L243.2 58.936H243.264L246.848 49.576H248.96V61H247.536V53.976C247.536 53.4213 247.547 52.872 247.568 52.328C247.6 51.784 247.627 51.3413 247.648 51H247.584L243.776 61H242.592ZM255.124 52.28C256.169 52.28 256.942 52.5093 257.444 52.968C257.945 53.4267 258.196 54.1573 258.196 55.16V61H257.172L256.9 59.784H256.836C256.462 60.2533 256.068 60.6 255.652 60.824C255.246 61.048 254.681 61.16 253.956 61.16C253.177 61.16 252.532 60.9573 252.02 60.552C251.508 60.136 251.252 59.4907 251.252 58.616C251.252 57.7627 251.588 57.1067 252.26 56.648C252.932 56.1787 253.966 55.9227 255.364 55.88L256.82 55.832V55.32C256.82 54.6053 256.665 54.1093 256.356 53.832C256.046 53.5547 255.609 53.416 255.044 53.416C254.596 53.416 254.169 53.4853 253.764 53.624C253.358 53.752 252.98 53.9013 252.628 54.072L252.196 53.016C252.569 52.8133 253.012 52.6427 253.524 52.504C254.036 52.3547 254.569 52.28 255.124 52.28ZM255.54 56.856C254.473 56.8987 253.732 57.0693 253.316 57.368C252.91 57.6667 252.708 58.088 252.708 58.632C252.708 59.112 252.852 59.464 253.14 59.688C253.438 59.912 253.817 60.024 254.276 60.024C255.001 60.024 255.604 59.8267 256.084 59.432C256.564 59.0267 256.804 58.408 256.804 57.576V56.808L255.54 56.856ZM264.972 52.264C265.996 52.264 266.77 52.5147 267.292 53.016C267.815 53.5067 268.076 54.3067 268.076 55.416V61H266.684V55.512C266.684 54.136 266.044 53.448 264.764 53.448C263.815 53.448 263.159 53.7147 262.796 54.248C262.434 54.7813 262.252 55.5493 262.252 56.552V61H260.844V52.424H261.98L262.188 53.592H262.268C262.546 53.144 262.93 52.8133 263.42 52.6C263.911 52.376 264.428 52.264 264.972 52.264ZM277.903 52.424V61H276.751L276.543 59.864H276.479C276.202 60.312 275.818 60.6427 275.327 60.856C274.836 61.0587 274.314 61.16 273.759 61.16C272.724 61.16 271.946 60.9147 271.423 60.424C270.9 59.9227 270.639 59.128 270.639 58.04V52.424H272.063V57.944C272.063 59.3093 272.698 59.992 273.967 59.992C274.916 59.992 275.572 59.7253 275.935 59.192C276.308 58.6587 276.495 57.8907 276.495 56.888V52.424H277.903ZM284.578 53.512H282.418V61H281.01V53.512H279.506V52.856L281.01 52.376V51.88C281.01 50.7707 281.255 49.976 281.746 49.496C282.236 49.0053 282.919 48.76 283.794 48.76C284.135 48.76 284.444 48.792 284.722 48.856C285.01 48.9093 285.255 48.9733 285.458 49.048L285.09 50.152C284.919 50.0987 284.722 50.0453 284.498 49.992C284.274 49.9387 284.044 49.912 283.81 49.912C283.34 49.912 282.988 50.072 282.754 50.392C282.53 50.7013 282.418 51.192 282.418 51.864V52.424H284.578V53.512ZM289.374 52.28C290.419 52.28 291.192 52.5093 291.694 52.968C292.195 53.4267 292.446 54.1573 292.446 55.16V61H291.422L291.15 59.784H291.086C290.712 60.2533 290.318 60.6 289.902 60.824C289.496 61.048 288.931 61.16 288.206 61.16C287.427 61.16 286.782 60.9573 286.27 60.552C285.758 60.136 285.502 59.4907 285.502 58.616C285.502 57.7627 285.838 57.1067 286.51 56.648C287.182 56.1787 288.216 55.9227 289.614 55.88L291.07 55.832V55.32C291.07 54.6053 290.915 54.1093 290.606 53.832C290.296 53.5547 289.859 53.416 289.294 53.416C288.846 53.416 288.419 53.4853 288.014 53.624C287.608 53.752 287.23 53.9013 286.878 54.072L286.446 53.016C286.819 52.8133 287.262 52.6427 287.774 52.504C288.286 52.3547 288.819 52.28 289.374 52.28ZM289.79 56.856C288.723 56.8987 287.982 57.0693 287.566 57.368C287.16 57.6667 286.958 58.088 286.958 58.632C286.958 59.112 287.102 59.464 287.39 59.688C287.688 59.912 288.067 60.024 288.526 60.024C289.251 60.024 289.854 59.8267 290.334 59.432C290.814 59.0267 291.054 58.408 291.054 57.576V56.808L289.79 56.856ZM298.534 61.16C297.777 61.16 297.1 61.0053 296.502 60.696C295.916 60.3867 295.452 59.9067 295.11 59.256C294.78 58.6053 294.614 57.7733 294.614 56.76C294.614 55.704 294.79 54.8453 295.142 54.184C295.494 53.5227 295.969 53.0373 296.566 52.728C297.174 52.4187 297.862 52.264 298.63 52.264C299.068 52.264 299.489 52.312 299.894 52.408C300.3 52.4933 300.63 52.6 300.886 52.728L300.454 53.896C300.198 53.8 299.9 53.7093 299.558 53.624C299.217 53.5387 298.897 53.496 298.598 53.496C296.913 53.496 296.07 54.5787 296.07 56.744C296.07 57.7787 296.273 58.5733 296.678 59.128C297.094 59.672 297.708 59.944 298.518 59.944C298.988 59.944 299.398 59.896 299.75 59.8C300.113 59.704 300.444 59.5867 300.742 59.448V60.696C300.454 60.8453 300.134 60.9573 299.782 61.032C299.441 61.1173 299.025 61.16 298.534 61.16ZM305.646 60.008C305.859 60.008 306.078 59.992 306.302 59.96C306.526 59.9173 306.707 59.8747 306.846 59.832V60.904C306.697 60.9787 306.483 61.0373 306.206 61.08C305.929 61.1333 305.662 61.16 305.406 61.16C304.958 61.16 304.542 61.0853 304.158 60.936C303.785 60.776 303.481 60.504 303.246 60.12C303.011 59.736 302.894 59.1973 302.894 58.504V53.512H301.678V52.84L302.91 52.28L303.47 50.456H304.302V52.424H306.782V53.512H304.302V58.472C304.302 58.9947 304.425 59.384 304.67 59.64C304.926 59.8853 305.251 60.008 305.646 60.008ZM315.731 52.424V61H314.579L314.371 59.864H314.307C314.03 60.312 313.646 60.6427 313.155 60.856C312.664 61.0587 312.142 61.16 311.587 61.16C310.552 61.16 309.774 60.9147 309.251 60.424C308.728 59.9227 308.467 59.128 308.467 58.04V52.424H309.891V57.944C309.891 59.3093 310.526 59.992 311.795 59.992C312.744 59.992 313.4 59.7253 313.763 59.192C314.136 58.6587 314.323 57.8907 314.323 56.888V52.424H315.731ZM322.454 52.264C322.614 52.264 322.784 52.2747 322.966 52.296C323.158 52.3067 323.323 52.328 323.462 52.36L323.286 53.656C323.147 53.624 322.992 53.5973 322.822 53.576C322.662 53.5547 322.507 53.544 322.358 53.544C321.92 53.544 321.51 53.6667 321.126 53.912C320.742 54.1467 320.432 54.4827 320.198 54.92C319.974 55.3467 319.862 55.848 319.862 56.424V61H318.454V52.424H319.606L319.766 53.992H319.83C320.107 53.5227 320.464 53.1173 320.902 52.776C321.339 52.4347 321.856 52.264 322.454 52.264ZM328.063 52.264C328.799 52.264 329.428 52.424 329.951 52.744C330.484 53.064 330.889 53.5173 331.167 54.104C331.455 54.68 331.599 55.3573 331.599 56.136V56.984H325.727C325.748 57.9547 325.993 58.696 326.463 59.208C326.943 59.7093 327.609 59.96 328.463 59.96C329.007 59.96 329.487 59.912 329.903 59.816C330.329 59.7093 330.767 59.56 331.215 59.368V60.6C330.777 60.792 330.345 60.9307 329.919 61.016C329.492 61.112 328.985 61.16 328.399 61.16C327.588 61.16 326.868 60.9947 326.239 60.664C325.62 60.3333 325.135 59.8427 324.783 59.192C324.441 58.5307 324.271 57.7253 324.271 56.776C324.271 55.8373 324.425 55.032 324.735 54.36C325.055 53.688 325.497 53.1707 326.063 52.808C326.639 52.4453 327.305 52.264 328.063 52.264ZM328.047 53.416C327.375 53.416 326.841 53.6347 326.447 54.072C326.063 54.4987 325.833 55.096 325.759 55.864H330.127C330.116 55.1387 329.945 54.552 329.615 54.104C329.284 53.6453 328.761 53.416 328.047 53.416ZM337.782 52.264C337.942 52.264 338.113 52.2747 338.294 52.296C338.486 52.3067 338.651 52.328 338.79 52.36L338.614 53.656C338.475 53.624 338.321 53.5973 338.15 53.576C337.99 53.5547 337.835 53.544 337.686 53.544C337.249 53.544 336.838 53.6667 336.454 53.912C336.07 54.1467 335.761 54.4827 335.526 54.92C335.302 55.3467 335.19 55.848 335.19 56.424V61H333.782V52.424H334.934L335.094 53.992H335.158C335.435 53.5227 335.793 53.1173 336.23 52.776C336.667 52.4347 337.185 52.264 337.782 52.264ZM347.988 61.16C347.23 61.16 346.553 61.0053 345.956 60.696C345.369 60.3867 344.905 59.9067 344.564 59.256C344.233 58.6053 344.068 57.7733 344.068 56.76C344.068 55.704 344.244 54.8453 344.596 54.184C344.948 53.5227 345.422 53.0373 346.02 52.728C346.628 52.4187 347.316 52.264 348.084 52.264C348.521 52.264 348.942 52.312 349.348 52.408C349.753 52.4933 350.084 52.6 350.34 52.728L349.908 53.896C349.652 53.8 349.353 53.7093 349.012 53.624C348.67 53.5387 348.35 53.496 348.052 53.496C346.366 53.496 345.524 54.5787 345.524 56.744C345.524 57.7787 345.726 58.5733 346.132 59.128C346.548 59.672 347.161 59.944 347.972 59.944C348.441 59.944 348.852 59.896 349.204 59.8C349.566 59.704 349.897 59.5867 350.196 59.448V60.696C349.908 60.8453 349.588 60.9573 349.236 61.032C348.894 61.1173 348.478 61.16 347.988 61.16ZM359.691 56.696C359.691 58.1147 359.328 59.2133 358.603 59.992C357.888 60.7707 356.918 61.16 355.691 61.16C354.934 61.16 354.256 60.9893 353.659 60.648C353.072 60.296 352.608 59.7893 352.267 59.128C351.926 58.456 351.755 57.6453 351.755 56.696C351.755 55.2773 352.112 54.184 352.827 53.416C353.542 52.648 354.512 52.264 355.739 52.264C356.518 52.264 357.2 52.44 357.787 52.792C358.384 53.1333 358.848 53.6347 359.179 54.296C359.52 54.9467 359.691 55.7467 359.691 56.696ZM353.211 56.696C353.211 57.7093 353.408 58.5147 353.803 59.112C354.208 59.6987 354.848 59.992 355.723 59.992C356.587 59.992 357.222 59.6987 357.627 59.112C358.032 58.5147 358.235 57.7093 358.235 56.696C358.235 55.6827 358.032 54.888 357.627 54.312C357.222 53.736 356.582 53.448 355.707 53.448C354.832 53.448 354.198 53.736 353.803 54.312C353.408 54.888 353.211 55.6827 353.211 56.696ZM369.091 52.424V61H367.939L367.731 59.864H367.667C367.389 60.312 367.005 60.6427 366.515 60.856C366.024 61.0587 365.501 61.16 364.947 61.16C363.912 61.16 363.133 60.9147 362.611 60.424C362.088 59.9227 361.827 59.128 361.827 58.04V52.424H363.251V57.944C363.251 59.3093 363.885 59.992 365.155 59.992C366.104 59.992 366.76 59.7253 367.123 59.192C367.496 58.6587 367.683 57.8907 367.683 56.888V52.424H369.091ZM375.941 52.264C376.965 52.264 377.738 52.5147 378.261 53.016C378.784 53.5067 379.045 54.3067 379.045 55.416V61H377.653V55.512C377.653 54.136 377.013 53.448 375.733 53.448C374.784 53.448 374.128 53.7147 373.765 54.248C373.402 54.7813 373.221 55.5493 373.221 56.552V61H371.813V52.424H372.949L373.157 53.592H373.237C373.514 53.144 373.898 52.8133 374.389 52.6C374.88 52.376 375.397 52.264 375.941 52.264ZM384.568 60.008C384.781 60.008 385 59.992 385.224 59.96C385.448 59.9173 385.629 59.8747 385.768 59.832V60.904C385.618 60.9787 385.405 61.0373 385.128 61.08C384.85 61.1333 384.584 61.16 384.328 61.16C383.88 61.16 383.464 61.0853 383.08 60.936C382.706 60.776 382.402 60.504 382.168 60.12C381.933 59.736 381.816 59.1973 381.816 58.504V53.512H380.6V52.84L381.832 52.28L382.392 50.456H383.224V52.424H385.704V53.512H383.224V58.472C383.224 58.9947 383.346 59.384 383.592 59.64C383.848 59.8853 384.173 60.008 384.568 60.008ZM391.485 52.264C391.645 52.264 391.816 52.2747 391.997 52.296C392.189 52.3067 392.354 52.328 392.493 52.36L392.317 53.656C392.178 53.624 392.024 53.5973 391.853 53.576C391.693 53.5547 391.538 53.544 391.389 53.544C390.952 53.544 390.541 53.6667 390.157 53.912C389.773 54.1467 389.464 54.4827 389.229 54.92C389.005 55.3467 388.893 55.848 388.893 56.424V61H387.485V52.424H388.637L388.797 53.992H388.861C389.138 53.5227 389.496 53.1173 389.933 52.776C390.37 52.4347 390.888 52.264 391.485 52.264ZM392.75 52.424H394.254L396.11 57.304C396.27 57.7307 396.414 58.1413 396.542 58.536C396.67 58.92 396.766 59.288 396.83 59.64H396.894C396.958 59.3733 397.06 59.0267 397.198 58.6C397.337 58.1627 397.481 57.7253 397.63 57.288L399.374 52.424H400.894L397.198 62.184C396.9 62.9947 396.51 63.64 396.03 64.12C395.561 64.6 394.91 64.84 394.078 64.84C393.822 64.84 393.598 64.824 393.406 64.792C393.214 64.7707 393.049 64.744 392.91 64.712V63.592C393.028 63.6133 393.166 63.6347 393.326 63.656C393.497 63.6773 393.673 63.688 393.854 63.688C394.345 63.688 394.74 63.5493 395.038 63.272C395.348 62.9947 395.588 62.6267 395.758 62.168L396.206 61.032L392.75 52.424Z" fill="#2F2D44"/>
<path d="M218.024 145H189.5V147H218.024V150L227.5 146L218.024 142V145Z" fill="#5A72B0"/>
<path d="M219.363 56H183.833V58H219.363V61L231.167 57L219.363 53V56Z" fill="#B05A5A"/>
</svg>
