<svg width="450" height="386" viewBox="0 0 450 386" fill="none" xmlns="http://www.w3.org/2000/svg">
<rect width="450" height="386" fill="#F8F8F8"/>
<rect x="27" y="32" width="396" height="146" stroke="#5A72B0" stroke-width="4"/>
<rect x="73" y="100" width="60" height="60" fill="#B05A5A"/>
<path d="M96.824 128.04H99.08V126.78H96.824V125.244H95.24V126.78H92.936V128.04H95.24V128.424C95.24 130.104 94.376 131.976 92.564 132.792L93.416 134.004C94.676 133.44 95.564 132.312 96.056 130.98C96.548 132.24 97.424 133.296 98.672 133.812L99.512 132.6C97.7 131.82 96.824 130.02 96.824 128.424V128.04ZM100.1 124.98V136.032H101.684V124.98H100.1ZM112.735 124.98H111.139V133.02H112.735V124.98ZM104.299 125.772V127.032H107.791C107.755 127.356 107.695 127.656 107.587 127.956L103.735 128.076L103.963 129.312L106.963 129.084C106.339 129.84 105.307 130.476 103.723 130.956L104.335 132.192C108.103 131.004 109.459 128.892 109.459 125.772H104.299ZM106.963 134.604V132.384H105.379V135.876H113.011V134.604H106.963Z" fill="#F8F8F8"/>
<rect x="195" y="100" width="60" height="60" fill="#B05A5A"/>
<rect x="317" y="100" width="60" height="60" fill="#B05A5A"/>
<path d="M207.956 22H206.144V17.044C206.144 16.836 206.148 16.564 206.156 16.228C206.172 15.892 206.184 15.596 206.192 15.34C206.152 15.388 206.064 15.476 205.928 15.604C205.8 15.724 205.68 15.832 205.568 15.928L204.584 16.72L203.708 15.628L206.468 13.432H207.956V22ZM214.523 17.164H212.423V15.604H214.523V17.164ZM216.071 16.192H218.039V20.14H219.623V11.992H218.039V14.92H216.071V12.724H214.523V14.392H212.423V12.712H210.851V18.424H216.071V16.192ZM213.911 21.58V19.348H212.327V22.84H219.863V21.58H213.911ZM225.043 13.108V14.392H228.655C228.367 16.84 226.999 18.592 224.431 19.912L225.319 21.124C228.991 19.264 230.251 16.42 230.251 13.108H225.043ZM234.739 16.192H233.191V11.968H231.607V23.008H233.191V17.5H234.739V16.192ZM241.255 16.204H240.019C240.283 15.304 240.379 14.332 240.379 13.288H236.047V14.548H238.807C238.615 16.708 237.643 18.304 235.435 19.624L236.335 20.74C237.895 19.828 238.903 18.736 239.527 17.476H241.255V22.54H242.731V12.22H241.255V16.204ZM243.583 11.968V23.02H245.083V11.968H243.583Z" fill="#2F2D44"/>
<path d="M225.5 67.5C231.485 67.5 236.333 62.6521 236.333 56.6667C236.333 50.6813 231.485 45.8334 225.5 45.8334C219.515 45.8334 214.667 50.6813 214.667 56.6667C214.667 62.6521 219.515 67.5 225.5 67.5ZM225.5 72.9167C218.269 72.9167 203.833 76.5459 203.833 83.75V89.1667H247.167V83.75C247.167 76.5459 232.731 72.9167 225.5 72.9167Z" fill="#665AB0"/>
<path d="M103.5 67.5C109.485 67.5 114.333 62.6521 114.333 56.6667C114.333 50.6813 109.485 45.8334 103.5 45.8334C97.5146 45.8334 92.6667 50.6813 92.6667 56.6667C92.6667 62.6521 97.5146 67.5 103.5 67.5ZM103.5 72.9167C96.2688 72.9167 81.8334 76.5459 81.8334 83.75V89.1667H125.167V83.75C125.167 76.5459 110.731 72.9167 103.5 72.9167Z" fill="#665AB0"/>
<path d="M347.5 67.5C353.485 67.5 358.333 62.6521 358.333 56.6667C358.333 50.6813 353.485 45.8334 347.5 45.8334C341.515 45.8334 336.667 50.6813 336.667 56.6667C336.667 62.6521 341.515 67.5 347.5 67.5ZM347.5 72.9167C340.269 72.9167 325.833 76.5459 325.833 83.75V89.1667H369.167V83.75C369.167 76.5459 354.731 72.9167 347.5 72.9167Z" fill="#665AB0"/>
<path d="M333.144 127.272H334.284V132.144C333.9 132.156 333.516 132.168 333.144 132.18V127.272ZM335.808 127.272H336.756V126H330.66V127.272H331.608V132.216C331.176 132.216 330.756 132.216 330.372 132.216L330.54 133.512C332.424 133.512 334.932 133.464 337.176 133.068L337.08 131.916C336.672 131.976 336.24 132 335.808 132.036V127.272ZM340.776 129.156H339.168V124.992H337.584V136.044H339.168V130.464H340.776V129.156ZM351.215 130.176C348.719 129.756 347.351 128.04 347.351 126.42V125.628H345.659V126.42C345.659 128.004 344.279 129.756 341.795 130.176L342.467 131.508C344.387 131.136 345.791 130.056 346.499 128.652C347.207 130.056 348.623 131.124 350.543 131.508L351.215 130.176ZM341.555 133.404V134.688H351.563V133.404H341.555ZM354.61 130.212H358.066V128.976H354.61V127.176H358.222V125.892H353.026V133.536H353.962C355.858 133.536 357.346 133.488 359.026 133.236L358.882 131.976C357.442 132.192 356.17 132.252 354.61 132.264V130.212ZM362.854 129.168H361.246V124.98H359.662V136.044H361.246V130.476H362.854V129.168Z" fill="#F8F8F8"/>
<path d="M217.276 127.272H218.512V132.144C218.092 132.156 217.684 132.18 217.276 132.18V127.272ZM220.036 127.272H220.984V126H214.78V127.272H215.74V132.216C215.308 132.216 214.888 132.216 214.492 132.216L214.66 133.512C216.64 133.5 219.184 133.452 221.512 133.056L221.416 131.916C220.96 131.976 220.504 132.024 220.036 132.048V127.272ZM222.124 124.992V136.044H223.72V124.992H222.124ZM229.611 127.344H231.807V126.036H225.735V127.344H228.027V127.956C228.027 129.78 227.127 131.856 225.315 132.696L226.203 133.956C227.463 133.356 228.351 132.144 228.843 130.704C229.335 132.012 230.199 133.116 231.423 133.68L232.299 132.432C230.487 131.592 229.611 129.636 229.611 127.956V127.344ZM235.815 129.192H234.207V124.98H232.623V136.032H234.207V130.5H235.815V129.192Z" fill="#F8F8F8"/>
<rect x="27" y="216" width="396" height="146" stroke="#5A72B0" stroke-width="4"/>
<rect x="73" y="284" width="60" height="60" fill="#B05A5A"/>
<path d="M96.824 312.04H99.08V310.78H96.824V309.244H95.24V310.78H92.936V312.04H95.24V312.424C95.24 314.104 94.376 315.976 92.564 316.792L93.416 318.004C94.676 317.44 95.564 316.312 96.056 314.98C96.548 316.24 97.424 317.296 98.672 317.812L99.512 316.6C97.7 315.82 96.824 314.02 96.824 312.424V312.04ZM100.1 308.98V320.032H101.684V308.98H100.1ZM112.735 308.98H111.139V317.02H112.735V308.98ZM104.299 309.772V311.032H107.791C107.755 311.356 107.695 311.656 107.587 311.956L103.735 312.076L103.963 313.312L106.963 313.084C106.339 313.84 105.307 314.476 103.723 314.956L104.335 316.192C108.103 315.004 109.459 312.892 109.459 309.772H104.299ZM106.963 318.604V316.384H105.379V319.876H113.011V318.604H106.963Z" fill="#F8F8F8"/>
<rect x="195" y="284" width="60" height="60" fill="#B05A5A"/>
<rect x="317" y="284" width="60" height="60" fill="#B05A5A"/>
<path d="M209.468 206H203.48V204.74L205.628 202.568C206.06 202.12 206.408 201.748 206.672 201.452C206.936 201.148 207.128 200.876 207.248 200.636C207.368 200.388 207.428 200.124 207.428 199.844C207.428 199.5 207.332 199.244 207.14 199.076C206.956 198.908 206.704 198.824 206.384 198.824C206.056 198.824 205.736 198.9 205.424 199.052C205.112 199.204 204.784 199.42 204.44 199.7L203.456 198.536C203.704 198.32 203.964 198.12 204.236 197.936C204.516 197.752 204.836 197.604 205.196 197.492C205.564 197.372 206.004 197.312 206.516 197.312C207.076 197.312 207.556 197.416 207.956 197.624C208.364 197.824 208.676 198.1 208.892 198.452C209.116 198.796 209.228 199.188 209.228 199.628C209.228 200.1 209.132 200.532 208.94 200.924C208.756 201.316 208.484 201.704 208.124 202.088C207.772 202.472 207.344 202.896 206.84 203.36L205.736 204.392V204.476H209.468V206ZM214.523 201.164H212.423V199.604H214.523V201.164ZM216.071 200.192H218.039V204.14H219.623V195.992H218.039V198.92H216.071V196.724H214.523V198.392H212.423V196.712H210.851V202.424H216.071V200.192ZM213.911 205.58V203.348H212.327V206.84H219.863V205.58H213.911ZM225.043 197.108V198.392H228.655C228.367 200.84 226.999 202.592 224.431 203.912L225.319 205.124C228.991 203.264 230.251 200.42 230.251 197.108H225.043ZM234.739 200.192H233.191V195.968H231.607V207.008H233.191V201.5H234.739V200.192ZM241.255 200.204H240.019C240.283 199.304 240.379 198.332 240.379 197.288H236.047V198.548H238.807C238.615 200.708 237.643 202.304 235.435 203.624L236.335 204.74C237.895 203.828 238.903 202.736 239.527 201.476H241.255V206.54H242.731V196.22H241.255V200.204ZM243.583 195.968V207.02H245.083V195.968H243.583Z" fill="#2F2D44"/>
<path d="M225.5 251.5C231.485 251.5 236.333 246.652 236.333 240.667C236.333 234.681 231.485 229.833 225.5 229.833C219.515 229.833 214.667 234.681 214.667 240.667C214.667 246.652 219.515 251.5 225.5 251.5ZM225.5 256.917C218.269 256.917 203.833 260.546 203.833 267.75V273.167H247.167V267.75C247.167 260.546 232.731 256.917 225.5 256.917Z" fill="#665AB0"/>
<path d="M103.5 251.5C109.485 251.5 114.333 246.652 114.333 240.667C114.333 234.681 109.485 229.833 103.5 229.833C97.5146 229.833 92.6667 234.681 92.6667 240.667C92.6667 246.652 97.5146 251.5 103.5 251.5ZM103.5 256.917C96.2688 256.917 81.8334 260.546 81.8334 267.75V273.167H125.167V267.75C125.167 260.546 110.731 256.917 103.5 256.917Z" fill="#665AB0"/>
<path d="M347.5 251.5C353.485 251.5 358.333 246.652 358.333 240.667C358.333 234.681 353.485 229.833 347.5 229.833C341.515 229.833 336.667 234.681 336.667 240.667C336.667 246.652 341.515 251.5 347.5 251.5ZM347.5 256.917C340.269 256.917 325.833 260.546 325.833 267.75V273.167H369.167V267.75C369.167 260.546 354.731 256.917 347.5 256.917Z" fill="#665AB0"/>
<path d="M333.144 311.272H334.284V316.144C333.9 316.156 333.516 316.168 333.144 316.18V311.272ZM335.808 311.272H336.756V310H330.66V311.272H331.608V316.216C331.176 316.216 330.756 316.216 330.372 316.216L330.54 317.512C332.424 317.512 334.932 317.464 337.176 317.068L337.08 315.916C336.672 315.976 336.24 316 335.808 316.036V311.272ZM340.776 313.156H339.168V308.992H337.584V320.044H339.168V314.464H340.776V313.156ZM351.215 314.176C348.719 313.756 347.351 312.04 347.351 310.42V309.628H345.659V310.42C345.659 312.004 344.279 313.756 341.795 314.176L342.467 315.508C344.387 315.136 345.791 314.056 346.499 312.652C347.207 314.056 348.623 315.124 350.543 315.508L351.215 314.176ZM341.555 317.404V318.688H351.563V317.404H341.555ZM354.61 314.212H358.066V312.976H354.61V311.176H358.222V309.892H353.026V317.536H353.962C355.858 317.536 357.346 317.488 359.026 317.236L358.882 315.976C357.442 316.192 356.17 316.252 354.61 316.264V314.212ZM362.854 313.168H361.246V308.98H359.662V320.044H361.246V314.476H362.854V313.168Z" fill="#F8F8F8"/>
<path d="M217.276 311.272H218.512V316.144C218.092 316.156 217.684 316.18 217.276 316.18V311.272ZM220.036 311.272H220.984V310H214.78V311.272H215.74V316.216C215.308 316.216 214.888 316.216 214.492 316.216L214.66 317.512C216.64 317.5 219.184 317.452 221.512 317.056L221.416 315.916C220.96 315.976 220.504 316.024 220.036 316.048V311.272ZM222.124 308.992V320.044H223.72V308.992H222.124ZM229.611 311.344H231.807V310.036H225.735V311.344H228.027V311.956C228.027 313.78 227.127 315.856 225.315 316.696L226.203 317.956C227.463 317.356 228.351 316.144 228.843 314.704C229.335 316.012 230.199 317.116 231.423 317.68L232.299 316.432C230.487 315.592 229.611 313.636 229.611 311.956V311.344ZM235.815 313.192H234.207V308.98H232.623V320.032H234.207V314.5H235.815V313.192Z" fill="#F8F8F8"/>
</svg>
