<svg width="450" height="192" viewBox="0 0 450 192" fill="none" xmlns="http://www.w3.org/2000/svg">
<rect width="450" height="192" fill="#F8F8F8"/>
<rect x="27" y="32" width="396" height="146" stroke="#5A72B0" stroke-width="4"/>
<rect x="73" y="100" width="60" height="60" fill="#B05A5A"/>
<path d="M96.824 128.04H99.08V126.78H96.824V125.244H95.24V126.78H92.936V128.04H95.24V128.424C95.24 130.104 94.376 131.976 92.564 132.792L93.416 134.004C94.676 133.44 95.564 132.312 96.056 130.98C96.548 132.24 97.424 133.296 98.672 133.812L99.512 132.6C97.7 131.82 96.824 130.02 96.824 128.424V128.04ZM100.1 124.98V136.032H101.684V124.98H100.1ZM112.735 124.98H111.139V133.02H112.735V124.98ZM104.299 125.772V127.032H107.791C107.755 127.356 107.695 127.656 107.587 127.956L103.735 128.076L103.963 129.312L106.963 129.084C106.339 129.84 105.307 130.476 103.723 130.956L104.335 132.192C108.103 131.004 109.459 128.892 109.459 125.772H104.299ZM106.963 134.604V132.384H105.379V135.876H113.011V134.604H106.963Z" fill="#F8F8F8"/>
<rect x="195" y="100" width="60" height="60" fill="#B05A5A"/>
<rect x="317" y="100" width="60" height="60" fill="#B05A5A"/>
<path d="M207.956 22H206.144V17.044C206.144 16.836 206.148 16.564 206.156 16.228C206.172 15.892 206.184 15.596 206.192 15.34C206.152 15.388 206.064 15.476 205.928 15.604C205.8 15.724 205.68 15.832 205.568 15.928L204.584 16.72L203.708 15.628L206.468 13.432H207.956V22ZM214.523 17.164H212.423V15.604H214.523V17.164ZM216.071 16.192H218.039V20.14H219.623V11.992H218.039V14.92H216.071V12.724H214.523V14.392H212.423V12.712H210.851V18.424H216.071V16.192ZM213.911 21.58V19.348H212.327V22.84H219.863V21.58H213.911ZM225.043 13.108V14.392H228.655C228.367 16.84 226.999 18.592 224.431 19.912L225.319 21.124C228.991 19.264 230.251 16.42 230.251 13.108H225.043ZM234.739 16.192H233.191V11.968H231.607V23.008H233.191V17.5H234.739V16.192ZM241.255 16.204H240.019C240.283 15.304 240.379 14.332 240.379 13.288H236.047V14.548H238.807C238.615 16.708 237.643 18.304 235.435 19.624L236.335 20.74C237.895 19.828 238.903 18.736 239.527 17.476H241.255V22.54H242.731V12.22H241.255V16.204ZM243.583 11.968V23.02H245.083V11.968H243.583Z" fill="#2F2D44"/>
<path d="M225.5 67.5C231.485 67.5 236.333 62.6521 236.333 56.6667C236.333 50.6813 231.485 45.8334 225.5 45.8334C219.515 45.8334 214.667 50.6813 214.667 56.6667C214.667 62.6521 219.515 67.5 225.5 67.5ZM225.5 72.9167C218.269 72.9167 203.833 76.5459 203.833 83.75V89.1667H247.167V83.75C247.167 76.5459 232.731 72.9167 225.5 72.9167Z" fill="#665AB0"/>
<path d="M333.144 127.272H334.284V132.144C333.9 132.156 333.516 132.168 333.144 132.18V127.272ZM335.808 127.272H336.756V126H330.66V127.272H331.608V132.216C331.176 132.216 330.756 132.216 330.372 132.216L330.54 133.512C332.424 133.512 334.932 133.464 337.176 133.068L337.08 131.916C336.672 131.976 336.24 132 335.808 132.036V127.272ZM340.776 129.156H339.168V124.992H337.584V136.044H339.168V130.464H340.776V129.156ZM351.215 130.176C348.719 129.756 347.351 128.04 347.351 126.42V125.628H345.659V126.42C345.659 128.004 344.279 129.756 341.795 130.176L342.467 131.508C344.387 131.136 345.791 130.056 346.499 128.652C347.207 130.056 348.623 131.124 350.543 131.508L351.215 130.176ZM341.555 133.404V134.688H351.563V133.404H341.555ZM354.61 130.212H358.066V128.976H354.61V127.176H358.222V125.892H353.026V133.536H353.962C355.858 133.536 357.346 133.488 359.026 133.236L358.882 131.976C357.442 132.192 356.17 132.252 354.61 132.264V130.212ZM362.854 129.168H361.246V124.98H359.662V136.044H361.246V130.476H362.854V129.168Z" fill="#F8F8F8"/>
<path d="M217.276 127.272H218.512V132.144C218.092 132.156 217.684 132.18 217.276 132.18V127.272ZM220.036 127.272H220.984V126H214.78V127.272H215.74V132.216C215.308 132.216 214.888 132.216 214.492 132.216L214.66 133.512C216.64 133.5 219.184 133.452 221.512 133.056L221.416 131.916C220.96 131.976 220.504 132.024 220.036 132.048V127.272ZM222.124 124.992V136.044H223.72V124.992H222.124ZM229.611 127.344H231.807V126.036H225.735V127.344H228.027V127.956C228.027 129.78 227.127 131.856 225.315 132.696L226.203 133.956C227.463 133.356 228.351 132.144 228.843 130.704C229.335 132.012 230.199 133.116 231.423 133.68L232.299 132.432C230.487 131.592 229.611 129.636 229.611 127.956V127.344ZM235.815 129.192H234.207V124.98H232.623V136.032H234.207V130.5H235.815V129.192Z" fill="#F8F8F8"/>
</svg>
