<svg width="450" height="386" viewBox="0 0 450 386" fill="none" xmlns="http://www.w3.org/2000/svg">
<rect width="450" height="386" fill="#F8F8F8"/>
<rect x="27" y="47" width="396" height="151" stroke="#5A72B0" stroke-width="4"/>
<path d="M96.824 148.04H99.08V146.78H96.824V145.244H95.24V146.78H92.936V148.04H95.24V148.424C95.24 150.104 94.376 151.976 92.564 152.792L93.416 154.004C94.676 153.44 95.564 152.312 96.056 150.98C96.548 152.24 97.424 153.296 98.672 153.812L99.512 152.6C97.7 151.82 96.824 150.02 96.824 148.424V148.04ZM100.1 144.98V156.032H101.684V144.98H100.1ZM112.735 144.98H111.139V153.02H112.735V144.98ZM104.299 145.772V147.032H107.791C107.755 147.356 107.695 147.656 107.587 147.956L103.735 148.076L103.963 149.312L106.963 149.084C106.339 149.84 105.307 150.476 103.723 150.956L104.335 152.192C108.103 151.004 109.459 148.892 109.459 145.772H104.299ZM106.963 154.604V152.384H105.379V155.876H113.011V154.604H106.963Z" fill="#F8F8F8"/>
<rect x="85.5" y="120.5" width="59" height="59" stroke="#665AB0"/>
<rect x="317.5" y="120.5" width="59" height="59" stroke="#665AB0"/>
<path d="M115.5 87.5C121.485 87.5 126.333 82.6521 126.333 76.6667C126.333 70.6813 121.485 65.8334 115.5 65.8334C109.515 65.8334 104.667 70.6813 104.667 76.6667C104.667 82.6521 109.515 87.5 115.5 87.5ZM115.5 92.9167C108.269 92.9167 93.8333 96.5459 93.8333 103.75V109.167H137.167V103.75C137.167 96.5459 122.731 92.9167 115.5 92.9167Z" fill="#665AB0"/>
<path d="M111.436 54.024H109.852V61.32H110.812C112.42 61.32 114.196 61.224 116.032 60.84L115.876 59.544C114.328 59.844 112.828 59.964 111.436 60V54.024ZM119.716 57.144H118.168V52.968H116.584V64.008H118.168V58.452H119.716V57.144Z" fill="#2F2D44"/>
<path d="M347.5 87.5C353.485 87.5 358.333 82.6521 358.333 76.6667C358.333 70.6813 353.485 65.8334 347.5 65.8334C341.515 65.8334 336.667 70.6813 336.667 76.6667C336.667 82.6521 341.515 87.5 347.5 87.5ZM347.5 92.9167C340.269 92.9167 325.833 96.5459 325.833 103.75V109.167H369.167V103.75C369.167 96.5459 354.731 92.9167 347.5 92.9167Z" fill="#665AB0"/>
<path d="M345.696 52.98H344.1V61.068H345.696V52.98ZM343.404 58.5C341.604 58.008 340.8 56.772 340.8 55.56V55.5H343.02V54.252H340.8V53.04H339.216V54.252H336.984V55.5H339.216V55.56C339.216 56.856 338.424 58.152 336.624 58.68L337.368 59.916C338.652 59.544 339.54 58.74 340.032 57.732C340.548 58.656 341.412 59.388 342.672 59.736L343.404 58.5ZM339.924 62.58V60.36H338.34V63.84H345.972V62.58H339.924ZM357.551 58.32H356.099C356.375 56.772 356.375 55.644 356.375 54.612V53.616H348.707V54.888H354.827C354.827 55.836 354.803 56.916 354.527 58.32H347.567V59.592H351.695V64.032H353.303V59.592H357.551V58.32Z" fill="#2F2D44"/>
<path d="M98.956 155H97.144V150.044C97.144 149.836 97.148 149.564 97.156 149.228C97.172 148.892 97.184 148.596 97.192 148.34C97.152 148.388 97.064 148.476 96.928 148.604C96.8 148.724 96.68 148.832 96.568 148.928L95.584 149.72L94.708 148.628L97.468 146.432H98.956V155ZM107.287 150.716C107.287 151.636 107.187 152.424 106.987 153.08C106.795 153.736 106.479 154.24 106.039 154.592C105.607 154.944 105.023 155.12 104.287 155.12C103.255 155.12 102.499 154.732 102.019 153.956C101.539 153.172 101.299 152.092 101.299 150.716C101.299 149.788 101.395 148.996 101.587 148.34C101.779 147.684 102.095 147.18 102.535 146.828C102.975 146.476 103.559 146.3 104.287 146.3C105.311 146.3 106.067 146.688 106.555 147.464C107.043 148.24 107.287 149.324 107.287 150.716ZM103.099 150.716C103.099 151.692 103.183 152.428 103.351 152.924C103.519 153.412 103.831 153.656 104.287 153.656C104.735 153.656 105.047 153.412 105.223 152.924C105.399 152.436 105.487 151.7 105.487 150.716C105.487 149.74 105.399 149.004 105.223 148.508C105.047 148.012 104.735 147.764 104.287 147.764C103.831 147.764 103.519 148.012 103.351 148.508C103.183 149.004 103.099 149.74 103.099 150.716ZM114.154 150.716C114.154 151.636 114.054 152.424 113.854 153.08C113.662 153.736 113.346 154.24 112.906 154.592C112.474 154.944 111.89 155.12 111.154 155.12C110.122 155.12 109.366 154.732 108.886 153.956C108.406 153.172 108.166 152.092 108.166 150.716C108.166 149.788 108.262 148.996 108.454 148.34C108.646 147.684 108.962 147.18 109.402 146.828C109.842 146.476 110.426 146.3 111.154 146.3C112.178 146.3 112.934 146.688 113.422 147.464C113.91 148.24 114.154 149.324 114.154 150.716ZM109.966 150.716C109.966 151.692 110.05 152.428 110.218 152.924C110.386 153.412 110.698 153.656 111.154 153.656C111.602 153.656 111.914 153.412 112.09 152.924C112.266 152.436 112.354 151.7 112.354 150.716C112.354 149.74 112.266 149.004 112.09 148.508C111.914 148.012 111.602 147.764 111.154 147.764C110.698 147.764 110.386 148.012 110.218 148.508C110.05 149.004 109.966 149.74 109.966 150.716ZM119.15 149.972H116.99V147.14H119.15V149.972ZM120.71 145.892H115.442V151.22H120.71V145.892ZM118.274 152.252H116.69V155.84H124.214V154.58H118.274V152.252ZM123.818 148.172V144.98H122.234V153.044H123.818V149.468H125.282V148.172H123.818ZM131.797 151.4V152.48H133.873V153.356H135.457V144.98H133.873V151.4H131.797ZM129.673 146.504C130.405 146.504 130.921 146.792 130.921 147.332C130.921 147.872 130.405 148.148 129.673 148.148C128.929 148.148 128.413 147.872 128.413 147.332C128.413 146.792 128.929 146.504 129.673 146.504ZM129.673 149.3C131.281 149.3 132.421 148.508 132.421 147.332C132.421 146.156 131.281 145.352 129.673 145.352C128.053 145.352 126.925 146.156 126.925 147.332C126.925 148.508 128.053 149.3 129.673 149.3ZM129.085 154.58V153.068H130.609V150.98C131.497 150.908 132.385 150.812 133.249 150.668L133.141 149.54C130.813 149.84 128.125 149.864 126.109 149.876L126.313 151.136C127.141 151.136 128.065 151.124 129.037 151.076V152.552H127.501V155.84H135.697V154.58H129.085Z" fill="#665AB0"/>
<path d="M219.317 130.65L226.95 123L219.317 115.35L221.667 113L231.667 123L221.667 133L219.317 130.65Z" fill="#B05A5A"/>
<path d="M222.088 89.968V101.056H223.672V89.968H222.088ZM217.732 90.748C216.064 90.748 214.828 92.26 214.828 94.684C214.828 97.12 216.064 98.644 217.732 98.644C219.4 98.644 220.636 97.12 220.636 94.684C220.636 92.26 219.4 90.748 217.732 90.748ZM217.732 92.176C218.548 92.176 219.112 93.052 219.112 94.684C219.112 96.328 218.548 97.204 217.732 97.204C216.916 97.204 216.352 96.328 216.352 94.684C216.352 93.052 216.916 92.176 217.732 92.176ZM228.987 93.1H230.679V91.828H228.987V90.34H227.487V91.828H225.759V93.1H227.487V93.328C227.487 95.032 226.923 96.844 225.351 97.768L226.239 98.956C227.235 98.38 227.883 97.396 228.255 96.244C228.651 97.3 229.287 98.176 230.259 98.692L231.111 97.516C229.551 96.688 228.987 94.996 228.987 93.328V93.1ZM231.303 94.156H230.043V95.44H231.303V100.528H232.779V90.16H231.303V94.156ZM233.535 89.968V101.02H235.035V89.968H233.535Z" fill="#2F2D44"/>
<path d="M344.42 150.716C344.42 151.636 344.32 152.424 344.12 153.08C343.928 153.736 343.612 154.24 343.172 154.592C342.74 154.944 342.156 155.12 341.42 155.12C340.388 155.12 339.632 154.732 339.152 153.956C338.672 153.172 338.432 152.092 338.432 150.716C338.432 149.788 338.528 148.996 338.72 148.34C338.912 147.684 339.228 147.18 339.668 146.828C340.108 146.476 340.692 146.3 341.42 146.3C342.444 146.3 343.2 146.688 343.688 147.464C344.176 148.24 344.42 149.324 344.42 150.716ZM340.232 150.716C340.232 151.692 340.316 152.428 340.484 152.924C340.652 153.412 340.964 153.656 341.42 153.656C341.868 153.656 342.18 153.412 342.356 152.924C342.532 152.436 342.62 151.7 342.62 150.716C342.62 149.74 342.532 149.004 342.356 148.508C342.18 148.012 341.868 147.764 341.42 147.764C340.964 147.764 340.652 148.012 340.484 148.508C340.316 149.004 340.232 149.74 340.232 150.716ZM351.023 151.4V152.48H353.099V153.356H354.683V144.98H353.099V151.4H351.023ZM348.899 146.504C349.631 146.504 350.147 146.792 350.147 147.332C350.147 147.872 349.631 148.148 348.899 148.148C348.155 148.148 347.639 147.872 347.639 147.332C347.639 146.792 348.155 146.504 348.899 146.504ZM348.899 149.3C350.507 149.3 351.647 148.508 351.647 147.332C351.647 146.156 350.507 145.352 348.899 145.352C347.279 145.352 346.151 146.156 346.151 147.332C346.151 148.508 347.279 149.3 348.899 149.3ZM348.311 154.58V153.068H349.835V150.98C350.723 150.908 351.611 150.812 352.475 150.668L352.367 149.54C350.039 149.84 347.351 149.864 345.335 149.876L345.539 151.136C346.367 151.136 347.291 151.124 348.263 151.076V152.552H346.727V155.84H354.923V154.58H348.311Z" fill="#5A72B0"/>
<path d="M165.38 31H163.568V23.944H161.24V22.432H167.708V23.944H165.38V31ZM171.948 24.328C172.036 24.328 172.14 24.332 172.26 24.34C172.38 24.348 172.476 24.36 172.548 24.376L172.416 26.056C172.36 26.04 172.276 26.028 172.164 26.02C172.06 26.004 171.968 25.996 171.888 25.996C171.584 25.996 171.292 26.052 171.012 26.164C170.732 26.268 170.504 26.44 170.328 26.68C170.16 26.92 170.076 27.248 170.076 27.664V31H168.288V24.448H169.644L169.908 25.552H169.992C170.184 25.216 170.448 24.928 170.784 24.688C171.12 24.448 171.508 24.328 171.948 24.328ZM176.19 24.316C177.07 24.316 177.742 24.508 178.206 24.892C178.678 25.268 178.914 25.848 178.914 26.632V31H177.666L177.318 30.112H177.27C176.99 30.464 176.694 30.72 176.382 30.88C176.07 31.04 175.642 31.12 175.098 31.12C174.514 31.12 174.03 30.952 173.646 30.616C173.262 30.272 173.07 29.748 173.07 29.044C173.07 28.348 173.314 27.836 173.802 27.508C174.29 27.172 175.022 26.988 175.998 26.956L177.138 26.92V26.632C177.138 26.288 177.046 26.036 176.862 25.876C176.686 25.716 176.438 25.636 176.118 25.636C175.798 25.636 175.486 25.684 175.182 25.78C174.878 25.868 174.574 25.98 174.27 26.116L173.682 24.904C174.034 24.72 174.422 24.576 174.846 24.472C175.278 24.368 175.726 24.316 176.19 24.316ZM176.442 27.988C175.866 28.004 175.466 28.108 175.242 28.3C175.018 28.492 174.906 28.744 174.906 29.056C174.906 29.328 174.986 29.524 175.146 29.644C175.306 29.756 175.514 29.812 175.77 29.812C176.154 29.812 176.478 29.7 176.742 29.476C177.006 29.244 177.138 28.92 177.138 28.504V27.964L176.442 27.988ZM184.465 24.328C185.169 24.328 185.733 24.52 186.157 24.904C186.581 25.28 186.793 25.888 186.793 26.728V31H185.005V27.172C185.005 26.7 184.921 26.348 184.753 26.116C184.585 25.876 184.317 25.756 183.949 25.756C183.405 25.756 183.033 25.944 182.833 26.32C182.633 26.688 182.533 27.22 182.533 27.916V31H180.745V24.448H182.113L182.353 25.288H182.449C182.657 24.952 182.941 24.708 183.301 24.556C183.669 24.404 184.057 24.328 184.465 24.328ZM193.203 29.056C193.203 29.72 192.967 30.232 192.495 30.592C192.031 30.944 191.335 31.12 190.407 31.12C189.951 31.12 189.559 31.088 189.231 31.024C188.903 30.968 188.575 30.872 188.247 30.736V29.26C188.599 29.42 188.979 29.552 189.387 29.656C189.795 29.76 190.155 29.812 190.467 29.812C190.819 29.812 191.067 29.76 191.211 29.656C191.363 29.552 191.439 29.416 191.439 29.248C191.439 29.136 191.407 29.036 191.343 28.948C191.287 28.86 191.159 28.76 190.959 28.648C190.759 28.536 190.447 28.392 190.023 28.216C189.615 28.04 189.279 27.868 189.015 27.7C188.751 27.524 188.555 27.316 188.427 27.076C188.299 26.828 188.235 26.52 188.235 26.152C188.235 25.544 188.471 25.088 188.943 24.784C189.415 24.48 190.043 24.328 190.827 24.328C191.235 24.328 191.623 24.368 191.991 24.448C192.359 24.528 192.739 24.66 193.131 24.844L192.591 26.128C192.271 25.992 191.967 25.88 191.679 25.792C191.391 25.696 191.099 25.648 190.803 25.648C190.275 25.648 190.011 25.792 190.011 26.08C190.011 26.184 190.043 26.28 190.107 26.368C190.179 26.448 190.311 26.536 190.503 26.632C190.703 26.728 190.995 26.856 191.379 27.016C191.755 27.168 192.079 27.328 192.351 27.496C192.623 27.656 192.831 27.86 192.975 28.108C193.127 28.348 193.203 28.664 193.203 29.056ZM197.284 24.316C198.164 24.316 198.836 24.508 199.3 24.892C199.772 25.268 200.008 25.848 200.008 26.632V31H198.76L198.412 30.112H198.364C198.084 30.464 197.788 30.72 197.476 30.88C197.164 31.04 196.736 31.12 196.192 31.12C195.608 31.12 195.124 30.952 194.74 30.616C194.356 30.272 194.164 29.748 194.164 29.044C194.164 28.348 194.408 27.836 194.896 27.508C195.384 27.172 196.116 26.988 197.092 26.956L198.232 26.92V26.632C198.232 26.288 198.14 26.036 197.956 25.876C197.78 25.716 197.532 25.636 197.212 25.636C196.892 25.636 196.58 25.684 196.276 25.78C195.972 25.868 195.668 25.98 195.364 26.116L194.776 24.904C195.128 24.72 195.516 24.576 195.94 24.472C196.372 24.368 196.82 24.316 197.284 24.316ZM197.536 27.988C196.96 28.004 196.56 28.108 196.336 28.3C196.112 28.492 196 28.744 196 29.056C196 29.328 196.08 29.524 196.24 29.644C196.4 29.756 196.608 29.812 196.864 29.812C197.248 29.812 197.572 29.7 197.836 29.476C198.1 29.244 198.232 28.92 198.232 28.504V27.964L197.536 27.988ZM204.502 31.12C203.526 31.12 202.77 30.852 202.234 30.316C201.706 29.772 201.442 28.92 201.442 27.76C201.442 26.96 201.578 26.308 201.85 25.804C202.122 25.3 202.498 24.928 202.978 24.688C203.466 24.448 204.026 24.328 204.658 24.328C205.106 24.328 205.494 24.372 205.822 24.46C206.158 24.548 206.45 24.652 206.698 24.772L206.17 26.152C205.89 26.04 205.626 25.948 205.378 25.876C205.138 25.804 204.898 25.768 204.658 25.768C203.73 25.768 203.266 26.428 203.266 27.748C203.266 28.404 203.386 28.888 203.626 29.2C203.874 29.512 204.218 29.668 204.658 29.668C205.034 29.668 205.366 29.62 205.654 29.524C205.942 29.42 206.222 29.28 206.494 29.104V30.628C206.222 30.804 205.934 30.928 205.63 31C205.334 31.08 204.958 31.12 204.502 31.12ZM210.762 29.692C210.962 29.692 211.154 29.672 211.338 29.632C211.522 29.592 211.706 29.544 211.89 29.488V30.82C211.698 30.9 211.458 30.968 211.17 31.024C210.89 31.088 210.582 31.12 210.246 31.12C209.854 31.12 209.502 31.056 209.19 30.928C208.886 30.8 208.642 30.58 208.458 30.268C208.282 29.948 208.194 29.508 208.194 28.948V25.792H207.342V25.036L208.326 24.436L208.842 23.056H209.982V24.448H211.818V25.792H209.982V28.948C209.982 29.196 210.054 29.384 210.198 29.512C210.342 29.632 210.53 29.692 210.762 29.692ZM214.106 21.88C214.37 21.88 214.598 21.944 214.79 22.072C214.982 22.192 215.078 22.42 215.078 22.756C215.078 23.084 214.982 23.312 214.79 23.44C214.598 23.568 214.37 23.632 214.106 23.632C213.834 23.632 213.602 23.568 213.41 23.44C213.226 23.312 213.134 23.084 213.134 22.756C213.134 22.42 213.226 22.192 213.41 22.072C213.602 21.944 213.834 21.88 214.106 21.88ZM214.994 24.448V31H213.206V24.448H214.994ZM222.814 27.712C222.814 28.8 222.526 29.64 221.95 30.232C221.382 30.824 220.606 31.12 219.622 31.12C219.014 31.12 218.47 30.988 217.99 30.724C217.518 30.46 217.146 30.076 216.874 29.572C216.602 29.06 216.466 28.44 216.466 27.712C216.466 26.624 216.75 25.788 217.318 25.204C217.886 24.62 218.666 24.328 219.658 24.328C220.274 24.328 220.818 24.46 221.29 24.724C221.762 24.988 222.134 25.372 222.406 25.876C222.678 26.372 222.814 26.984 222.814 27.712ZM218.29 27.712C218.29 28.36 218.394 28.852 218.602 29.188C218.818 29.516 219.166 29.68 219.646 29.68C220.118 29.68 220.458 29.516 220.666 29.188C220.882 28.852 220.99 28.36 220.99 27.712C220.99 27.064 220.882 26.58 220.666 26.26C220.458 25.932 220.114 25.768 219.634 25.768C219.162 25.768 218.818 25.932 218.602 26.26C218.394 26.58 218.29 27.064 218.29 27.712ZM228.011 24.328C228.715 24.328 229.279 24.52 229.703 24.904C230.127 25.28 230.339 25.888 230.339 26.728V31H228.551V27.172C228.551 26.7 228.467 26.348 228.299 26.116C228.131 25.876 227.863 25.756 227.495 25.756C226.951 25.756 226.579 25.944 226.379 26.32C226.179 26.688 226.079 27.22 226.079 27.916V31H224.291V24.448H225.659L225.899 25.288H225.995C226.203 24.952 226.487 24.708 226.847 24.556C227.215 24.404 227.603 24.328 228.011 24.328ZM242.447 20.968V32.056H244.031V20.968H242.447ZM238.091 21.748C236.423 21.748 235.187 23.26 235.187 25.684C235.187 28.12 236.423 29.644 238.091 29.644C239.759 29.644 240.995 28.12 240.995 25.684C240.995 23.26 239.759 21.748 238.091 21.748ZM238.091 23.176C238.907 23.176 239.471 24.052 239.471 25.684C239.471 27.328 238.907 28.204 238.091 28.204C237.275 28.204 236.711 27.328 236.711 25.684C236.711 24.052 237.275 23.176 238.091 23.176ZM250.688 23.992C250.688 23.176 251.276 22.696 252.08 22.696C252.896 22.696 253.484 23.176 253.484 23.992C253.484 24.82 252.896 25.3 252.08 25.3C251.276 25.3 250.688 24.82 250.688 23.992ZM256.688 24.628V26.824H258.272V20.98H256.688V23.344H254.912C254.612 22.168 253.496 21.388 252.08 21.388C250.424 21.388 249.176 22.48 249.176 23.992C249.176 25.516 250.424 26.608 252.08 26.608C253.496 26.608 254.624 25.816 254.924 24.628H256.688ZM252.824 30.724H251.708V29.68H252.824V30.724ZM257.552 27.364H255.992V28.192C255.992 29.188 255.488 30.208 254.276 30.772V27.46H252.824V28.54H251.708V27.46H250.244V31.9H254.276V31.072L254.9 32.02C255.788 31.672 256.388 31.048 256.748 30.292C257.108 31.06 257.72 31.684 258.644 32.02L259.424 30.844C258.08 30.376 257.552 29.332 257.552 28.192V27.364ZM262.075 23.284H265.651V22H260.503V29.404H261.439C263.359 29.404 264.871 29.344 266.539 29.044L266.383 27.736C264.955 27.976 263.647 28.06 262.075 28.084V23.284ZM270.331 25.06H268.723V20.98H267.139V32.056H268.723V26.368H270.331V25.06ZM275.226 26.02H273.126V23.104H275.226V26.02ZM278.766 23.98V25.096H276.774V23.98H278.766ZM276.774 26.356H278.766V29.032H280.35V20.98H278.766V22.72H276.774V21.868H271.566V27.268H276.774V26.356ZM274.638 30.58V28.276H273.054V31.84H280.59V30.58H274.638ZM283.253 27.724C283.253 27.324 283.337 26.988 283.505 26.716C283.673 26.444 283.961 26.16 284.369 25.864C284.729 25.608 284.985 25.388 285.137 25.204C285.297 25.012 285.377 24.788 285.377 24.532C285.377 24.276 285.281 24.084 285.089 23.956C284.905 23.82 284.645 23.752 284.309 23.752C283.973 23.752 283.641 23.804 283.313 23.908C282.985 24.012 282.649 24.152 282.305 24.328L281.669 23.044C282.061 22.828 282.485 22.652 282.941 22.516C283.397 22.38 283.897 22.312 284.441 22.312C285.273 22.312 285.917 22.512 286.373 22.912C286.837 23.312 287.069 23.82 287.069 24.436C287.069 24.764 287.017 25.048 286.913 25.288C286.809 25.528 286.653 25.752 286.445 25.96C286.237 26.16 285.977 26.376 285.665 26.608C285.433 26.776 285.253 26.92 285.125 27.04C284.997 27.16 284.909 27.276 284.861 27.388C284.821 27.5 284.801 27.64 284.801 27.808V28.156H283.253V27.724ZM283.061 30.16C283.061 29.792 283.161 29.536 283.361 29.392C283.561 29.24 283.805 29.164 284.093 29.164C284.373 29.164 284.613 29.24 284.813 29.392C285.013 29.536 285.113 29.792 285.113 30.16C285.113 30.512 285.013 30.768 284.813 30.928C284.613 31.08 284.373 31.156 284.093 31.156C283.805 31.156 283.561 31.08 283.361 30.928C283.161 30.768 283.061 30.512 283.061 30.16Z" fill="#2F2D44"/>
<rect x="27" y="218" width="396" height="151" stroke="#5A72B0" stroke-width="4"/>
<path d="M112.42 321.716C112.42 322.636 112.32 323.424 112.12 324.08C111.928 324.736 111.612 325.24 111.172 325.592C110.74 325.944 110.156 326.12 109.42 326.12C108.388 326.12 107.632 325.732 107.152 324.956C106.672 324.172 106.432 323.092 106.432 321.716C106.432 320.788 106.528 319.996 106.72 319.34C106.912 318.684 107.228 318.18 107.668 317.828C108.108 317.476 108.692 317.3 109.42 317.3C110.444 317.3 111.2 317.688 111.688 318.464C112.176 319.24 112.42 320.324 112.42 321.716ZM108.232 321.716C108.232 322.692 108.316 323.428 108.484 323.924C108.652 324.412 108.964 324.656 109.42 324.656C109.868 324.656 110.18 324.412 110.356 323.924C110.532 323.436 110.62 322.7 110.62 321.716C110.62 320.74 110.532 320.004 110.356 319.508C110.18 319.012 109.868 318.764 109.42 318.764C108.964 318.764 108.652 319.012 108.484 319.508C108.316 320.004 108.232 320.74 108.232 321.716ZM119.023 322.4V323.48H121.099V324.356H122.683V315.98H121.099V322.4H119.023ZM116.899 317.504C117.631 317.504 118.147 317.792 118.147 318.332C118.147 318.872 117.631 319.148 116.899 319.148C116.155 319.148 115.639 318.872 115.639 318.332C115.639 317.792 116.155 317.504 116.899 317.504ZM116.899 320.3C118.507 320.3 119.647 319.508 119.647 318.332C119.647 317.156 118.507 316.352 116.899 316.352C115.279 316.352 114.151 317.156 114.151 318.332C114.151 319.508 115.279 320.3 116.899 320.3ZM116.311 325.58V324.068H117.835V321.98C118.723 321.908 119.611 321.812 120.475 321.668L120.367 320.54C118.039 320.84 115.351 320.864 113.335 320.876L113.539 322.136C114.367 322.136 115.291 322.124 116.263 322.076V323.552H114.727V326.84H122.923V325.58H116.311Z" fill="#5A72B0"/>
<rect x="85.5" y="291.5" width="59" height="59" stroke="#665AB0"/>
<rect x="317.5" y="291.5" width="59" height="59" stroke="#665AB0"/>
<path d="M115.5 258.5C121.485 258.5 126.333 253.652 126.333 247.667C126.333 241.681 121.485 236.833 115.5 236.833C109.515 236.833 104.667 241.681 104.667 247.667C104.667 253.652 109.515 258.5 115.5 258.5ZM115.5 263.917C108.269 263.917 93.8333 267.546 93.8333 274.75V280.167H137.167V274.75C137.167 267.546 122.731 263.917 115.5 263.917Z" fill="#665AB0"/>
<path d="M111.436 225.024H109.852V232.32H110.812C112.42 232.32 114.196 232.224 116.032 231.84L115.876 230.544C114.328 230.844 112.828 230.964 111.436 231V225.024ZM119.716 228.144H118.168V223.968H116.584V235.008H118.168V229.452H119.716V228.144Z" fill="#2F2D44"/>
<path d="M347.5 258.5C353.485 258.5 358.333 253.652 358.333 247.667C358.333 241.681 353.485 236.833 347.5 236.833C341.515 236.833 336.667 241.681 336.667 247.667C336.667 253.652 341.515 258.5 347.5 258.5ZM347.5 263.917C340.269 263.917 325.833 267.546 325.833 274.75V280.167H369.167V274.75C369.167 267.546 354.731 263.917 347.5 263.917Z" fill="#665AB0"/>
<path d="M345.696 223.98H344.1V232.068H345.696V223.98ZM343.404 229.5C341.604 229.008 340.8 227.772 340.8 226.56V226.5H343.02V225.252H340.8V224.04H339.216V225.252H336.984V226.5H339.216V226.56C339.216 227.856 338.424 229.152 336.624 229.68L337.368 230.916C338.652 230.544 339.54 229.74 340.032 228.732C340.548 229.656 341.412 230.388 342.672 230.736L343.404 229.5ZM339.924 233.58V231.36H338.34V234.84H345.972V233.58H339.924ZM357.551 229.32H356.099C356.375 227.772 356.375 226.644 356.375 225.612V224.616H348.707V225.888H354.827C354.827 226.836 354.803 227.916 354.527 229.32H347.567V230.592H351.695V235.032H353.303V230.592H357.551V229.32Z" fill="#2F2D44"/>
<path d="M208.956 321H207.144V316.044C207.144 315.836 207.148 315.564 207.156 315.228C207.172 314.892 207.184 314.596 207.192 314.34C207.152 314.388 207.064 314.476 206.928 314.604C206.8 314.724 206.68 314.832 206.568 314.928L205.584 315.72L204.708 314.628L207.468 312.432H208.956V321ZM217.287 316.716C217.287 317.636 217.187 318.424 216.987 319.08C216.795 319.736 216.479 320.24 216.039 320.592C215.607 320.944 215.023 321.12 214.287 321.12C213.255 321.12 212.499 320.732 212.019 319.956C211.539 319.172 211.299 318.092 211.299 316.716C211.299 315.788 211.395 314.996 211.587 314.34C211.779 313.684 212.095 313.18 212.535 312.828C212.975 312.476 213.559 312.3 214.287 312.3C215.311 312.3 216.067 312.688 216.555 313.464C217.043 314.24 217.287 315.324 217.287 316.716ZM213.099 316.716C213.099 317.692 213.183 318.428 213.351 318.924C213.519 319.412 213.831 319.656 214.287 319.656C214.735 319.656 215.047 319.412 215.223 318.924C215.399 318.436 215.487 317.7 215.487 316.716C215.487 315.74 215.399 315.004 215.223 314.508C215.047 314.012 214.735 313.764 214.287 313.764C213.831 313.764 213.519 314.012 213.351 314.508C213.183 315.004 213.099 315.74 213.099 316.716ZM224.154 316.716C224.154 317.636 224.054 318.424 223.854 319.08C223.662 319.736 223.346 320.24 222.906 320.592C222.474 320.944 221.89 321.12 221.154 321.12C220.122 321.12 219.366 320.732 218.886 319.956C218.406 319.172 218.166 318.092 218.166 316.716C218.166 315.788 218.262 314.996 218.454 314.34C218.646 313.684 218.962 313.18 219.402 312.828C219.842 312.476 220.426 312.3 221.154 312.3C222.178 312.3 222.934 312.688 223.422 313.464C223.91 314.24 224.154 315.324 224.154 316.716ZM219.966 316.716C219.966 317.692 220.05 318.428 220.218 318.924C220.386 319.412 220.698 319.656 221.154 319.656C221.602 319.656 221.914 319.412 222.09 318.924C222.266 318.436 222.354 317.7 222.354 316.716C222.354 315.74 222.266 315.004 222.09 314.508C221.914 314.012 221.602 313.764 221.154 313.764C220.698 313.764 220.386 314.012 220.218 314.508C220.05 315.004 219.966 315.74 219.966 316.716ZM229.15 315.972H226.99V313.14H229.15V315.972ZM230.71 311.892H225.442V317.22H230.71V311.892ZM228.274 318.252H226.69V321.84H234.214V320.58H228.274V318.252ZM233.818 314.172V310.98H232.234V319.044H233.818V315.468H235.282V314.172H233.818ZM241.797 317.4V318.48H243.873V319.356H245.457V310.98H243.873V317.4H241.797ZM239.673 312.504C240.405 312.504 240.921 312.792 240.921 313.332C240.921 313.872 240.405 314.148 239.673 314.148C238.929 314.148 238.413 313.872 238.413 313.332C238.413 312.792 238.929 312.504 239.673 312.504ZM239.673 315.3C241.281 315.3 242.421 314.508 242.421 313.332C242.421 312.156 241.281 311.352 239.673 311.352C238.053 311.352 236.925 312.156 236.925 313.332C236.925 314.508 238.053 315.3 239.673 315.3ZM239.085 320.58V319.068H240.609V316.98C241.497 316.908 242.385 316.812 243.249 316.668L243.141 315.54C240.813 315.84 238.125 315.864 236.109 315.876L236.313 317.136C237.141 317.136 238.065 317.124 239.037 317.076V318.552H237.501V321.84H245.697V320.58H239.085Z" fill="#665AB0"/>
<path d="M219.317 301.65L226.95 294L219.317 286.35L221.667 284L231.667 294L221.667 304L219.317 301.65Z" fill="#B05A5A"/>
<path d="M222.088 260.968V272.056H223.672V260.968H222.088ZM217.732 261.748C216.064 261.748 214.828 263.26 214.828 265.684C214.828 268.12 216.064 269.644 217.732 269.644C219.4 269.644 220.636 268.12 220.636 265.684C220.636 263.26 219.4 261.748 217.732 261.748ZM217.732 263.176C218.548 263.176 219.112 264.052 219.112 265.684C219.112 267.328 218.548 268.204 217.732 268.204C216.916 268.204 216.352 267.328 216.352 265.684C216.352 264.052 216.916 263.176 217.732 263.176ZM228.987 264.1H230.679V262.828H228.987V261.34H227.487V262.828H225.759V264.1H227.487V264.328C227.487 266.032 226.923 267.844 225.351 268.768L226.239 269.956C227.235 269.38 227.883 268.396 228.255 267.244C228.651 268.3 229.287 269.176 230.259 269.692L231.111 268.516C229.551 267.688 228.987 265.996 228.987 264.328V264.1ZM231.303 265.156H230.043V266.44H231.303V271.528H232.779V261.16H231.303V265.156ZM233.535 260.968V272.02H235.035V260.968H233.535Z" fill="#2F2D44"/>
<path d="M344.42 321.716C344.42 322.636 344.32 323.424 344.12 324.08C343.928 324.736 343.612 325.24 343.172 325.592C342.74 325.944 342.156 326.12 341.42 326.12C340.388 326.12 339.632 325.732 339.152 324.956C338.672 324.172 338.432 323.092 338.432 321.716C338.432 320.788 338.528 319.996 338.72 319.34C338.912 318.684 339.228 318.18 339.668 317.828C340.108 317.476 340.692 317.3 341.42 317.3C342.444 317.3 343.2 317.688 343.688 318.464C344.176 319.24 344.42 320.324 344.42 321.716ZM340.232 321.716C340.232 322.692 340.316 323.428 340.484 323.924C340.652 324.412 340.964 324.656 341.42 324.656C341.868 324.656 342.18 324.412 342.356 323.924C342.532 323.436 342.62 322.7 342.62 321.716C342.62 320.74 342.532 320.004 342.356 319.508C342.18 319.012 341.868 318.764 341.42 318.764C340.964 318.764 340.652 319.012 340.484 319.508C340.316 320.004 340.232 320.74 340.232 321.716ZM351.023 322.4V323.48H353.099V324.356H354.683V315.98H353.099V322.4H351.023ZM348.899 317.504C349.631 317.504 350.147 317.792 350.147 318.332C350.147 318.872 349.631 319.148 348.899 319.148C348.155 319.148 347.639 318.872 347.639 318.332C347.639 317.792 348.155 317.504 348.899 317.504ZM348.899 320.3C350.507 320.3 351.647 319.508 351.647 318.332C351.647 317.156 350.507 316.352 348.899 316.352C347.279 316.352 346.151 317.156 346.151 318.332C346.151 319.508 347.279 320.3 348.899 320.3ZM348.311 325.58V324.068H349.835V321.98C350.723 321.908 351.611 321.812 352.475 321.668L352.367 320.54C350.039 320.84 347.351 320.864 345.335 320.876L345.539 322.136C346.367 322.136 347.291 322.124 348.263 322.076V323.552H346.727V326.84H354.923V325.58H348.311Z" fill="#5A72B0"/>
<path d="M248.333 317.167L224.833 293.667L201.333 317.167L193.5 309.333L217 285.833L193.5 262.333L201.333 254.5L224.833 278L248.333 254.5L256.167 262.333L232.667 285.833L256.167 309.333L248.333 317.167Z" fill="#DF1313" fill-opacity="0.58"/>
</svg>
